SplineFontDB: 3.2
FontName: ATM535-Regular
FullName: ATM535-Regular
FamilyName: ATM 535
Weight: Book
Version: 1.001
ItalicAngle: -11
UnderlinePosition: -271
UnderlineWidth: 102
Ascent: 1600
Descent: 400
InvalidEm: 0
sfntRevision: 0x00010042
LayerCount: 2
Layer: 0 1 "Back" 1
Layer: 1 1 "Fore" 0
XUID: [1021 192 2086997156 20178]
StyleMap: 0x0040
FSType: 8
OS2Version: 3
OS2_WeightWidthSlopeOnly: 0
OS2_UseTypoMetrics: 0
CreationTime: 1537433694
ModificationTime: 1545714963
PfmFamily: 17
TTFWeight: 400
TTFWidth: 5
LineGap: 0
VLineGap: 0
Panose: 2 0 5 5 0 0 0 2 0 2
OS2TypoAscent: 2000
OS2TypoAOffset: 0
OS2TypoDescent: -1320
OS2TypoDOffset: 0
OS2TypoLinegap: 0
OS2WinAscent: 2000
OS2WinAOffset: 0
OS2WinDescent: 744
OS2WinDOffset: 0
HheadAscent: 2000
HheadAOffset: 0
HheadDescent: -1320
HheadDOffset: 0
OS2SubXSize: 1400
OS2SubYSize: 1300
OS2SubXOff: 0
OS2SubYOff: 0
OS2SupXSize: 1400
OS2SupYSize: 1300
OS2SupXOff: 0
OS2SupYOff: 0
OS2StrikeYSize: 100
OS2StrikeYPos: 518
OS2CapHeight: 1586
OS2XHeight: -200
OS2Vendor: '    '
OS2CodePages: 00000001.00000000
OS2UnicodeRanges: 00100003.00000000.00000000.00000000
Lookup: 4 0 0 "'akhn' Akhand in Tamil2 lookup 0" { "'akhn' Akhand in Tamil2 lookup 0 subtable"  } ['akhn' ('tml2' <'dflt' > ) ]
Lookup: 4 0 0 "'akhn' Akhand in Tamil lookup 1" { "'akhn' Akhand in Tamil lookup 1 subtable"  } ['akhn' ('taml' <'dflt' > ) ]
Lookup: 4 0 0 "'half' Half Forms in Tamil lookup 2" { "'half' Half Forms in Tamil lookup 2 subtable"  } ['half' ('taml' <'dflt' > ) ]
Lookup: 4 0 0 "'haln' Halant Forms in Tamil2 lookup 3" { "'haln' Halant Forms in Tamil2 lookup 3 subtable"  } ['haln' ('tml2' <'dflt' > ) ]
Lookup: 4 0 0 "'haln' Halant Forms in Tamil lookup 4" { "'haln' Halant Forms in Tamil lookup 4 subtable"  } ['haln' ('taml' <'dflt' > ) ]
Lookup: 4 0 0 "'abvs' Above Base Substitutions lookup 5" { "'abvs' Above Base Substitutions lookup 5 subtable"  } ['abvs' ('taml' <'dflt' > 'tml2' <'dflt' > ) ]

StartChar: exclam
Encoding: 33 33 4
Width: 590
GlyphClass: 2
Flags: W
LayerCount: 2
Fore
SplineSet
502 1082 m 0,0,1
 502 1047 502 1047 425 737 c 0,2,3
 387 580 387 580 367 471 c 128,-1,4
 347 362 347 362 347 297 c 1,5,-1
 350 252 l 1,6,7
 260 237 260 237 182 330 c 1,8,9
 182 422 182 422 183.5 526 c 128,-1,10
 185 630 185 630 195 737 c 0,11,12
 217 990 217 990 217 1057 c 0,13,14
 217 1182 217 1182 160 1230 c 1,15,-1
 270 1240 l 1,16,17
 502 1240 502 1240 502 1082 c 0,0,1
455 40 m 0,18,19
 455 -40 455 -40 385 -99 c 128,-1,20
 315 -158 315 -158 230 -158 c 0,21,22
 162 -158 162 -158 120 -115 c 0,23,24
 82 -73 82 -73 82 -8 c 0,25,26
 82 75 82 75 144.5 137.5 c 128,-1,27
 207 200 207 200 292 200 c 0,28,29
 455 200 455 200 455 40 c 0,18,19
EndSplineSet
EndChar

StartChar: quotedbl
Encoding: 34 34 5
Width: 606
GlyphClass: 2
Flags: W
LayerCount: 2
Fore
SplineSet
109 647 m 1,0,-1
 63 912 l 1,1,-1
 63 1140 l 1,2,-1
 257 1140 l 1,3,-1
 257 912 l 1,4,-1
 214 647 l 1,5,-1
 109 647 l 1,0,-1
423 647 m 1,6,-1
 378 912 l 1,7,-1
 378 1140 l 1,8,-1
 572 1140 l 1,9,-1
 572 912 l 1,10,-1
 527 647 l 1,11,-1
 423 647 l 1,6,-1
EndSplineSet
EndChar

StartChar: numbersign
Encoding: 35 35 6
Width: 1203
GlyphClass: 2
Flags: W
LayerCount: 2
Fore
SplineSet
179 22 m 1,0,-1
 264 356 l 1,1,-1
 103 356 l 1,2,-1
 103 473 l 1,3,-1
 288 473 l 1,4,-1
 358 761 l 1,5,-1
 103 761 l 1,6,-1
 103 876 l 1,7,-1
 386 876 l 1,8,-1
 471 1218 l 1,9,-1
 609 1218 l 1,10,-1
 526 876 l 1,11,-1
 817 876 l 1,12,-1
 903 1218 l 1,13,-1
 1041 1218 l 1,14,-1
 962 876 l 1,15,-1
 1124 876 l 1,16,-1
 1124 761 l 1,17,-1
 932 761 l 1,18,-1
 861 473 l 1,19,-1
 1124 473 l 1,20,-1
 1124 356 l 1,21,-1
 832 356 l 1,22,-1
 755 22 l 1,23,-1
 611 22 l 1,24,-1
 688 356 l 1,25,-1
 401 356 l 1,26,-1
 322 22 l 1,27,-1
 179 22 l 1,0,-1
435 473 m 1,28,-1
 724 473 l 1,29,-1
 792 761 l 1,30,-1
 501 761 l 1,31,-1
 435 473 l 1,28,-1
EndSplineSet
EndChar

StartChar: dollar.001
Encoding: 65539 -1 7
Width: 1440
GlyphClass: 2
Flags: W
LayerCount: 2
Fore
SplineSet
1375 1015 m 1,0,1
 1297 982 1297 982 1125 820 c 2,2,-1
 830 540 l 1,3,4
 1025 237 1025 237 1207 120 c 1,5,6
 1280 120 1280 120 1352 195 c 1,7,8
 1367 105 1367 105 1265 27 c 0,9,10
 1217 -8 1217 -8 1164.5 -26.5 c 128,-1,11
 1112 -45 1112 -45 1055 -45 c 1,12,13
 832 37 832 37 617 342 c 1,14,-1
 437 92 l 2,15,16
 330 -53 330 -53 275 -53 c 0,17,18
 210 -53 210 -53 176 -34 c 128,-1,19
 142 -15 142 -15 90 47 c 1,20,21
 225 115 225 115 535 462 c 1,22,23
 437 625 437 625 227 912 c 1,24,-1
 177 930 l 2,25,26
 170 932 170 932 147 932 c 0,27,28
 125 932 125 932 87 925 c 1,29,30
 237 1140 237 1140 410 1140 c 1,31,-1
 447 1137 l 1,32,33
 492 1110 492 1110 577 967 c 2,34,-1
 752 665 l 1,35,36
 812 725 812 725 1007 980 c 1,37,38
 1140 1147 1140 1147 1175 1142 c 1,39,40
 1250 1150 1250 1150 1300 1110 c 1,41,-1
 1375 1015 l 1,0,1
EndSplineSet
EndChar

StartChar: percent
Encoding: 37 37 8
Width: 1555
GlyphClass: 2
Flags: W
LayerCount: 2
Fore
SplineSet
727 815 m 0,0,1
 727 665 727 665 627 556 c 128,-1,2
 527 447 527 447 380 447 c 0,3,4
 242 447 242 447 164.5 543.5 c 128,-1,5
 87 640 87 640 87 777 c 0,6,7
 87 927 87 927 188.5 1041 c 128,-1,8
 290 1155 290 1155 437 1155 c 0,9,10
 727 1155 727 1155 727 815 c 0,0,1
1225 1095 m 2,11,-1
 465 42 l 1,12,13
 472 20 472 20 454.5 -5 c 128,-1,14
 437 -30 437 -30 407 -30 c 0,15,16
 385 -30 385 -30 362 -15 c 0,17,18
 305 15 305 15 305 42 c 0,19,20
 305 57 305 57 332 75 c 1,21,-1
 1102 1132 l 1,22,23
 1140 1205 1140 1205 1180 1205 c 0,24,25
 1202 1205 1202 1205 1224.5 1190 c 128,-1,26
 1247 1175 1247 1175 1247 1152 c 0,27,28
 1247 1132 1247 1132 1225 1095 c 2,11,-1
1467 380 m 0,29,30
 1467 225 1467 225 1390 130 c 0,31,32
 1302 20 1302 20 1135 20 c 0,33,34
 990 20 990 20 917 122 c 0,35,36
 850 210 850 210 850 350 c 0,37,38
 850 492 850 492 947.5 603.5 c 128,-1,39
 1045 715 1045 715 1185 715 c 0,40,41
 1332 715 1332 715 1405 612 c 0,42,43
 1467 522 1467 522 1467 380 c 0,29,30
495 872 m 0,44,45
 495 1057 495 1057 422 1057 c 0,46,47
 370 1057 370 1057 337 942 c 1,48,49
 312 835 312 835 312 722 c 0,50,51
 312 655 312 655 333.5 602.5 c 128,-1,52
 355 550 355 550 385 545 c 1,53,54
 437 545 437 545 466 652.5 c 128,-1,55
 495 760 495 760 495 872 c 0,44,45
1255 417 m 1,56,-1
 1245 550 l 1,57,58
 1232 620 1232 620 1190 620 c 0,59,60
 1080 620 1080 620 1080 287 c 0,61,62
 1080 187 1080 187 1088.5 146 c 128,-1,63
 1097 105 1097 105 1145 105 c 0,64,65
 1192 105 1192 105 1230 212 c 0,66,67
 1245 260 1245 260 1250 307.5 c 128,-1,68
 1255 355 1255 355 1255 417 c 1,56,-1
EndSplineSet
EndChar

StartChar: ampersand
Encoding: 38 38 9
Width: 1460
GlyphClass: 2
Flags: W
LayerCount: 2
Fore
SplineSet
1372 95 m 0,0,1
 1372 55 1372 55 1317 8.5 c 128,-1,2
 1262 -38 1262 -38 1200 -38 c 0,3,4
 1117 -38 1117 -38 1007 60 c 1,5,6
 805 -60 805 -60 610 -60 c 0,7,8
 402 -60 402 -60 255 25 c 0,9,10
 85 122 85 122 85 297 c 0,11,12
 85 485 85 485 375 632 c 1,13,14
 292 690 292 690 262 730 c 0,15,16
 215 790 215 790 215 865 c 0,17,18
 215 1005 215 1005 350 1092 c 0,19,20
 467 1167 467 1167 632 1167 c 0,21,22
 990 1167 990 1167 990 922 c 0,23,24
 990 817 990 817 900 735 c 0,25,26
 855 695 855 695 710 610 c 1,27,28
 785 522 785 522 925 382 c 1,29,-1
 985 325 l 1,30,31
 997 355 997 355 1002 385 c 1,32,33
 1002 440 1002 440 947 512 c 1,34,35
 965 520 965 520 1010 525 c 1,36,37
 1090 525 1090 525 1168.5 478.5 c 128,-1,38
 1247 432 1247 432 1247 360 c 0,39,40
 1247 270 1247 270 1157 172 c 1,41,42
 1197 150 1197 150 1222 147 c 0,43,44
 1275 147 1275 147 1340 200 c 1,45,46
 1372 160 1372 160 1372 95 c 0,0,1
745 945 m 0,47,48
 745 1052 745 1052 627 1070 c 0,49,50
 567 1077 567 1077 519.5 1037 c 128,-1,51
 472 997 472 997 472 940 c 0,52,53
 472 837 472 837 585 740 c 1,54,55
 745 827 745 827 745 945 c 0,47,48
875 195 m 1,56,-1
 777 295 l 2,57,58
 687 385 687 385 545 500 c 1,59,60
 380 367 380 367 380 237 c 0,61,62
 380 150 380 150 437.5 100 c 128,-1,63
 495 50 495 50 580 50 c 0,64,65
 712 50 712 50 875 195 c 1,56,-1
EndSplineSet
EndChar

StartChar: quotesingle
Encoding: 39 39 10
Width: 368
GlyphClass: 2
Flags: W
LayerCount: 2
Fore
SplineSet
137 647 m 1,0,-1
 91 912 l 1,1,-1
 91 1140 l 1,2,-1
 285 1140 l 1,3,-1
 285 912 l 1,4,-1
 242 647 l 1,5,-1
 137 647 l 1,0,-1
EndSplineSet
EndChar

StartChar: parenleft
Encoding: 40 40 11
Width: 500
GlyphClass: 2
Flags: W
LayerCount: 2
Fore
SplineSet
725 1117 m 1,0,1
 555 1100 555 1100 421 891 c 128,-1,2
 287 682 287 682 287 422 c 0,3,4
 287 -78 287 -78 677 -213 c 1,5,6
 662 -278 662 -278 602 -293 c 1,7,8
 87 -93 87 -93 87 505 c 0,9,10
 87 780 87 780 222 1017 c 0,11,12
 345 1225 345 1225 507 1290 c 1,13,14
 677 1237 677 1237 725 1117 c 1,0,1
EndSplineSet
EndChar

StartChar: parenright
Encoding: 41 41 12
Width: 487
GlyphClass: 2
Flags: W
LayerCount: 2
Fore
SplineSet
400 490 m 0,0,1
 400 217 400 217 263.5 6 c 128,-1,2
 127 -205 127 -205 -103 -278 c 1,3,4
 -245 -193 -245 -193 -255 -123 c 1,5,6
 -95 -83 -95 -83 35 137 c 0,7,8
 100 250 100 250 132.5 361 c 128,-1,9
 165 472 165 472 165 600 c 0,10,11
 165 715 165 715 152.5 797.5 c 128,-1,12
 140 880 140 880 107 957 c 0,13,14
 40 1117 40 1117 -120 1230 c 1,15,-1
 -65 1272 l 1,16,17
 137 1205 137 1205 270 982 c 0,18,19
 335 870 335 870 367.5 751 c 128,-1,20
 400 632 400 632 400 490 c 0,0,1
EndSplineSet
EndChar

StartChar: asterisk
Encoding: 42 42 13
Width: 827
GlyphClass: 2
Flags: W
LayerCount: 2
Fore
SplineSet
575 1112 m 1,0,-1
 717 992 l 1,1,-1
 542 855 l 1,2,-1
 415 1002 l 1,3,-1
 300 850 l 1,4,-1
 112 982 l 1,5,-1
 255 1115 l 1,6,-1
 67 1175 l 1,7,-1
 147 1385 l 1,8,-1
 305 1307 l 1,9,-1
 305 1505 l 1,10,-1
 522 1505 l 1,11,-1
 522 1302 l 1,12,-1
 687 1372 l 1,13,-1
 757 1167 l 1,14,-1
 575 1112 l 1,0,-1
EndSplineSet
EndChar

StartChar: plus
Encoding: 43 43 14
Width: 1535
GlyphClass: 2
Flags: W
LayerCount: 2
Fore
SplineSet
1445 497 m 0,0,1
 1445 430 1445 430 1300 430 c 2,2,-1
 890 430 l 1,3,4
 890 377 890 377 888.5 326 c 128,-1,5
 887 275 887 275 887 222 c 0,6,7
 887 190 887 190 887 160 c 0,8,9
 892 115 892 115 892 95 c 0,10,11
 892 40 892 40 930 -3 c 1,12,13
 930 -35 930 -35 812 -35 c 0,14,15
 635 -35 635 -35 612 40 c 0,16,17
 600 90 600 90 596 173.5 c 128,-1,18
 592 257 592 257 592 432 c 1,19,-1
 322 430 l 2,20,21
 265 430 265 430 185 372 c 1,22,23
 155 387 155 387 122 427 c 0,24,25
 80 477 80 477 80 520 c 0,26,27
 80 555 80 555 113.5 573.5 c 128,-1,28
 147 592 147 592 190 592 c 0,29,30
 257 587 257 587 384.5 579.5 c 128,-1,31
 512 572 512 572 597 572 c 1,32,33
 597 732 597 732 586 822 c 128,-1,34
 575 912 575 912 547 952 c 1,35,36
 560 1000 560 1000 690 1000 c 0,37,38
 885 1000 885 1000 907 905 c 0,39,40
 910 895 910 895 903.5 778.5 c 128,-1,41
 897 662 897 662 897 572 c 1,42,-1
 1297 582 l 2,43,44
 1352 582 1352 582 1345 627 c 1,45,46
 1445 565 1445 565 1445 497 c 0,0,1
EndSplineSet
EndChar

StartChar: comma
Encoding: 44 44 15
Width: 692
GlyphClass: 2
Flags: W
LayerCount: 2
Fore
SplineSet
537 170 m 0,0,1
 537 32 537 32 419.5 -89 c 128,-1,2
 302 -210 302 -210 202 -210 c 0,3,4
 157 -210 157 -210 157 -165 c 256,5,6
 157 -120 157 -120 185 -118 c 0,7,8
 232 -118 232 -118 300 -65 c 0,9,10
 352 -20 352 -20 375 25 c 1,11,-1
 237 0 l 1,12,13
 170 0 170 0 126 47.5 c 128,-1,14
 82 95 82 95 82 160 c 0,15,16
 82 255 82 255 156 307.5 c 128,-1,17
 230 360 230 360 332 360 c 0,18,19
 537 360 537 360 537 170 c 0,0,1
EndSplineSet
EndChar

StartChar: hyphen
Encoding: 45 45 16
Width: 1037
GlyphClass: 2
Flags: W
LayerCount: 2
Fore
SplineSet
952 550 m 0,0,1
 952 492 952 492 921 427 c 128,-1,2
 890 362 890 362 840 362 c 1,3,4
 765 370 765 370 172 370 c 0,5,6
 115 370 115 370 103.5 376 c 128,-1,7
 92 382 92 382 87 417 c 1,8,9
 87 617 87 617 157 617 c 2,10,-1
 410 605 l 1,11,-1
 697 607 l 1,12,-1
 922 610 l 2,13,14
 952 610 952 610 952 550 c 0,0,1
EndSplineSet
EndChar

StartChar: period
Encoding: 46 46 17
Width: 685
GlyphClass: 2
Flags: W
LayerCount: 2
Fore
SplineSet
515 217 m 0,0,1
 515 122 515 122 436 57 c 128,-1,2
 357 -8 357 -8 255 -8 c 0,3,4
 187 -8 187 -8 132 40 c 1,5,6
 82 90 82 90 82 162 c 0,7,8
 82 260 82 260 158.5 327.5 c 128,-1,9
 235 395 235 395 340 395 c 0,10,11
 410 395 410 395 462.5 342.5 c 128,-1,12
 515 290 515 290 515 217 c 0,0,1
EndSplineSet
EndChar

StartChar: slash
Encoding: 47 47 18
Width: 725
GlyphClass: 2
Flags: W
LayerCount: 2
Fore
SplineSet
965 1355 m 0,0,1
 815 1090 815 1090 665 827 c 0,2,3
 382 327 382 327 360 290 c 0,4,5
 267 127 267 127 45 -258 c 0,6,7
 37 -265 37 -265 37 -283 c 2,8,-1
 35 -310 l 1,9,10
 27 -325 27 -325 0 -335 c 0,11,12
 -33 -343 -33 -343 -91.5 -326.5 c 128,-1,13
 -150 -310 -150 -310 -155 -280 c 1,14,15
 -148 -260 -148 -260 -143 -255 c 2,16,-1
 347 572 l 1,17,18
 810 1372 810 1372 815 1407 c 1,19,20
 845 1452 845 1452 895 1452 c 0,21,22
 920 1452 920 1452 951 1436 c 128,-1,23
 982 1420 982 1420 982 1395 c 0,24,25
 982 1380 982 1380 965 1355 c 0,0,1
EndSplineSet
EndChar

StartChar: zero
Encoding: 48 48 19
Width: 1119
GlyphClass: 2
Flags: W
LayerCount: 2
Fore
SplineSet
1039 537 m 0,0,1
 1039 -23 1039 -23 528 -23 c 0,2,3
 315 -23 315 -23 199 99 c 128,-1,4
 83 221 83 221 83 408 c 0,5,6
 83 1035 83 1035 602 1035 c 0,7,8
 817 1035 817 1035 939 884 c 1,9,10
 1039 749 1039 749 1039 537 c 0,0,1
745 543 m 0,11,12
 745 717 745 717 727 781 c 0,13,14
 694 904 694 904 602 904 c 0,15,16
 501 904 501 904 446 740 c 0,17,18
 402 600 402 600 402 422 c 0,19,20
 402 69 402 69 523 69 c 0,21,22
 632 69 632 69 694 230 c 0,23,24
 745 368 745 368 745 543 c 0,11,12
EndSplineSet
EndChar

StartChar: one
Encoding: 49 49 20
Width: 600
GlyphClass: 2
Flags: W
LayerCount: 2
Fore
SplineSet
521 949 m 1,0,1
 483 891 483 891 469 807 c 0,2,3
 458 717 458 717 451 614.5 c 128,-1,4
 444 512 444 512 444 420 c 0,5,6
 444 374 444 374 451 272.5 c 128,-1,7
 458 171 458 171 458 113 c 1,8,9
 465 38 465 38 514 -11 c 1,10,-1
 386 -23 l 1,11,12
 151 -23 151 -23 151 113 c 1,13,-1
 144 223 l 1,14,-1
 144 343 l 1,15,16
 153 430 153 430 157.5 519.5 c 128,-1,17
 162 609 162 609 162 722 c 0,18,19
 162 809 162 809 81 799 c 1,20,21
 81 845 81 845 131 921 c 0,22,23
 171 983 171 983 197 993 c 128,-1,24
 223 1003 223 1003 249 1008 c 128,-1,25
 275 1013 275 1013 315 1013 c 0,26,27
 465 1013 465 1013 521 949 c 1,0,1
EndSplineSet
EndChar

StartChar: two
Encoding: 50 50 21
Width: 1101
GlyphClass: 2
Flags: W
LayerCount: 2
Fore
SplineSet
1021 144 m 0,0,1
 1021 -23 1021 -23 785 -23 c 0,2,3
 711 -23 711 -23 588 0 c 0,4,5
 532 10 532 10 478 17.5 c 128,-1,6
 424 25 424 25 384 25 c 0,7,8
 320 25 320 25 285 13.5 c 128,-1,9
 250 2 250 2 209 -46 c 1,10,11
 169 -16 169 -16 126 51 c 0,12,13
 77 128 77 128 77 182 c 1,14,15
 444 424 444 424 494 462 c 0,16,17
 711 638 711 638 711 809 c 0,18,19
 711 902 711 902 614 902 c 0,20,21
 514 902 514 902 438.5 809.5 c 128,-1,22
 363 717 363 717 363 624 c 0,23,24
 363 591 363 591 374 568 c 1,25,26
 333 557 333 557 299 557 c 0,27,28
 286 557 286 557 255 561 c 0,29,30
 167 578 167 578 135 598 c 0,31,32
 81 632 81 632 81 704 c 0,33,34
 81 823 81 823 230 915.5 c 128,-1,35
 379 1008 379 1008 568 1008 c 0,36,37
 965 1008 965 1008 965 760 c 0,38,39
 965 596 965 596 758 408 c 0,40,41
 699 356 699 356 460 189 c 1,42,-1
 596 182 l 1,43,-1
 719 176 l 2,44,45
 749 176 749 176 778 178 c 128,-1,46
 807 180 807 180 839 187 c 128,-1,47
 871 194 871 194 900 218.5 c 128,-1,48
 929 243 929 243 934 275 c 1,49,50
 1021 248 1021 248 1021 144 c 0,0,1
EndSplineSet
EndChar

StartChar: three
Encoding: 51 51 22
Width: 1106
GlyphClass: 2
Flags: W
LayerCount: 2
Fore
SplineSet
1024 340 m 0,0,1
 1024 176 1024 176 871 72 c 0,2,3
 731 -23 731 -23 541 -23 c 0,4,5
 330 -23 330 -23 204.5 59.5 c 128,-1,6
 79 142 79 142 79 255 c 0,7,8
 79 294 79 294 97 320 c 0,9,10
 137 381 137 381 241 381 c 0,11,12
 299 381 299 381 355.5 363 c 128,-1,13
 412 345 412 345 428 325 c 1,14,15
 379 261 379 261 379 221 c 0,16,17
 379 162 379 162 417.5 121.5 c 128,-1,18
 456 81 456 81 512 81 c 0,19,20
 602 81 602 81 662 143 c 128,-1,21
 722 205 722 205 722 312 c 0,22,23
 722 465 722 465 596 465 c 0,24,25
 534 465 534 465 451 440 c 0,26,27
 404 426 404 426 388 498 c 1,28,-1
 381 555 l 2,29,30
 381 579 381 579 417 578 c 2,31,-1
 465 575 l 1,32,33
 566 575 566 575 631 633 c 128,-1,34
 696 691 696 691 696 789 c 0,35,36
 696 916 696 916 582 916 c 0,37,38
 410 916 410 916 374 656 c 1,39,40
 353 642 353 642 313 642 c 0,41,42
 253 642 253 642 192 677 c 128,-1,43
 131 712 131 712 131 769 c 0,44,45
 131 882 131 882 273 957 c 1,46,47
 399 1019 399 1019 557 1019 c 0,48,49
 719 1019 719 1019 845.5 960.5 c 128,-1,50
 972 902 972 902 972 785 c 0,51,52
 972 622 972 622 814 555 c 1,53,54
 900 541 900 541 957 492 c 0,55,56
 1024 433 1024 433 1024 340 c 0,0,1
EndSplineSet
EndChar

StartChar: four
Encoding: 52 52 23
Width: 1146
GlyphClass: 2
Flags: W
LayerCount: 2
Fore
SplineSet
1067 297 m 0,0,1
 1067 266 1067 266 1045.5 236.5 c 128,-1,2
 1024 207 1024 207 1001 199 c 0,3,4
 954 185 954 185 857 185 c 1,5,6
 857 119 857 119 869.5 71 c 128,-1,7
 882 23 882 23 913 -16 c 1,8,-1
 767 -23 l 1,9,10
 584 -23 584 -23 584 101 c 1,11,-1
 588 187 l 1,12,-1
 399 199 l 1,13,14
 295 199 295 199 243 160 c 1,15,-1
 221 140 l 1,16,17
 207 146 207 146 203 151 c 0,18,19
 95 271 95 271 81 368 c 1,20,21
 212 586 212 586 408 952 c 0,22,23
 422 983 422 983 434 992 c 128,-1,24
 446 1001 446 1001 463 1004.5 c 128,-1,25
 480 1008 480 1008 523 1013 c 1,26,27
 696 1013 696 1013 773 1007 c 128,-1,28
 850 1001 850 1001 918 975 c 1,29,30
 859 837 859 837 859 358 c 1,31,32
 972 368 972 368 972 424 c 1,33,34
 1021 417 1021 417 1044 377.5 c 128,-1,35
 1067 338 1067 338 1067 297 c 0,0,1
614 827 m 1,36,-1
 358 374 l 1,37,38
 424 388 424 388 487 388 c 0,39,40
 512 388 512 388 529 387 c 128,-1,41
 546 386 546 386 600 379 c 1,42,43
 600 523 600 523 611 731 c 0,44,45
 616 812 616 812 614 827 c 1,36,-1
EndSplineSet
EndChar

StartChar: five
Encoding: 53 53 24
Width: 1019
GlyphClass: 2
Flags: W
LayerCount: 2
Fore
SplineSet
940 406 m 0,0,1
 940 227 940 227 798 102 c 128,-1,2
 656 -23 656 -23 471 -23 c 0,3,4
 330 -23 330 -23 204.5 36 c 128,-1,5
 79 95 79 95 79 191 c 0,6,7
 79 237 79 237 140 275 c 0,8,9
 205 312 205 312 268 312 c 0,10,11
 370 312 370 312 399 275 c 1,12,13
 350 245 350 245 350 178 c 0,14,15
 350 135 350 135 378 100 c 128,-1,16
 406 65 406 65 451 65 c 0,17,18
 560 65 560 65 620 176 c 0,19,20
 674 271 674 271 674 406 c 0,21,22
 674 476 674 476 638 533.5 c 128,-1,23
 602 591 602 591 541 591 c 0,24,25
 501 591 501 591 467 570.5 c 128,-1,26
 433 550 433 550 426.5 501.5 c 128,-1,27
 420 453 420 453 351 435 c 0,28,29
 315 426 315 426 271 426 c 0,30,31
 217 426 217 426 151 444 c 1,32,33
 162 564 162 564 162 850 c 0,34,35
 162 1017 162 1017 304 1017 c 0,36,37
 392 1017 392 1017 525 1001 c 1,38,-1
 706 988 l 2,39,40
 742 988 742 988 774.5 1008.5 c 128,-1,41
 807 1029 807 1029 812 1055 c 1,42,43
 891 1024 891 1024 891 939 c 0,44,45
 891 895 891 895 861.5 858 c 128,-1,46
 832 821 832 821 794 821 c 0,47,48
 755 821 755 821 671.5 841.5 c 128,-1,49
 588 862 588 862 532 862 c 0,50,51
 440 862 440 862 440 794 c 0,52,53
 440 691 440 691 444 668 c 1,54,55
 498 717 498 717 640 717 c 0,56,57
 791 717 791 717 873 622 c 0,58,59
 940 541 940 541 940 406 c 0,0,1
EndSplineSet
EndChar

StartChar: six
Encoding: 54 54 25
Width: 1037
GlyphClass: 2
Flags: W
LayerCount: 2
Fore
SplineSet
957 356 m 0,0,1
 957 173 957 173 817 69 c 0,2,3
 693 -23 693 -23 510 -23 c 0,4,5
 79 -23 79 -23 79 503 c 0,6,7
 79 773 79 773 230 909 c 0,8,9
 363 1031 363 1031 596 1031 c 0,10,11
 902 1031 902 1031 902 832 c 0,12,13
 902 781 902 781 848 747 c 1,14,15
 796 719 796 719 729 719 c 0,16,17
 676 719 676 719 629 732 c 1,18,19
 660 785 660 785 660 844 c 0,20,21
 660 939 660 939 566 939 c 0,22,23
 476 939 476 939 424 823 c 0,24,25
 384 731 384 731 384 618 c 0,26,27
 384 584 384 584 388 566 c 1,28,29
 507 656 507 656 636 656 c 0,30,31
 701 656 701 656 757.5 635 c 128,-1,32
 814 614 814 614 862 573 c 0,33,34
 957 492 957 492 957 356 c 0,0,1
670 309 m 0,35,36
 670 394 670 394 634 453 c 0,37,38
 591 523 591 523 523 523 c 0,39,40
 458 523 458 523 417 456 c 1,41,42
 386 397 386 397 386 313 c 0,43,44
 386 271 386 271 395 238 c 128,-1,45
 404 205 404 205 430 162 c 0,46,47
 480 79 480 79 532 79 c 0,48,49
 582 79 582 79 627 153 c 1,50,51
 670 232 670 232 670 309 c 0,35,36
EndSplineSet
EndChar

StartChar: seven
Encoding: 55 55 26
Width: 1042
GlyphClass: 2
Flags: W
LayerCount: 2
Fore
SplineSet
967 864 m 1,0,1
 862 767 862 767 740 552 c 0,2,3
 600 299 600 299 600 113 c 0,4,5
 600 38 600 38 642 9 c 1,6,7
 586 -23 586 -23 487 -23 c 0,8,9
 438 -23 438 -23 371 10 c 1,10,11
 295 54 295 54 295 113 c 0,12,13
 295 243 295 243 435 514 c 1,14,-1
 609 819 l 1,15,16
 578 812 578 812 523.5 807.5 c 128,-1,17
 469 803 469 803 389 803 c 0,18,19
 277 803 277 803 261 781.5 c 128,-1,20
 245 760 245 760 245 742 c 0,21,22
 245 729 245 729 257 711 c 1,23,24
 189 704 189 704 135 750 c 1,25,26
 81 803 81 803 81 873 c 0,27,28
 81 1016 81 1016 237 1016 c 0,29,30
 325 1016 325 1016 466 995 c 1,31,-1
 640 977 l 1,32,33
 783 977 783 977 848 1021 c 1,34,35
 900 990 900 990 967 864 c 1,0,1
EndSplineSet
EndChar

StartChar: eight
Encoding: 56 56 27
Width: 1164
GlyphClass: 2
Flags: W
LayerCount: 2
Fore
SplineSet
1072 877 m 0,0,1
 1006 855 1006 855 668 570 c 1,2,3
 981 406 981 406 981 263 c 0,4,5
 981 122 981 122 839 41 c 0,6,7
 717 -28 717 -28 541 -28 c 0,8,9
 444 -28 444 -28 374 -16.5 c 128,-1,10
 304 -5 304 -5 232 25 c 0,11,12
 79 85 79 85 79 196 c 0,13,14
 79 286 79 286 180 381 c 0,15,16
 209 408 209 408 368 521 c 1,17,18
 237 575 237 575 191 609 c 0,19,20
 115 668 115 668 115 760 c 0,21,22
 115 886 115 886 259 967 c 0,23,24
 374 1029 374 1029 516 1029 c 0,25,26
 701 1029 701 1029 827 945 c 1,27,-1
 844 959 l 2,28,29
 875 985 875 985 916 985 c 0,30,31
 981 985 981 985 1039 936 c 0,32,33
 1072 913 1072 913 1078.5 898.5 c 128,-1,34
 1085 884 1085 884 1072 877 c 0,0,1
704 835 m 1,35,36
 627 925 627 925 561 925 c 0,37,38
 376 925 376 925 376 778 c 0,39,40
 376 737 376 737 512 650 c 1,41,42
 588 731 588 731 704 835 c 1,35,36
729 248 m 0,43,44
 729 343 729 343 521 448 c 1,45,46
 351 313 351 313 351 223 c 0,47,48
 351 160 351 160 408 113 c 0,49,50
 465 69 465 69 537 69 c 256,51,52
 609 69 609 69 669 128 c 128,-1,53
 729 187 729 187 729 248 c 0,43,44
EndSplineSet
EndChar

StartChar: nine
Encoding: 57 57 28
Width: 1078
GlyphClass: 2
Flags: W
LayerCount: 2
Fore
SplineSet
997 575 m 0,0,1
 997 371 997 371 929 232 c 0,2,3
 884 137 884 137 754 55.5 c 128,-1,4
 624 -26 624 -26 487 -26 c 0,5,6
 348 -26 348 -26 239 28 c 0,7,8
 110 90 110 90 110 209 c 0,9,10
 110 259 110 259 159.5 288 c 128,-1,11
 209 317 209 317 273 317 c 2,12,-1
 348 317 l 2,13,14
 386 315 386 315 410 289 c 1,15,16
 379 275 379 275 379 232 c 256,17,18
 379 189 379 189 412.5 143 c 128,-1,19
 446 97 446 97 487 97 c 0,20,21
 548 97 548 97 597.5 160 c 128,-1,22
 647 223 647 223 647 297 c 0,23,24
 647 345 647 345 624 381 c 1,25,26
 575 356 575 356 498 356 c 0,27,28
 322 356 322 356 209 426 c 0,29,30
 77 507 77 507 77 674 c 0,31,32
 77 850 77 850 210 952.5 c 128,-1,33
 343 1055 343 1055 555 1055 c 0,34,35
 997 1055 997 1055 997 575 c 0,0,1
660 696 m 0,36,37
 660 927 660 927 546 927 c 0,38,39
 474 927 474 927 426 830 c 0,40,41
 392 755 392 755 392 668 c 0,42,43
 392 582 392 582 425 519 c 128,-1,44
 458 456 458 456 523 456 c 0,45,46
 660 456 660 456 660 696 c 0,36,37
EndSplineSet
EndChar

StartChar: colon
Encoding: 58 58 29
Width: 810
GlyphClass: 2
Flags: W
LayerCount: 2
Fore
SplineSet
595 782 m 0,0,1
 595 687 595 687 516 622 c 128,-1,2
 437 557 437 557 335 557 c 0,3,4
 267 557 267 557 212 605 c 1,5,6
 162 655 162 655 162 727 c 0,7,8
 162 825 162 825 238.5 892.5 c 128,-1,9
 315 960 315 960 420 960 c 0,10,11
 490 960 490 960 542.5 907.5 c 128,-1,12
 595 855 595 855 595 782 c 0,0,1
515 217 m 0,13,14
 515 122 515 122 436 57 c 128,-1,15
 357 -8 357 -8 255 -8 c 0,16,17
 187 -8 187 -8 132 40 c 1,18,19
 82 90 82 90 82 162 c 0,20,21
 82 260 82 260 158.5 327.5 c 128,-1,22
 235 395 235 395 340 395 c 0,23,24
 410 395 410 395 462.5 342.5 c 128,-1,25
 515 290 515 290 515 217 c 0,13,14
EndSplineSet
EndChar

StartChar: semicolon
Encoding: 59 59 30
Width: 760
GlyphClass: 2
Flags: W
LayerCount: 2
Fore
SplineSet
595 782 m 0,0,1
 595 687 595 687 516 622 c 128,-1,2
 437 557 437 557 335 557 c 0,3,4
 267 557 267 557 212 605 c 1,5,6
 162 655 162 655 162 727 c 0,7,8
 162 825 162 825 238.5 892.5 c 128,-1,9
 315 960 315 960 420 960 c 0,10,11
 490 960 490 960 542.5 907.5 c 128,-1,12
 595 855 595 855 595 782 c 0,0,1
537 170 m 0,13,14
 537 32 537 32 419.5 -89 c 128,-1,15
 302 -210 302 -210 202 -210 c 0,16,17
 157 -210 157 -210 157 -165 c 256,18,19
 157 -120 157 -120 185 -118 c 0,20,21
 232 -118 232 -118 300 -65 c 0,22,23
 352 -20 352 -20 375 25 c 1,24,-1
 237 0 l 1,25,26
 170 0 170 0 126 47.5 c 128,-1,27
 82 95 82 95 82 160 c 0,28,29
 82 255 82 255 156 307.5 c 128,-1,30
 230 360 230 360 332 360 c 0,31,32
 537 360 537 360 537 170 c 0,13,14
EndSplineSet
EndChar

StartChar: less
Encoding: 60 60 31
Width: 1240
GlyphClass: 2
Flags: W
LayerCount: 2
Fore
SplineSet
993 0 m 1,0,-1
 4 471 l 1,1,-1
 4 589 l 1,2,-1
 993 1070 l 1,3,-1
 993 859 l 1,4,-1
 261 531 l 1,5,-1
 993 202 l 1,6,-1
 993 0 l 1,0,-1
EndSplineSet
EndChar

StartChar: equal
Encoding: 61 61 32
Width: 1087
GlyphClass: 2
Flags: W
LayerCount: 2
Fore
SplineSet
1002 700 m 0,0,1
 1002 642 1002 642 971 577 c 128,-1,2
 940 512 940 512 890 512 c 1,3,4
 815 520 815 520 172 520 c 0,5,6
 115 520 115 520 103.5 526 c 128,-1,7
 92 532 92 532 87 567 c 1,8,9
 87 767 87 767 157 767 c 2,10,-1
 422 755 l 1,11,-1
 735 757 l 1,12,-1
 972 760 l 2,13,14
 1002 760 1002 760 1002 700 c 0,0,1
1002 325 m 0,15,16
 1002 267 1002 267 971 202 c 128,-1,17
 940 137 940 137 890 137 c 1,18,19
 815 145 815 145 172 145 c 0,20,21
 115 145 115 145 103.5 151 c 128,-1,22
 92 157 92 157 87 192 c 1,23,24
 87 392 87 392 157 392 c 2,25,-1
 422 380 l 1,26,-1
 735 382 l 1,27,-1
 972 385 l 2,28,29
 1002 385 1002 385 1002 325 c 0,15,16
EndSplineSet
EndChar

StartChar: greater
Encoding: 62 62 33
Width: 1306
GlyphClass: 2
Flags: W
LayerCount: 2
Fore
SplineSet
242 202 m 1,0,-1
 974 531 l 1,1,-1
 242 859 l 1,2,-1
 242 1070 l 1,3,-1
 1231 589 l 1,4,-1
 1231 471 l 1,5,-1
 242 0 l 1,6,-1
 242 202 l 1,0,-1
EndSplineSet
EndChar

StartChar: question
Encoding: 63 63 34
Width: 1085
GlyphClass: 2
Flags: W
LayerCount: 2
Fore
SplineSet
1082 1020 m 0,0,1
 1082 915 1082 915 997 827 c 1,2,-1
 817 682 l 2,3,4
 742 625 742 625 673.5 533.5 c 128,-1,5
 605 442 605 442 605 400 c 2,6,-1
 605 352 l 2,7,8
 607 332 607 332 652 310 c 1,9,-1
 612 287 l 1,10,-1
 565 287 l 1,11,-1
 517 292 l 1,12,13
 447 292 447 292 397 334.5 c 128,-1,14
 347 377 347 377 347 442 c 0,15,16
 347 527 347 527 573.5 751 c 128,-1,17
 800 975 800 975 800 1075 c 0,18,19
 800 1127 800 1127 761 1171 c 128,-1,20
 722 1215 722 1215 667 1215 c 0,21,22
 522 1215 522 1215 402 1080 c 0,23,24
 305 970 305 970 305 895 c 1,25,-1
 307 880 l 1,26,-1
 355 867 l 1,27,-1
 297 822 l 2,28,29
 265 802 265 802 237 797 c 1,30,31
 165 797 165 797 95 825 c 0,32,33
 -5 860 -5 860 -5 915 c 0,34,35
 -5 1025 -5 1025 145 1157 c 1,36,37
 335 1317 335 1317 617 1317 c 0,38,39
 800 1317 800 1317 930 1245 c 0,40,41
 1082 1160 1082 1160 1082 1020 c 0,0,1
702 70 m 0,42,43
 702 -10 702 -10 615 -68 c 0,44,45
 537 -118 537 -118 467 -118 c 0,46,47
 410 -118 410 -118 360 -73 c 1,48,49
 317 -25 317 -25 317 37 c 0,50,51
 317 120 317 120 387 175 c 128,-1,52
 457 230 457 230 545 230 c 0,53,54
 612 230 612 230 657 186 c 128,-1,55
 702 142 702 142 702 70 c 0,42,43
EndSplineSet
EndChar

StartChar: at
Encoding: 64 64 35
Width: 1619
GlyphClass: 2
Flags: W
LayerCount: 2
Fore
SplineSet
877 71 m 0,0,1
 870 83 870 83 867 104 c 1,2,3
 849 87 849 87 827.5 71 c 128,-1,4
 806 55 806 55 783 41 c 0,5,6
 711 -2 711 -2 640 -2 c 0,7,8
 564 -2 564 -2 495 41 c 128,-1,9
 426 84 426 84 381 178 c 0,10,11
 336 269 336 269 336 371 c 0,12,13
 336 493 336 493 401 626 c 0,14,15
 467 758 467 758 568 824 c 0,16,17
 668 890 668 890 764 890 c 0,18,19
 843 890 843 890 903 851 c 0,20,21
 929 837 929 837 950.5 818.5 c 128,-1,22
 972 800 972 800 991 774 c 1,23,24
 996 798 996 798 1002 821.5 c 128,-1,25
 1008 845 1008 845 1013 865 c 1,26,-1
 1190 865 l 1,27,-1
 1073 320 l 1,28,-1
 1050 195 l 2,29,30
 1051 190 1051 190 1054 185.5 c 128,-1,31
 1057 181 1057 181 1062 176 c 2,32,-1
 1060 178 l 2,33,34
 1072 168 1072 168 1085 168 c 0,35,36
 1122 168 1122 168 1181 210 c 0,37,38
 1263 267 1263 267 1316 371 c 0,39,40
 1370 474 1370 474 1370 583 c 0,41,42
 1370 702 1370 702 1304 813 c 0,43,44
 1272 869 1272 869 1223.5 913 c 128,-1,45
 1175 957 1175 957 1112 991 c 0,46,47
 1048 1021 1048 1021 977.5 1040.5 c 128,-1,48
 907 1060 907 1060 829 1060 c 0,49,50
 648 1060 648 1060 503 976 c 0,51,52
 429 934 429 934 372.5 874 c 128,-1,53
 316 814 316 814 274 733 c 0,54,55
 191 570 191 570 191 402 c 0,56,57
 191 311 191 311 211 230.5 c 128,-1,58
 231 150 231 150 271 83.5 c 128,-1,59
 311 17 311 17 369 -34 c 128,-1,60
 427 -85 427 -85 504 -118 c 0,61,62
 582 -152 582 -152 668 -168 c 128,-1,63
 754 -184 754 -184 849 -184 c 0,64,65
 1050 -184 1050 -184 1181 -119 c 0,66,67
 1315 -54 1315 -54 1393 54 c 1,68,-1
 1574 54 l 1,69,70
 1519 -65 1519 -65 1421 -148 c 0,71,72
 1374 -188 1374 -188 1310.5 -223.5 c 128,-1,73
 1247 -259 1247 -259 1181 -285 c 0,74,75
 1152 -295 1152 -295 1113 -305.5 c 128,-1,76
 1074 -316 1074 -316 1031 -324 c 0,77,78
 993 -331 993 -331 951 -334.5 c 128,-1,79
 909 -338 909 -338 852 -338 c 0,80,81
 716 -338 716 -338 599 -312 c 128,-1,82
 482 -286 482 -286 387 -235.5 c 128,-1,83
 292 -185 292 -185 220.5 -110.5 c 128,-1,84
 149 -36 149 -36 104 61 c 0,85,86
 37 219 37 219 37 388 c 0,87,88
 37 488 37 488 57.5 580 c 128,-1,89
 78 672 78 672 117 760 c 0,90,91
 217 973 217 973 394 1091 c 0,92,93
 575 1210 575 1210 835 1210 c 0,94,95
 935 1210 935 1210 1022 1190.5 c 128,-1,96
 1109 1171 1109 1171 1191 1129 c 0,97,98
 1272 1090 1272 1090 1335.5 1029 c 128,-1,99
 1399 968 1399 968 1448 883 c 0,100,101
 1523 740 1523 740 1523 581 c 0,102,103
 1523 464 1523 464 1480.5 359 c 128,-1,104
 1438 254 1438 254 1358 163 c 0,105,106
 1285 85 1285 85 1202.5 41.5 c 128,-1,107
 1120 -2 1120 -2 1033 -2 c 2,108,-1
 1012 -2 l 1,109,-1
 977 0 l 2,110,111
 954 4 954 4 933 18 c 1,112,-1
 934 18 l 1,113,114
 917 27 917 27 903.5 40.5 c 128,-1,115
 890 54 890 54 877 71 c 0,0,1
521 360 m 0,116,117
 521 261 521 261 566 207 c 0,118,119
 610 154 610 154 667 154 c 0,120,121
 707 154 707 154 753.5 178.5 c 128,-1,122
 800 203 800 203 839 251 c 0,123,124
 859 274 859 274 876.5 305.5 c 128,-1,125
 894 337 894 337 907 376 c 0,126,127
 936 455 936 455 936 530 c 0,128,129
 936 627 936 627 889 682 c 0,130,131
 844 735 844 735 774 735 c 0,132,133
 751 735 751 735 730 729.5 c 128,-1,134
 709 724 709 724 690 711 c 0,135,136
 646 687 646 687 611 636 c 128,-1,137
 576 585 576 585 545 500 c 1,138,-1
 545 501 l 1,139,140
 521 427 521 427 521 360 c 0,116,117
EndSplineSet
EndChar

StartChar: bracketleft
Encoding: 91 91 36
Width: 426
GlyphClass: 2
Flags: W
LayerCount: 2
Fore
SplineSet
89 1496 m 1,0,-1
 404 1496 l 1,1,-1
 404 1328 l 1,2,-1
 252 1328 l 1,3,-1
 252 -81 l 1,4,-1
 404 -81 l 1,5,-1
 404 -259 l 1,6,-1
 89 -259 l 1,7,-1
 89 1496 l 1,0,-1
EndSplineSet
EndChar

StartChar: backslash
Encoding: 92 92 37
Width: 865
GlyphClass: 2
Flags: W
LayerCount: 2
Fore
SplineSet
184 1239 m 1,0,-1
 838 -119 l 1,1,-1
 674 -119 l 1,2,-1
 16 1239 l 1,3,-1
 184 1239 l 1,0,-1
EndSplineSet
EndChar

StartChar: bracketright
Encoding: 93 93 38
Width: 428
GlyphClass: 2
Flags: W
LayerCount: 2
Fore
SplineSet
331 -259 m 1,0,-1
 16 -259 l 1,1,-1
 16 -81 l 1,2,-1
 169 -81 l 1,3,-1
 169 1328 l 1,4,-1
 16 1328 l 1,5,-1
 16 1496 l 1,6,-1
 331 1496 l 1,7,-1
 331 -259 l 1,0,-1
EndSplineSet
EndChar

StartChar: asciicircum
Encoding: 94 94 39
Width: 719
GlyphClass: 2
Flags: W
LayerCount: 2
Fore
SplineSet
180 450 m 1,0,-1
 43 450 l 1,1,-1
 306 1234 l 1,2,-1
 414 1234 l 1,3,-1
 674 450 l 1,4,-1
 540 450 l 1,5,-1
 358 1032 l 1,6,-1
 180 450 l 1,0,-1
EndSplineSet
EndChar

StartChar: underscore
Encoding: 95 95 40
Width: 1192
GlyphClass: 2
Flags: W
LayerCount: 2
Fore
SplineSet
108 -333 m 1,0,-1
 108 -226 l 1,1,-1
 1083 -226 l 1,2,-1
 1083 -333 l 1,3,-1
 108 -333 l 1,0,-1
EndSplineSet
EndChar

StartChar: braceleft
Encoding: 123 123 41
Width: 623
GlyphClass: 2
Flags: W
LayerCount: 2
Fore
SplineSet
124 705 m 1,0,1
 178 705 178 705 213.5 737.5 c 128,-1,2
 249 770 249 770 260 823 c 1,3,-1
 260 820 l 1,4,-1
 265 921 l 2,5,6
 267 948 267 948 269 977.5 c 128,-1,7
 271 1007 271 1007 273 1034 c 0,8,9
 273 1111 273 1111 274 1164.5 c 128,-1,10
 275 1218 275 1218 277 1247 c 0,11,12
 279 1277 279 1277 284.5 1305.5 c 128,-1,13
 290 1334 290 1334 299 1358 c 0,14,15
 318 1407 318 1407 345 1437.5 c 128,-1,16
 372 1468 372 1468 420 1485 c 0,17,18
 460 1500 460 1500 518 1500 c 2,19,-1
 578 1500 l 1,20,-1
 578 1319 l 1,21,-1
 533 1319 l 2,22,23
 473 1319 473 1319 451 1287 c 1,24,-1
 452 1288 l 1,25,26
 432 1259 432 1259 432 1151 c 2,27,-1
 432 960 l 1,28,-1
 429 892 l 2,29,30
 429 867 429 867 423 851 c 0,31,32
 417 804 417 804 404.5 764.5 c 128,-1,33
 392 725 392 725 376 698 c 0,34,35
 363 678 363 678 342 655.5 c 128,-1,36
 321 633 321 633 297 613 c 1,37,38
 363 567 363 567 394 494 c 0,39,40
 412 449 412 449 422 376 c 128,-1,41
 432 303 432 303 432 203 c 2,42,-1
 434 -5 l 2,43,44
 437 -58 437 -58 454 -78 c 1,45,-1
 482 -93 l 1,46,47
 501 -97 501 -97 533 -97 c 2,48,-1
 578 -97 l 1,49,-1
 578 -275 l 1,50,-1
 518 -275 l 2,51,52
 442 -275 442 -275 409 -261 c 0,53,54
 363 -237 363 -237 324 -189 c 1,55,56
 298 -148 298 -148 281 -64 c 0,57,58
 277 -29 277 -29 275 31.5 c 128,-1,59
 273 92 273 92 273 177 c 0,60,61
 273 258 273 258 270 313.5 c 128,-1,62
 267 369 267 369 260 399 c 0,63,64
 248 454 248 454 220 485 c 1,65,66
 200 499 200 499 176.5 507 c 128,-1,67
 153 515 153 515 124 515 c 1,68,-1
 124 705 l 1,0,1
EndSplineSet
EndChar

StartChar: bar
Encoding: 124 124 42
Width: 313
GlyphClass: 2
Flags: W
LayerCount: 2
Fore
SplineSet
70 -259 m 1,0,-1
 70 1586 l 1,1,-1
 242 1586 l 1,2,-1
 239 -259 l 1,3,-1
 70 -259 l 1,0,-1
EndSplineSet
EndChar

StartChar: braceright
Encoding: 125 125 43
Width: 547
GlyphClass: 2
Flags: W
LayerCount: 2
Fore
SplineSet
489 517 m 1,0,1
 458 517 458 517 435 510 c 128,-1,2
 412 503 412 503 395 489 c 0,3,4
 379 472 379 472 368 451 c 128,-1,5
 357 430 357 430 351 401 c 0,6,7
 339 341 339 341 339 179 c 0,8,9
 339 11 339 11 330 -59 c 0,10,11
 316 -146 316 -146 289 -187 c 0,12,13
 270 -210 270 -210 248.5 -228.5 c 128,-1,14
 227 -247 227 -247 203 -259 c 0,15,16
 170 -273 170 -273 94 -273 c 2,17,-1
 33 -273 l 1,18,-1
 33 -95 l 1,19,-1
 79 -95 l 2,20,21
 96 -95 96 -95 108 -93.5 c 128,-1,22
 120 -92 120 -92 131 -90 c 2,23,-1
 158 -76 l 1,24,25
 176 -55 176 -55 179 -2 c 0,26,27
 179 49 179 49 180 101 c 128,-1,28
 181 153 181 153 181 205 c 0,29,30
 181 306 181 306 190 378.5 c 128,-1,31
 199 451 199 451 218 496 c 0,32,33
 252 572 252 572 315 615 c 1,34,35
 290 635 290 635 269 657.5 c 128,-1,36
 248 680 248 680 235 700 c 0,37,38
 219 726 219 726 207.5 767 c 128,-1,39
 196 808 196 808 188 853 c 0,40,41
 185 861 185 861 184.5 870.5 c 128,-1,42
 184 880 184 880 184 894 c 2,43,-1
 181 962 l 1,44,-1
 181 1153 l 2,45,46
 181 1261 181 1261 161 1290 c 1,47,-1
 162 1289 l 1,48,49
 140 1321 140 1321 79 1321 c 2,50,-1
 33 1321 l 1,51,-1
 33 1502 l 1,52,-1
 94 1502 l 2,53,54
 153 1502 153 1502 191 1487 c 0,55,56
 237 1470 237 1470 265.5 1439 c 128,-1,57
 294 1408 294 1408 311 1360 c 0,58,59
 321 1336 321 1336 326.5 1307.5 c 128,-1,60
 332 1279 332 1279 334 1249 c 0,61,62
 336 1220 336 1220 337.5 1166 c 128,-1,63
 339 1112 339 1112 339 1037 c 1,64,-1
 348 923 l 1,65,-1
 352 825 l 1,66,67
 364 773 364 773 399 740 c 128,-1,68
 434 707 434 707 489 707 c 1,69,-1
 489 517 l 1,0,1
EndSplineSet
EndChar

StartChar: asciitilde
Encoding: 126 126 44
Width: 1161
GlyphClass: 2
Flags: W
LayerCount: 2
Fore
SplineSet
1045 747 m 1,0,-1
 1086 747 l 1,1,2
 1082 571 1082 571 1014 469.5 c 128,-1,3
 946 368 946 368 850 368 c 0,4,5
 807 368 807 368 757.5 389 c 128,-1,6
 708 410 708 410 503 535 c 0,7,8
 356 620 356 620 294 620 c 0,9,10
 229 620 229 620 183.5 562 c 128,-1,11
 138 504 138 504 118 371 c 1,12,-1
 75 371 l 1,13,14
 83 557 83 557 148.5 654.5 c 128,-1,15
 214 752 214 752 302 752 c 0,16,17
 342 752 342 752 387 732 c 0,18,19
 484 691 484 691 642.5 592.5 c 128,-1,20
 801 494 801 494 867 494 c 0,21,22
 936 494 936 494 985 559.5 c 128,-1,23
 1034 625 1034 625 1045 747 c 1,0,-1
EndSplineSet
EndChar

StartChar: cent
Encoding: 162 162 45
Width: 721
GlyphClass: 2
Flags: W
LayerCount: 2
Fore
SplineSet
598 156 m 1,0,1
 537 71 537 71 467 31 c 128,-1,2
 397 -9 397 -9 304 -17 c 1,3,-1
 228 -265 l 1,4,-1
 187 -265 l 1,5,-1
 262 -17 l 1,6,7
 177 -8 177 -8 128.5 47 c 128,-1,8
 80 102 80 102 80 188 c 0,9,10
 80 345 80 345 191.5 478.5 c 128,-1,11
 303 612 303 612 457 638 c 1,12,-1
 541 917 l 1,13,-1
 580 917 l 1,14,-1
 499 638 l 1,15,16
 580 638 580 638 616.5 607 c 128,-1,17
 653 576 653 576 653 523 c 0,18,19
 653 482 653 482 631.5 455.5 c 128,-1,20
 610 429 610 429 580 429 c 0,21,22
 557 429 557 429 544 442 c 128,-1,23
 531 455 531 455 531 476 c 0,24,25
 531 491 531 491 536 502 c 128,-1,26
 541 513 541 513 560.5 534.5 c 128,-1,27
 580 556 580 556 580 570 c 0,28,29
 580 578 580 578 575 585 c 0,30,31
 565 596 565 596 549.5 601 c 128,-1,32
 534 606 534 606 489 606 c 1,33,-1
 322 49 l 1,34,-1
 352 47 l 1,35,36
 470 47 470 47 580 173 c 1,37,-1
 598 156 l 1,0,1
284 57 m 1,38,-1
 445 598 l 1,39,40
 383 570 383 570 342 533 c 0,41,42
 274 467 274 467 237 380.5 c 128,-1,43
 200 294 200 294 200 205 c 0,44,45
 200 146 200 146 224 108 c 0,46,47
 243 81 243 81 284 57 c 1,38,-1
EndSplineSet
EndChar

StartChar: multiply
Encoding: 215 215 46
Width: 975
GlyphClass: 2
Flags: W
LayerCount: 2
Fore
SplineSet
267 230 m 1,0,-1
 515 479 l 1,1,-1
 267 728 l 1,2,-1
 308 768 l 1,3,-1
 556 520 l 1,4,-1
 805 768 l 1,5,-1
 844 728 l 1,6,-1
 595 480 l 1,7,-1
 845 230 l 1,8,-1
 805 190 l 1,9,-1
 555 439 l 1,10,-1
 307 190 l 1,11,-1
 267 230 l 1,0,-1
EndSplineSet
EndChar

StartChar: divide
Encoding: 247 247 47
Width: 864
GlyphClass: 2
Flags: W
LayerCount: 2
Fore
SplineSet
518 650 m 0,0,1
 518 612 518 612 491 586 c 128,-1,2
 464 560 464 560 426 560 c 256,3,4
 388 560 388 560 360 586 c 128,-1,5
 332 612 332 612 332 650 c 0,6,7
 332 686 332 686 360 713 c 128,-1,8
 388 740 388 740 426 740 c 256,9,10
 464 740 464 740 491 713 c 128,-1,11
 518 686 518 686 518 650 c 0,0,1
864 430 m 0,12,13
 864 384 864 384 816 384 c 2,14,-1
 52 384 l 2,15,16
 -4 384 -4 384 -4 426 c 0,17,18
 -4 484 -4 484 54 484 c 2,19,-1
 806 482 l 2,20,21
 864 482 864 482 864 430 c 0,12,13
526 222 m 0,22,23
 526 184 526 184 497 155 c 128,-1,24
 468 126 468 126 428 126 c 256,25,26
 388 126 388 126 358 155 c 128,-1,27
 328 184 328 184 328 222 c 0,28,29
 328 262 328 262 358 291 c 128,-1,30
 388 320 388 320 428 320 c 256,31,32
 468 320 468 320 497 291 c 128,-1,33
 526 262 526 262 526 222 c 0,22,23
EndSplineSet
EndChar

StartChar: tm_visarga
Encoding: 2947 2947 48
Width: 1555
GlyphClass: 2
Flags: W
LayerCount: 2
Fore
SplineSet
1137 927 m 0,0,1
 1137 775 1137 775 1012 675 c 0,2,3
 900 585 900 585 737 585 c 0,4,5
 625 585 625 585 540 667.5 c 128,-1,6
 455 750 455 750 455 865 c 0,7,8
 455 1010 455 1010 570 1096 c 128,-1,9
 685 1182 685 1182 845 1182 c 0,10,11
 970 1182 970 1182 1053.5 1111 c 128,-1,12
 1137 1040 1137 1040 1137 927 c 0,0,1
727 300 m 0,13,14
 727 152 727 152 615 57 c 1,15,16
 500 -30 500 -30 320 -30 c 0,17,18
 205 -30 205 -30 121 38.5 c 128,-1,19
 37 107 37 107 37 227 c 0,20,21
 37 372 37 372 162 465 c 0,22,23
 275 547 275 547 435 547 c 0,24,25
 560 547 560 547 637 492 c 0,26,27
 727 427 727 427 727 300 c 0,13,14
1517 300 m 0,28,29
 1517 152 1517 152 1401 58.5 c 128,-1,30
 1285 -35 1285 -35 1130 -35 c 0,31,32
 852 -35 852 -35 852 212 c 0,33,34
 852 370 852 370 965 460 c 0,35,36
 1067 540 1067 540 1222 540 c 0,37,38
 1337 540 1337 540 1427 473.5 c 128,-1,39
 1517 407 1517 407 1517 300 c 0,28,29
902 932 m 0,40,41
 902 1072 902 1072 837 1072 c 0,42,43
 775 1072 775 1072 730 997 c 1,44,45
 690 922 690 922 690 837 c 0,46,47
 690 690 690 690 767 690 c 0,48,49
 812 690 812 690 857 772.5 c 128,-1,50
 902 855 902 855 902 932 c 0,40,41
492 335 m 0,51,52
 492 440 492 440 432 440 c 0,53,54
 377 440 377 440 332 357 c 0,55,56
 312 315 312 315 302 276 c 128,-1,57
 292 237 292 237 292 190 c 0,58,59
 292 85 292 85 352 85 c 256,60,61
 412 85 412 85 457 185 c 0,62,63
 492 267 492 267 492 335 c 0,51,52
1285 340 m 0,64,65
 1285 370 1285 370 1268.5 403.5 c 128,-1,66
 1252 437 1252 437 1227 440 c 0,67,68
 1165 440 1165 440 1117 347 c 1,69,70
 1077 260 1077 260 1077 167 c 0,71,72
 1077 62 1077 62 1132 62 c 0,73,74
 1197 62 1197 62 1247 175 c 0,75,76
 1285 265 1285 265 1285 340 c 0,64,65
EndSplineSet
EndChar

StartChar: tm_a
Encoding: 2949 2949 49
Width: 1912
GlyphClass: 2
Flags: W
LayerCount: 2
Fore
SplineSet
1902 -23 m 1,0,1
 1842 -53 1842 -53 1775 -53 c 0,2,3
 1607 -53 1607 -53 1581 79.5 c 128,-1,4
 1555 212 1555 212 1555 562 c 1,5,-1
 1485 582 l 1,6,7
 1470 452 1470 452 1393.5 324.5 c 128,-1,8
 1317 197 1317 197 1218.5 109.5 c 128,-1,9
 1120 22 1120 22 942 -38 c 0,10,11
 857 -65 857 -65 772 -80 c 128,-1,12
 687 -95 687 -95 600 -95 c 0,13,14
 385 -95 385 -95 220 2 c 0,15,16
 37 112 37 112 37 300 c 0,17,18
 37 467 37 467 190 567 c 1,19,20
 290 627 290 627 502 680 c 1,21,22
 467 757 467 757 467 822 c 0,23,24
 467 1010 467 1010 606 1118.5 c 128,-1,25
 745 1227 745 1227 940 1227 c 0,26,27
 1147 1227 1147 1227 1295 1115 c 0,28,29
 1387 1042 1387 1042 1437 939.5 c 128,-1,30
 1487 837 1487 837 1487 700 c 1,31,32
 1517 700 1517 700 1555 687 c 1,33,-1
 1560 857 l 1,34,-1
 1565 1030 l 2,35,36
 1565 1130 1565 1130 1515 1157 c 1,37,-1
 1625 1167 l 1,38,39
 1847 1167 1847 1167 1847 1032 c 1,40,-1
 1837 850 l 1,41,-1
 1827 645 l 1,42,-1
 1825 110 l 2,43,44
 1825 72 1825 72 1852 42 c 2,45,-1
 1902 -23 l 1,0,1
1245 872 m 2,46,47
 1245 967 1245 967 1195 1040 c 0,48,49
 1137 1120 1137 1120 1052 1120 c 0,50,51
 910 1120 910 1120 805 997 c 1,52,53
 862 1020 862 1020 930 1020 c 0,54,55
 1100 1020 1100 1020 1100 825 c 0,56,57
 1100 780 1100 780 1075 722 c 1,58,59
 1090 720 1090 720 1125 717.5 c 128,-1,60
 1160 715 1160 715 1240 715 c 1,61,-1
 1245 872 l 2,46,47
887 840 m 0,62,63
 887 927 887 927 842 927 c 0,64,65
 800 927 800 927 727 882 c 1,66,67
 692 810 692 810 675 745 c 0,68,69
 672 735 672 735 672 715 c 0,70,71
 672 705 672 705 678.5 677.5 c 128,-1,72
 685 650 685 650 702 647 c 0,73,74
 767 647 767 647 827 704.5 c 128,-1,75
 887 762 887 762 887 840 c 0,62,63
1237 612 m 1,76,-1
 1117 610 l 1,77,-1
 975 610 l 1,78,79
 852 517 852 517 725 517 c 0,80,81
 677 517 677 517 632 540 c 1,82,83
 260 422 260 422 260 215 c 0,84,85
 260 117 260 117 352 55 c 0,86,87
 435 0 435 0 540 0 c 0,88,89
 787 0 787 0 1012 227 c 0,90,91
 1207 422 1207 422 1237 612 c 1,76,-1
EndSplineSet
EndChar

StartChar: tm_aa
Encoding: 2950 2950 50
Width: 2360
GlyphClass: 2
Flags: W
LayerCount: 2
Fore
SplineSet
2322 130 m 0,0,1
 2322 -78 2322 -78 2149.5 -233 c 128,-1,2
 1977 -388 1977 -388 1752 -388 c 0,3,4
 1565 -388 1565 -388 1431 -294 c 128,-1,5
 1297 -200 1297 -200 1297 -48 c 0,6,7
 1297 7 1297 7 1331 58.5 c 128,-1,8
 1365 110 1365 110 1397 110 c 0,9,10
 1447 110 1447 110 1506 65 c 128,-1,11
 1565 20 1565 20 1567 -13 c 1,12,13
 1510 -50 1510 -50 1510 -135 c 0,14,15
 1510 -203 1510 -203 1562.5 -248 c 128,-1,16
 1615 -293 1615 -293 1690 -293 c 0,17,18
 1857 -293 1857 -293 1977 -144 c 128,-1,19
 2097 5 2097 5 2097 190 c 0,20,21
 2097 362 2097 362 1995 362 c 0,22,23
 1927 362 1927 362 1890 275 c 1,24,25
 1865 205 1865 205 1865 125 c 0,26,27
 1865 42 1865 42 1932 -33 c 1,28,29
 1892 -40 1892 -40 1874.5 -42.5 c 128,-1,30
 1857 -45 1857 -45 1815 -45 c 0,31,32
 1640 -45 1640 -45 1610 75 c 0,33,34
 1597 127 1597 127 1592 233.5 c 128,-1,35
 1587 340 1587 340 1587 470 c 2,36,-1
 1587 550 l 1,37,38
 1560 562 1560 562 1510 562 c 1,39,40
 1480 297 1480 297 1245 92 c 0,41,42
 1157 17 1157 17 966 -43 c 128,-1,43
 775 -103 775 -103 627 -103 c 0,44,45
 390 -103 390 -103 225 -8 c 0,46,47
 35 100 35 100 35 287 c 0,48,49
 35 587 35 587 532 665 c 1,50,51
 480 700 480 700 480 810 c 0,52,53
 480 990 480 990 637 1107 c 1,54,55
 780 1207 780 1207 977 1207 c 0,56,57
 1212 1207 1212 1207 1360 1077 c 0,58,59
 1440 1007 1440 1007 1477.5 909.5 c 128,-1,60
 1515 812 1515 812 1515 682 c 1,61,62
 1552 682 1552 682 1592 672 c 1,63,-1
 1597 970 l 2,64,65
 1597 1102 1597 1102 1555 1140 c 1,66,67
 1605 1150 1605 1150 1627.5 1151 c 128,-1,68
 1650 1152 1650 1152 1662 1152 c 0,69,70
 1790 1152 1790 1152 1862 1082 c 0,71,72
 1880 1065 1880 1065 1880 972 c 1,73,-1
 1865 682 l 1,74,75
 1865 587 1865 587 1862.5 527 c 128,-1,76
 1860 467 1860 467 1857 415 c 1,77,-1
 1932 447 l 2,78,79
 1965 460 1965 460 1981 463.5 c 128,-1,80
 1997 467 1997 467 2020 467 c 0,81,82
 2145 467 2145 467 2233.5 367 c 128,-1,83
 2322 267 2322 267 2322 130 c 0,0,1
1287 695 m 1,84,85
 1287 1100 1287 1100 1082 1100 c 0,86,87
 947 1100 947 1100 850 985 c 1,88,89
 902 1002 902 1002 960 1002 c 0,90,91
 1132 1002 1132 1002 1132 812 c 0,92,93
 1132 762 1132 762 1105 707 c 1,94,95
 1242 707 1242 707 1287 695 c 1,84,85
920 827 m 0,96,97
 920 912 920 912 860 912 c 0,98,99
 807 912 807 912 752 841 c 128,-1,100
 697 770 697 770 697 730 c 0,101,102
 697 632 697 632 730 632 c 0,103,104
 797 632 797 632 858.5 692 c 128,-1,105
 920 752 920 752 920 827 c 0,96,97
1260 585 m 1,106,107
 1220 597 1220 597 1135 597 c 0,108,109
 1072 597 1072 597 990 585 c 1,110,111
 880 502 880 502 755 502 c 0,112,113
 710 502 710 502 662 527 c 1,114,115
 267 402 267 402 267 202 c 0,116,117
 267 107 267 107 357 47 c 0,118,119
 437 -5 437 -5 565 -5 c 0,120,121
 815 -5 815 -5 1037 210 c 0,122,123
 1225 395 1225 395 1260 585 c 1,106,107
EndSplineSet
EndChar

StartChar: tm_i
Encoding: 2951 2951 51
Width: 1780
GlyphClass: 2
Flags: W
LayerCount: 2
Fore
SplineSet
1742 272 m 0,0,1
 1742 102 1742 102 1562 5 c 0,2,3
 1410 -75 1410 -75 1195 -75 c 0,4,5
 1030 -75 1030 -75 860 -18 c 1,6,7
 695 -75 695 -75 477 -75 c 0,8,9
 305 -75 305 -75 180 2 c 0,10,11
 37 92 37 92 37 242 c 0,12,13
 37 395 37 395 222 525 c 1,14,15
 152 665 152 665 152 810 c 0,16,17
 152 1037 152 1037 328.5 1188.5 c 128,-1,18
 505 1340 505 1340 762 1340 c 0,19,20
 925 1340 925 1340 1102 1272 c 0,21,22
 1192 1240 1192 1240 1365 1150 c 0,23,24
 1492 1082 1492 1082 1545 1082 c 0,25,26
 1627 1082 1627 1082 1630 1122 c 1,27,-1
 1627 1135 l 1,28,29
 1677 1122 1677 1122 1707 1069.5 c 128,-1,30
 1737 1017 1737 1017 1737 977 c 0,31,32
 1737 947 1737 947 1709.5 928.5 c 128,-1,33
 1682 910 1682 910 1645 905 c 1,34,35
 1595 905 1595 905 1477 975 c 0,36,37
 1317 1070 1317 1070 1235 1102 c 0,38,39
 1065 1172 1065 1172 887 1172 c 0,40,41
 735 1172 735 1172 605 1096 c 128,-1,42
 475 1020 475 1020 407 890 c 0,43,44
 355 785 355 785 355 652 c 1,45,-1
 357 597 l 1,46,-1
 490 650 l 1,47,48
 490 735 490 735 523.5 801 c 128,-1,49
 557 867 557 867 625 925 c 0,50,51
 750 1027 750 1027 970 1027 c 0,52,53
 1165 1027 1165 1027 1285 915 c 0,54,55
 1390 817 1390 817 1410 637 c 1,56,57
 1742 502 1742 502 1742 272 c 0,0,1
1222 690 m 1,58,-1
 1222 717 l 2,59,60
 1222 785 1222 785 1186 840 c 128,-1,61
 1150 895 1150 895 1075 895 c 0,62,63
 942 895 942 895 855 825 c 1,64,65
 980 787 980 787 1002 710 c 1,66,67
 1037 710 1037 710 1082 707.5 c 128,-1,68
 1127 705 1127 705 1182 697 c 2,69,-1
 1222 690 l 1,58,-1
830 705 m 1,70,71
 830 747 830 747 775 747 c 1,72,73
 700 665 700 665 677 577 c 0,74,75
 670 550 670 550 670 535 c 0,76,77
 670 502 670 502 697 502 c 0,78,79
 745 502 745 502 783.5 567 c 128,-1,80
 822 632 822 632 830 705 c 1,70,71
1182 560 m 1,81,-1
 997 572 l 1,82,83
 972 500 972 500 900 442 c 1,84,85
 830 392 830 392 745 392 c 0,86,87
 655 392 655 392 580 450 c 1,88,89
 512 440 512 440 440 395 c 1,90,91
 562 222 562 222 745 145 c 1,92,93
 1075 312 1075 312 1182 560 c 1,81,-1
1510 325 m 0,94,95
 1520 347 1520 347 1520 380 c 0,96,97
 1520 420 1520 420 1503.5 457.5 c 128,-1,98
 1487 495 1487 495 1407 520 c 1,99,100
 1385 395 1385 395 1286 273.5 c 128,-1,101
 1187 152 1187 152 1040 62 c 1,102,-1
 1122 57 l 1,103,104
 1410 57 1410 57 1510 325 c 0,94,95
627 90 m 1,105,106
 570 120 570 120 547 140 c 2,107,-1
 450 212 l 2,108,109
 402 250 402 250 347 320 c 1,110,111
 260 232 260 232 260 125 c 0,112,113
 260 90 260 90 303.5 65 c 128,-1,114
 347 40 347 40 405 40 c 0,115,116
 500 40 500 40 627 90 c 1,105,106
EndSplineSet
EndChar

StartChar: tm_ii
Encoding: 2952 2952 52
Width: 1287
GlyphClass: 2
Flags: W
LayerCount: 2
Fore
SplineSet
1245 937 m 0,0,1
 1245 832 1245 832 1060 832 c 0,2,3
 987 832 987 832 930 855 c 1,4,5
 862 585 862 585 862 400 c 0,6,7
 862 257 862 257 881 169.5 c 128,-1,8
 900 82 900 82 975 60 c 1,9,10
 907 0 907 0 795 0 c 0,11,12
 660 0 660 0 615 145 c 0,13,14
 592 220 592 220 592 415 c 0,15,16
 592 557 592 557 632 800 c 0,17,18
 635 807 635 807 635 816 c 128,-1,19
 635 825 635 825 635 827 c 0,20,21
 635 842 635 842 627 850 c 1,22,-1
 592 857 l 2,23,24
 565 862 565 862 515 864.5 c 128,-1,25
 465 867 465 867 355 867 c 0,26,27
 280 867 280 867 226 812 c 128,-1,28
 172 757 172 757 172 662 c 0,29,30
 172 610 172 610 187 543.5 c 128,-1,31
 202 477 202 477 237 385 c 0,32,33
 302 210 302 210 302 127 c 0,34,35
 302 82 302 82 264.5 37 c 128,-1,36
 227 -8 227 -8 195 -8 c 0,37,38
 140 -8 140 -8 96 28.5 c 128,-1,39
 52 65 52 65 52 112 c 1,40,41
 142 100 142 100 142 180 c 256,42,43
 142 260 142 260 89.5 413.5 c 128,-1,44
 37 567 37 567 37 660 c 0,45,46
 37 987 37 987 420 987 c 0,47,48
 527 987 527 987 687 970 c 1,49,-1
 927 952 l 1,50,51
 990 952 990 952 1018.5 954.5 c 128,-1,52
 1047 957 1047 957 1097 972 c 0,53,54
 1135 980 1135 980 1160 1052 c 1,55,56
 1245 1002 1245 1002 1245 937 c 0,0,1
562 527 m 0,57,58
 562 442 562 442 507 363.5 c 128,-1,59
 452 285 452 285 367 285 c 0,60,61
 322 285 322 285 291 338.5 c 128,-1,62
 260 392 260 392 260 457 c 0,63,64
 260 540 260 540 312.5 606 c 128,-1,65
 365 672 365 672 442 672 c 0,66,67
 562 672 562 672 562 527 c 0,57,58
1190 525 m 0,68,69
 1190 432 1190 432 1135 354.5 c 128,-1,70
 1080 277 1080 277 995 277 c 0,71,72
 960 277 960 277 932 322 c 1,73,74
 910 367 910 367 910 422 c 0,75,76
 910 512 910 512 955 579.5 c 128,-1,77
 1000 647 1000 647 1092 647 c 0,78,79
 1130 647 1130 647 1160 608.5 c 128,-1,80
 1190 570 1190 570 1190 525 c 0,68,69
EndSplineSet
EndChar

StartChar: tm_u
Encoding: 2953 2953 53
Width: 1870
GlyphClass: 2
Flags: W
LayerCount: 2
Fore
SplineSet
1852 102 m 0,0,1
 1852 42 1852 42 1732 5 c 0,2,3
 1627 -25 1627 -25 1490 -25 c 0,4,5
 1392 -25 1392 -25 1258.5 12.5 c 128,-1,6
 1125 50 1125 50 1017 50 c 0,7,8
 910 50 910 50 741 12.5 c 128,-1,9
 572 -25 572 -25 467 -25 c 0,10,11
 295 -25 295 -25 175 42 c 0,12,13
 32 117 32 117 32 265 c 0,14,15
 32 387 32 387 140 440 c 0,16,17
 200 467 200 467 382 487 c 1,18,19
 465 487 465 487 527.5 501 c 128,-1,20
 590 515 590 515 635 535 c 0,21,22
 887 637 887 637 887 855 c 0,23,24
 887 1067 887 1067 670 1067 c 0,25,26
 530 1067 530 1067 462 997 c 1,27,28
 677 970 677 970 677 815 c 0,29,30
 677 692 677 692 567 602 c 128,-1,31
 457 512 457 512 310 512 c 0,32,33
 47 512 47 512 47 802 c 0,34,35
 47 970 47 970 210 1092 c 0,36,37
 360 1205 360 1205 557 1205 c 0,38,39
 777 1205 777 1205 927 1097.5 c 128,-1,40
 1077 990 1077 990 1077 805 c 0,41,42
 1077 660 1077 660 1004.5 548.5 c 128,-1,43
 932 437 932 437 787 392 c 0,44,45
 720 375 720 375 553.5 357.5 c 128,-1,46
 387 340 387 340 330 315 c 0,47,48
 237 277 237 277 237 190 c 0,49,50
 237 112 237 112 345 112 c 0,51,52
 387 112 387 112 597 166 c 128,-1,53
 807 220 807 220 1000 220 c 0,54,55
 1112 220 1112 220 1289.5 180 c 128,-1,56
 1467 140 1467 140 1497 140 c 0,57,58
 1585 140 1585 140 1647 175 c 0,59,60
 1722 212 1722 212 1710 272 c 1,61,62
 1852 215 1852 215 1852 102 c 0,0,1
437 800 m 0,63,64
 437 842 437 842 430 865 c 1,65,66
 417 885 417 885 367 892 c 1,67,68
 292 797 292 797 292 715 c 0,69,70
 292 620 292 620 342 620 c 0,71,72
 382 620 382 620 409.5 681 c 128,-1,73
 437 742 437 742 437 800 c 0,63,64
EndSplineSet
EndChar

StartChar: tm_uu
Encoding: 2954 2954 54
Width: 2405
GlyphClass: 2
Flags: W
LayerCount: 2
Fore
SplineSet
2397 935 m 0,0,1
 2397 852 2397 852 2320 852 c 0,2,3
 2290 852 2290 852 2275 856 c 128,-1,4
 2260 860 2260 860 2220 872 c 1,5,6
 2152 670 2152 670 2152 547 c 0,7,8
 2152 440 2152 440 2207 360 c 1,9,10
 2175 340 2175 340 2102 340 c 0,11,12
 1942 340 1942 340 1942 547 c 0,13,14
 1942 720 1942 720 2020 890 c 1,15,16
 1912 890 1912 890 1879.5 871 c 128,-1,17
 1847 852 1847 852 1847 807 c 2,18,-1
 1850 762 l 1,19,-1
 1852 707 l 1,20,-1
 1847 627 l 1,21,-1
 1842 512 l 1,22,23
 1842 402 1842 402 1867 337 c 1,24,25
 1840 317 1840 317 1787 317 c 0,26,27
 1722 317 1722 317 1674.5 358.5 c 128,-1,28
 1627 400 1627 400 1627 475 c 0,29,30
 1627 497 1627 497 1629.5 528.5 c 128,-1,31
 1632 560 1632 560 1640 600 c 1,32,-1
 1652 735 l 1,33,34
 1652 907 1652 907 1540 907 c 0,35,36
 1405 907 1405 907 1345 722 c 1,37,-1
 1412 735 l 1,38,39
 1602 735 1602 735 1602 522 c 0,40,41
 1602 317 1602 317 1372 317 c 0,42,43
 1262 317 1262 317 1190 392 c 0,44,45
 1122 467 1122 467 1122 612 c 0,46,47
 1122 785 1122 785 1228.5 891 c 128,-1,48
 1335 997 1335 997 1530 997 c 0,49,50
 1682 997 1682 997 1785 897 c 1,51,52
 1845 995 1845 995 1990 995 c 0,53,54
 2037 995 2037 995 2117 980 c 128,-1,55
 2197 965 2197 965 2252 965 c 0,56,57
 2295 965 2295 965 2295 995 c 0,58,59
 2295 1007 2295 1007 2277 1022 c 1,60,61
 2310 1030 2310 1030 2353.5 1001 c 128,-1,62
 2397 972 2397 972 2397 935 c 0,0,1
2385 147 m 0,63,64
 2385 95 2385 95 2252.5 33.5 c 128,-1,65
 2120 -28 2120 -28 1970 -28 c 0,66,67
 1767 -28 1767 -28 1524.5 36 c 128,-1,68
 1282 100 1282 100 1225 100 c 0,69,70
 1135 100 1135 100 1033.5 85 c 128,-1,71
 932 70 932 70 807 35 c 0,72,73
 562 -28 562 -28 447 -28 c 0,74,75
 282 -28 282 -28 167 42 c 0,76,77
 35 125 35 125 35 275 c 0,78,79
 35 372 35 372 100 422 c 0,80,81
 147 457 147 457 277 480 c 2,82,-1
 527 520 l 1,83,84
 887 585 887 585 887 862 c 0,85,86
 887 1080 887 1080 665 1080 c 0,87,88
 492 1080 492 1080 422 995 c 1,89,-1
 490 997 l 2,90,91
 567 997 567 997 613.5 943.5 c 128,-1,92
 660 890 660 890 660 812 c 0,93,94
 660 685 660 685 552.5 597.5 c 128,-1,95
 445 510 445 510 307 510 c 0,96,97
 190 510 190 510 120 580 c 0,98,99
 42 657 42 657 42 792 c 0,100,101
 42 982 42 982 200 1107 c 0,102,103
 350 1222 350 1222 552 1222 c 0,104,105
 785 1222 785 1222 925 1093.5 c 128,-1,106
 1065 965 1065 965 1065 762 c 0,107,108
 1065 552 1065 552 895 435 c 0,109,110
 745 335 745 335 540 335 c 0,111,112
 227 335 227 335 227 185 c 0,113,114
 227 100 227 100 330 100 c 0,115,116
 400 100 400 100 647 185 c 0,117,118
 770 225 770 225 867.5 247.5 c 128,-1,119
 965 270 965 270 1030 270 c 0,120,121
 1252 270 1252 270 1487 202.5 c 128,-1,122
 1722 135 1722 135 1862 135 c 0,123,124
 2190 135 2190 135 2240 307 c 1,125,126
 2385 247 2385 247 2385 147 c 0,63,64
427 800 m 0,127,128
 427 907 427 907 390 907 c 0,129,130
 372 907 372 907 352 897 c 1,131,132
 295 817 295 817 295 722 c 0,133,134
 295 625 295 625 337 625 c 0,135,136
 367 625 367 625 397 683.5 c 128,-1,137
 427 742 427 742 427 800 c 0,127,128
1435 507 m 0,138,139
 1435 577 1435 577 1422.5 613.5 c 128,-1,140
 1410 650 1410 650 1357 650 c 0,141,142
 1355 647 1355 647 1348.5 643.5 c 128,-1,143
 1342 640 1342 640 1322 617 c 1,144,-1
 1317 547 l 2,145,146
 1317 492 1317 492 1336 444.5 c 128,-1,147
 1355 397 1355 397 1385 395 c 0,148,149
 1435 395 1435 395 1435 507 c 0,138,139
EndSplineSet
EndChar

StartChar: tm_e
Encoding: 2958 2958 55
Width: 1385
GlyphClass: 2
Flags: W
LayerCount: 2
Fore
SplineSet
1365 902 m 0,0,1
 1365 852 1365 852 1320 817 c 0,2,3
 1282 792 1282 792 1237 792 c 0,4,5
 1215 792 1215 792 1155 815 c 1,6,7
 1092 682 1092 682 1092 305 c 0,8,9
 1092 40 1092 40 1200 40 c 0,10,11
 1215 40 1215 40 1222 42 c 1,12,13
 1222 -43 1222 -43 1032 -43 c 0,14,15
 907 -43 907 -43 862 47 c 128,-1,16
 817 137 817 137 817 342 c 0,17,18
 817 472 817 472 833.5 637 c 128,-1,19
 850 802 850 802 862 835 c 1,20,21
 802 850 802 850 660 850 c 0,22,23
 397 850 397 850 327 600 c 1,24,25
 382 655 382 655 477 655 c 0,26,27
 730 655 730 655 730 365 c 0,28,29
 730 200 730 200 645 92 c 0,30,31
 547 -28 547 -28 372 -28 c 0,32,33
 225 -28 225 -28 130 86 c 128,-1,34
 35 200 35 200 35 392 c 0,35,36
 35 647 35 647 182 802 c 0,37,38
 340 967 340 967 650 967 c 0,39,40
 747 967 747 967 907 942 c 1,41,-1
 1130 917 l 1,42,43
 1192 917 1192 917 1220 935 c 2,44,-1
 1240 947 l 1,45,-1
 1247 1015 l 1,46,47
 1287 1015 1287 1015 1330 977 c 0,48,49
 1365 947 1365 947 1365 902 c 0,0,1
505 370 m 0,50,51
 505 530 505 530 430 530 c 0,52,53
 380 530 380 530 347 482 c 0,54,55
 325 452 325 452 295 360 c 1,56,-1
 292 275 l 2,57,58
 292 210 292 210 314.5 151 c 128,-1,59
 337 92 337 92 375 87 c 1,60,61
 435 87 435 87 475 182 c 0,62,63
 505 262 505 262 505 370 c 0,50,51
EndSplineSet
EndChar

StartChar: tm_ee
Encoding: 2959 2959 56
Width: 1350
GlyphClass: 2
Flags: W
LayerCount: 2
Fore
SplineSet
1332 905 m 0,0,1
 1332 802 1332 802 1167 802 c 1,2,-1
 1090 807 l 1,3,-1
 1080 735 l 1,4,5
 1080 650 1080 650 1136 413.5 c 128,-1,6
 1192 177 1192 177 1192 85 c 0,7,8
 1192 -70 1192 -70 1028.5 -177.5 c 128,-1,9
 865 -285 865 -285 670 -285 c 0,10,11
 590 -285 590 -285 458.5 -255 c 128,-1,12
 327 -225 327 -225 297 -225 c 0,13,14
 112 -225 112 -225 112 -343 c 0,15,16
 112 -368 112 -368 137 -400 c 0,17,18
 150 -413 150 -413 146 -419 c 128,-1,19
 142 -425 142 -425 122 -428 c 0,20,21
 35 -428 35 -428 -33 -378 c 0,22,23
 -108 -320 -108 -320 -108 -238 c 0,24,25
 -108 -165 -108 -165 -40 -113 c 0,26,27
 27 -65 27 -65 112 -65 c 0,28,29
 272 -65 272 -65 390 -120 c 0,30,31
 447 -148 447 -148 496 -163 c 128,-1,32
 545 -178 545 -178 582 -178 c 0,33,34
 912 -178 912 -178 912 95 c 0,35,36
 912 155 912 155 866 401 c 128,-1,37
 820 647 820 647 820 750 c 1,38,-1
 827 825 l 1,39,40
 745 852 745 852 635 852 c 0,41,42
 412 852 412 852 340 612 c 1,43,44
 430 660 430 660 492 660 c 0,45,46
 737 660 737 660 737 360 c 0,47,48
 737 170 737 170 632 65 c 0,49,50
 537 -25 537 -25 387 -25 c 0,51,52
 227 -25 227 -25 127 100 c 0,53,54
 37 212 37 212 37 377 c 0,55,56
 37 632 37 632 202 799.5 c 128,-1,57
 367 967 367 967 615 967 c 0,58,59
 720 967 720 967 877.5 944.5 c 128,-1,60
 1035 922 1035 922 1135 922 c 0,61,62
 1167 922 1167 922 1197 938.5 c 128,-1,63
 1227 955 1227 955 1225 987 c 0,64,65
 1220 1010 1220 1010 1240 1010 c 1,66,-1
 1275 995 l 1,67,68
 1332 957 1332 957 1332 905 c 0,0,1
522 367 m 0,69,70
 522 427 522 427 498.5 478.5 c 128,-1,71
 475 530 475 530 437 530 c 0,72,73
 395 530 395 530 365 492 c 1,74,-1
 312 385 l 1,75,-1
 312 282 l 2,76,77
 312 92 312 92 395 92 c 0,78,79
 522 92 522 92 522 367 c 0,69,70
EndSplineSet
EndChar

StartChar: tm_ai
Encoding: 2960 2960 57
Width: 1595
GlyphClass: 2
Flags: W
LayerCount: 2
Fore
SplineSet
1540 270 m 0,0,1
 1540 167 1540 167 1447 77 c 0,2,3
 1335 -28 1335 -28 1130 -28 c 0,4,5
 922 -28 922 -28 840 87 c 1,6,7
 802 42 802 42 690 5 c 1,8,9
 572 -28 572 -28 465 -28 c 0,10,11
 312 -28 312 -28 195 42 c 0,12,13
 62 122 62 122 62 255 c 0,14,15
 62 412 62 412 202 480 c 1,16,17
 52 525 52 525 52 697 c 0,18,19
 52 837 52 837 210 932 c 0,20,21
 350 1012 350 1012 540 1012 c 0,22,23
 882 1012 882 1012 920 912 c 1,24,25
 1000 1002 1000 1002 1187 1002 c 0,26,27
 1332 1002 1332 1002 1427 928.5 c 128,-1,28
 1522 855 1522 855 1522 732 c 0,29,30
 1522 557 1522 557 1345 467 c 0,31,32
 1200 395 1200 395 987 395 c 1,33,-1
 775 405 l 1,34,-1
 582 415 l 1,35,36
 495 415 495 415 422.5 363.5 c 128,-1,37
 350 312 350 312 350 237 c 0,38,39
 350 172 350 172 390 130 c 1,40,41
 435 90 435 90 492 90 c 0,42,43
 575 90 575 90 625 147 c 1,44,45
 665 200 665 200 665 257 c 1,46,-1
 662 290 l 1,47,-1
 662 312 l 2,48,49
 662 332 662 332 687 340 c 1,50,-1
 820 345 l 1,51,52
 982 345 982 345 982 285 c 2,53,-1
 982 270 l 1,54,-1
 980 255 l 1,55,56
 980 95 980 95 1125 95 c 0,57,58
 1265 95 1265 95 1265 240 c 0,59,60
 1265 320 1265 320 1192 375 c 1,61,62
 1267 405 1267 405 1342 405 c 0,63,64
 1425 405 1425 405 1482.5 366 c 128,-1,65
 1540 327 1540 327 1540 270 c 0,0,1
1235 755 m 0,66,67
 1235 820 1235 820 1227 840 c 0,68,69
 1212 877 1212 877 1137 877 c 0,70,71
 1075 877 1075 877 1027 822 c 1,72,73
 985 767 985 767 985 692 c 0,74,75
 985 605 985 605 1007 577 c 1,76,77
 970 540 970 540 870 540 c 0,78,79
 702 540 702 540 702 687 c 1,80,-1
 707 732 l 1,81,-1
 715 772 l 1,82,83
 715 905 715 905 565 905 c 0,84,85
 475 905 475 905 407 837 c 1,86,-1
 487 842 l 1,87,88
 557 842 557 842 611 799.5 c 128,-1,89
 665 757 665 757 665 682 c 0,90,91
 665 592 665 592 585 530 c 1,92,93
 735 507 735 507 847 507 c 0,94,95
 1002 507 1002 507 1097 552 c 0,96,97
 1235 622 1235 622 1235 755 c 0,66,67
440 690 m 0,98,99
 440 755 440 755 390 755 c 0,100,101
 370 755 370 755 322 652 c 1,102,103
 322 617 322 617 337 588.5 c 128,-1,104
 352 560 352 560 375 557 c 0,105,106
 400 557 400 557 420 602 c 0,107,108
 432 635 432 635 436 651 c 128,-1,109
 440 667 440 667 440 690 c 0,98,99
EndSplineSet
EndChar

StartChar: tm_o
Encoding: 2962 2962 58
Width: 1485
GlyphClass: 2
Flags: W
LayerCount: 2
Fore
SplineSet
1445 -50 m 0,0,1
 1445 -103 1445 -103 1345 -128 c 1,2,3
 1220 -153 1220 -153 1182 -183 c 0,4,5
 995 -333 995 -333 935 -370 c 1,6,7
 807 -438 807 -438 627 -438 c 0,8,9
 397 -438 397 -438 257 -328 c 0,10,11
 135 -233 135 -233 135 -115 c 0,12,13
 135 2 135 2 277 2 c 0,14,15
 317 2 317 2 346 2 c 128,-1,16
 375 2 375 2 437 -8 c 1,17,18
 435 -23 435 -23 435 -53 c 0,19,20
 435 -145 435 -145 492 -218 c 0,21,22
 565 -305 565 -305 690 -305 c 0,23,24
 810 -305 810 -305 915 -240 c 0,25,26
 975 -203 975 -203 1102 -95 c 1,27,28
 917 -73 917 -73 818.5 52 c 128,-1,29
 720 177 720 177 720 372 c 0,30,31
 720 585 720 585 875 585 c 0,32,33
 920 585 920 585 961 562.5 c 128,-1,34
 1002 540 1002 540 1005 517 c 1,35,-1
 977 487 l 2,36,37
 950 455 950 455 950 395 c 0,38,39
 950 245 950 245 1017 245 c 0,40,41
 1092 245 1092 245 1143.5 347.5 c 128,-1,42
 1195 450 1195 450 1195 562 c 0,43,44
 1195 755 1195 755 1087 862 c 0,45,46
 1035 915 1035 915 963.5 942.5 c 128,-1,47
 892 970 892 970 800 970 c 0,48,49
 457 970 457 970 330 617 c 1,50,51
 387 675 387 675 482 675 c 0,52,53
 695 675 695 675 695 387 c 0,54,55
 695 227 695 227 587.5 137 c 128,-1,56
 480 47 480 47 327 47 c 0,57,58
 175 47 175 47 97 185 c 0,59,60
 37 290 37 290 37 470 c 0,61,62
 37 750 37 750 272 917 c 0,63,64
 490 1070 490 1070 800 1070 c 0,65,66
 1077 1070 1077 1070 1247 945 c 0,67,68
 1442 802 1442 802 1442 520 c 0,69,70
 1442 325 1442 325 1317 200 c 0,71,72
 1210 97 1210 97 1087 97 c 0,73,74
 1027 97 1027 97 975 147 c 1,75,76
 987 87 987 87 1040 40 c 1,77,78
 1095 -3 1095 -3 1160 -3 c 0,79,80
 1222 -3 1222 -3 1267 32 c 128,-1,81
 1312 67 1312 67 1312 130 c 1,82,83
 1445 77 1445 77 1445 -50 c 0,0,1
477 342 m 0,84,85
 477 407 477 407 457 474.5 c 128,-1,86
 437 542 437 542 387 542 c 0,87,88
 350 542 350 542 327 510 c 1,89,-1
 292 432 l 1,90,-1
 290 360 l 1,91,92
 290 152 290 152 375 152 c 0,93,94
 412 152 412 152 444.5 216 c 128,-1,95
 477 280 477 280 477 342 c 0,84,85
EndSplineSet
EndChar

StartChar: tm_oo
Encoding: 2963 2963 59
Width: 1500
GlyphClass: 2
Flags: W
LayerCount: 2
Fore
SplineSet
1462 505 m 0,0,1
 1462 340 1462 340 1351 210 c 128,-1,2
 1240 80 1240 80 1110 80 c 0,3,4
 1027 80 1027 80 965 135 c 1,5,6
 972 60 972 60 1036 15 c 128,-1,7
 1100 -30 1100 -30 1175 -30 c 0,8,9
 1225 -30 1225 -30 1272.5 0 c 128,-1,10
 1320 30 1320 30 1320 77 c 0,11,12
 1320 97 1320 97 1315 107 c 1,13,14
 1460 47 1460 47 1460 -65 c 0,15,16
 1460 -118 1460 -118 1392 -145 c 1,17,-1
 1225 -190 l 2,18,19
 1182 -205 1182 -205 1083.5 -299 c 128,-1,20
 985 -393 985 -393 902 -438 c 0,21,22
 772 -510 772 -510 602 -510 c 0,23,24
 452 -510 452 -510 336 -425 c 128,-1,25
 220 -340 220 -340 220 -220 c 0,26,27
 220 -105 220 -105 307 -28 c 1,28,29
 400 45 400 45 547 45 c 0,30,31
 655 45 655 45 735 -33 c 0,32,33
 802 -98 802 -98 802 -163 c 0,34,35
 802 -250 802 -250 747 -313 c 1,36,37
 827 -298 827 -298 922 -238 c 1,38,-1
 1070 -125 l 1,39,40
 720 -8 720 -8 720 310 c 0,41,42
 720 565 720 565 865 565 c 0,43,44
 922 565 922 565 962 545 c 128,-1,45
 1002 525 1002 525 1005 500 c 1,46,-1
 977 472 l 2,47,48
 952 447 952 447 952 362 c 0,49,50
 952 220 952 220 1020 220 c 0,51,52
 1095 220 1095 220 1146 318.5 c 128,-1,53
 1197 417 1197 417 1197 547 c 0,54,55
 1197 732 1197 732 1085 852 c 1,56,57
 972 960 972 960 807 960 c 0,58,59
 432 960 432 960 320 587 c 1,60,61
 377 660 377 660 482 660 c 0,62,63
 592 660 592 660 650 572 c 0,64,65
 692 510 692 510 692 435 c 0,66,67
 692 32 692 32 335 32 c 0,68,69
 185 32 185 32 100 172 c 0,70,71
 37 282 37 282 37 407 c 0,72,73
 37 727 37 727 272 902 c 0,74,75
 477 1055 477 1055 790 1055 c 0,76,77
 1075 1055 1075 1055 1255 930 c 0,78,79
 1462 782 1462 782 1462 505 c 0,0,1
462 360 m 0,80,81
 462 402 462 402 438.5 463.5 c 128,-1,82
 415 525 415 525 377 527 c 0,83,84
 287 527 287 527 287 345 c 0,85,86
 287 130 287 130 375 130 c 0,87,88
 462 130 462 130 462 360 c 0,80,81
622 -133 m 0,89,90
 622 -50 622 -50 557 -50 c 0,91,92
 517 -50 517 -50 474.5 -100 c 128,-1,93
 432 -150 432 -150 432 -230 c 0,94,95
 432 -273 432 -273 500 -295 c 1,96,97
 547 -273 547 -273 584.5 -220.5 c 128,-1,98
 622 -168 622 -168 622 -133 c 0,89,90
EndSplineSet
EndChar

StartChar: tm_ka
Encoding: 2965 2965 61
Width: 1240
GlyphClass: 2
Flags: W
LayerCount: 2
Fore
SplineSet
1202 392 m 0,0,1
 1202 217 1202 217 1081 96 c 128,-1,2
 960 -25 960 -25 775 -25 c 0,3,4
 702 -25 702 -25 615 32 c 1,5,6
 515 -33 515 -33 397 -33 c 0,7,8
 267 -33 267 -33 172 56 c 128,-1,9
 77 145 77 145 77 270 c 0,10,11
 77 367 77 367 137 450 c 1,12,13
 37 535 37 535 37 650 c 0,14,15
 37 795 37 795 162 882.5 c 128,-1,16
 287 970 287 970 497 970 c 0,17,18
 527 970 527 970 566 967.5 c 128,-1,19
 605 965 605 965 652 957 c 2,20,-1
 767 947 l 1,21,22
 887 947 887 947 887 1012 c 1,23,-1
 885 1037 l 1,24,25
 920 1037 920 1037 947.5 1002 c 128,-1,26
 975 967 975 967 975 927 c 0,27,28
 975 890 975 890 916 850 c 128,-1,29
 857 810 857 810 795 810 c 0,30,31
 755 810 755 810 732.5 812.5 c 128,-1,32
 710 815 710 815 660 827 c 2,33,-1
 525 857 l 1,34,-1
 607 702 l 1,35,36
 740 737 740 737 810 750 c 0,37,38
 922 770 922 770 1030 770 c 1,39,40
 1202 637 1202 637 1202 392 c 0,0,1
387 627 m 1,41,-1
 307 797 l 1,42,43
 210 760 210 760 210 630 c 0,44,45
 210 577 210 577 232 540 c 1,46,47
 300 590 300 590 387 627 c 1,41,-1
942 367 m 0,48,49
 942 457 942 457 902 540 c 1,50,51
 865 627 865 627 820 627 c 0,52,53
 782 627 782 627 752 622 c 128,-1,54
 722 617 722 617 665 600 c 1,55,56
 707 512 707 512 732 428.5 c 128,-1,57
 757 345 757 345 757 272 c 0,58,59
 757 162 757 162 677 82 c 1,60,61
 700 70 700 70 745 65 c 1,62,63
 815 65 815 65 880 155 c 1,64,65
 942 250 942 250 942 367 c 0,48,49
515 245 m 0,66,67
 515 322 515 322 437 517 c 1,68,69
 320 442 320 442 320 275 c 0,70,71
 320 200 320 200 345 136 c 128,-1,72
 370 72 370 72 415 72 c 0,73,74
 515 72 515 72 515 245 c 0,66,67
EndSplineSet
EndChar

StartChar: tm_nga
Encoding: 2969 2969 62
Width: 1770
GlyphClass: 2
Flags: W
LayerCount: 2
Fore
SplineSet
1730 267 m 1,0,1
 1730 125 1730 125 1653.5 45 c 128,-1,2
 1577 -35 1577 -35 1450 -35 c 0,3,4
 1385 -35 1385 -35 1296 -11.5 c 128,-1,5
 1207 12 1207 12 1185 12 c 0,6,7
 1110 12 1110 12 1075 -30 c 0,8,9
 1060 -45 1060 -45 1042 -45 c 0,10,11
 1030 -45 1030 -45 1010 -38 c 0,12,13
 917 7 917 7 897 60 c 1,14,-1
 885 102 l 1,15,16
 885 117 885 117 935 135 c 1,17,18
 995 150 995 150 1025 172 c 0,19,20
 1072 212 1072 212 1072 290 c 0,21,22
 1072 377 1072 377 1026 428.5 c 128,-1,23
 980 480 980 480 905 480 c 0,24,25
 750 480 750 480 750 250 c 0,26,27
 750 47 750 47 850 37 c 1,28,29
 815 -28 815 -28 660 -28 c 0,30,31
 520 -28 520 -28 470 130 c 1,32,33
 445 225 445 225 445 437 c 0,34,35
 445 602 445 602 505 825 c 1,36,37
 447 840 447 840 380 840 c 0,38,39
 282 840 282 840 222 787 c 1,40,41
 167 732 167 732 167 645 c 0,42,43
 167 517 167 517 237 338.5 c 128,-1,44
 307 160 307 160 307 102 c 0,45,46
 307 50 307 50 279.5 11 c 128,-1,47
 252 -28 252 -28 210 -28 c 0,48,49
 160 -28 160 -28 110 2 c 0,50,51
 67 32 67 32 67 77 c 1,52,53
 157 65 157 65 157 145 c 0,54,55
 157 205 157 205 97 362.5 c 128,-1,56
 37 520 37 520 37 652 c 0,57,58
 37 797 37 797 152 876 c 128,-1,59
 267 955 267 955 462 955 c 0,60,61
 610 955 610 955 740 931 c 128,-1,62
 870 907 870 907 920 907 c 0,63,64
 1042 907 1042 907 1087 975 c 1,65,66
 1170 975 1170 975 1170 885 c 0,67,68
 1170 785 1170 785 1022 785 c 0,69,70
 932 785 932 785 792 832 c 1,71,72
 765 782 765 782 750 706 c 128,-1,73
 735 630 735 630 735 515 c 1,74,75
 825 650 825 650 1045 650 c 0,76,77
 1157 650 1157 650 1232 573.5 c 128,-1,78
 1307 497 1307 497 1307 375 c 0,79,80
 1307 290 1307 290 1281 248.5 c 128,-1,81
 1255 207 1255 207 1147 115 c 1,82,-1
 1187 120 l 1,83,-1
 1230 125 l 1,84,-1
 1280 115 l 1,85,-1
 1332 105 l 1,86,87
 1467 105 1467 105 1467 240 c 0,88,89
 1467 315 1467 315 1418.5 505 c 128,-1,90
 1370 695 1370 695 1370 745 c 0,91,92
 1370 947 1370 947 1565 947 c 0,93,94
 1667 947 1667 947 1712 910 c 1,95,96
 1650 862 1650 862 1650 817 c 0,97,98
 1650 712 1650 712 1690 510 c 1,99,-1
 1730 267 l 1,0,1
EndSplineSet
EndChar

StartChar: tm_ca
Encoding: 2970 2970 63
Width: 1175
GlyphClass: 2
Flags: W
LayerCount: 2
Fore
SplineSet
1155 617 m 0,0,1
 1155 495 1155 495 962 495 c 0,2,3
 925 495 925 495 873.5 510 c 128,-1,4
 822 525 822 525 787 531 c 128,-1,5
 752 537 752 537 700 537 c 1,6,7
 777 390 777 390 777 295 c 0,8,9
 777 152 777 152 666 62 c 128,-1,10
 555 -28 555 -28 380 -28 c 0,11,12
 247 -28 247 -28 147 54.5 c 128,-1,13
 47 137 47 137 47 277 c 0,14,15
 47 382 47 382 127 470 c 1,16,17
 32 545 32 545 32 677 c 0,18,19
 32 780 32 780 140 862 c 1,20,21
 252 940 252 940 397 940 c 0,22,23
 562 940 562 940 625 930 c 2,24,-1
 720 920 l 1,25,26
 857 920 857 920 857 970 c 0,27,28
 857 987 857 987 840 1007 c 1,29,30
 872 1012 872 1012 908.5 981 c 128,-1,31
 945 950 945 950 947 910 c 0,32,33
 947 860 947 860 895 822 c 1,34,35
 842 792 842 792 775 792 c 0,36,37
 745 792 745 792 668.5 808.5 c 128,-1,38
 592 825 592 825 542 825 c 1,39,40
 550 785 550 785 632 650 c 1,41,-1
 702 650 l 1,42,-1
 797 645 l 1,43,-1
 905 640 l 1,44,45
 992 640 992 640 1039.5 653.5 c 128,-1,46
 1087 667 1087 667 1087 690 c 0,47,48
 1087 702 1087 702 1075 720 c 1,49,50
 1155 700 1155 700 1155 617 c 0,0,1
377 615 m 1,51,52
 327 730 327 730 290 785 c 1,53,54
 182 720 182 720 182 625 c 0,55,56
 182 555 182 555 207 540 c 1,57,58
 302 597 302 597 377 615 c 1,51,52
512 242 m 0,59,60
 512 317 512 317 430 505 c 1,61,62
 300 420 300 420 300 265 c 0,63,64
 300 82 300 82 400 82 c 0,65,66
 447 82 447 82 479.5 132 c 128,-1,67
 512 182 512 182 512 242 c 0,59,60
EndSplineSet
EndChar

StartChar: tm_ja
Encoding: 2972 2972 64
Width: 1575
GlyphClass: 2
Flags: W
LayerCount: 2
Fore
SplineSet
1520 202 m 0,0,1
 1520 85 1520 85 1392 2 c 0,2,3
 1277 -70 1277 -70 1127 -70 c 0,4,5
 950 -70 950 -70 815 50 c 1,6,7
 677 -65 677 -65 467 -65 c 0,8,9
 307 -65 307 -65 197 5 c 0,10,11
 132 47 132 47 99.5 99.5 c 128,-1,12
 67 152 67 152 67 225 c 0,13,14
 67 365 67 365 207 432 c 1,15,16
 55 477 55 477 55 640 c 0,17,18
 55 797 55 797 207 887 c 0,19,20
 340 965 340 965 525 965 c 0,21,22
 817 965 817 965 912 867 c 1,23,24
 1002 957 1002 957 1170 957 c 0,25,26
 1307 957 1307 957 1408.5 883.5 c 128,-1,27
 1510 810 1510 810 1510 685 c 0,28,29
 1510 527 1510 527 1332 432 c 1,30,31
 1520 367 1520 367 1520 202 c 0,0,1
1230 712 m 0,32,33
 1230 830 1230 830 1120 830 c 0,34,35
 975 830 975 830 975 622 c 0,36,37
 975 580 975 580 995 532 c 1,38,39
 980 492 980 492 857 492 c 0,40,41
 705 492 705 492 705 632 c 2,42,-1
 705 660 l 2,43,44
 705 757 705 757 695 785 c 0,45,46
 667 855 667 855 565 855 c 0,47,48
 470 855 470 855 405 790 c 1,49,-1
 495 792 l 2,50,51
 550 792 550 792 595 757 c 0,52,53
 657 710 657 710 657 627 c 0,54,55
 657 537 657 537 580 475 c 1,56,57
 605 475 605 475 630 475 c 128,-1,58
 655 475 655 475 690 470 c 2,59,-1
 827 465 l 1,60,-1
 895 467 l 1,61,-1
 1017 472 l 1,62,-1
 1155 550 l 1,63,64
 1230 607 1230 607 1230 712 c 0,32,33
425 622 m 0,65,66
 425 705 425 705 395 705 c 0,67,68
 372 705 372 705 325 617 c 1,69,-1
 325 590 l 2,70,71
 325 512 325 512 362 512 c 0,72,73
 382 512 382 512 403.5 548.5 c 128,-1,74
 425 585 425 585 425 622 c 0,65,66
835 372 m 1,75,-1
 637 372 l 2,76,77
 522 372 522 372 432 323.5 c 128,-1,78
 342 275 342 275 342 170 c 0,79,80
 342 110 342 110 383.5 72.5 c 128,-1,81
 425 35 425 35 477 35 c 0,82,83
 550 35 550 35 610 112 c 1,84,-1
 677 230 l 2,85,86
 712 290 712 290 835 372 c 1,75,-1
1235 232 m 0,87,88
 1235 307 1235 307 1165 340 c 1,89,-1
 1140 335 l 1,90,91
 1020 325 1020 325 952 215 c 1,92,-1
 882 115 l 1,93,94
 912 50 912 50 1010 50 c 0,95,96
 1087 50 1087 50 1152 92 c 0,97,98
 1235 142 1235 142 1235 232 c 0,87,88
EndSplineSet
EndChar

StartChar: tm_nya
Encoding: 2974 2974 65
Width: 2020
GlyphClass: 2
Flags: W
LayerCount: 2
Fore
SplineSet
1982 320 m 0,0,1
 1982 -20 1982 -20 1662 -205 c 0,2,3
 1400 -355 1400 -355 1045 -355 c 0,4,5
 632 -355 632 -355 360 -203 c 0,6,7
 35 -18 35 -18 35 342 c 0,8,9
 35 437 35 437 80 592 c 128,-1,10
 125 747 125 747 125 787 c 0,11,12
 125 805 125 805 92 862 c 1,13,14
 357 817 357 817 357 650 c 0,15,16
 357 615 357 615 349.5 570 c 128,-1,17
 342 525 342 525 322 460 c 0,18,19
 287 332 287 332 287 250 c 0,20,21
 287 -18 287 -18 520 -153 c 0,22,23
 712 -260 712 -260 1022 -260 c 0,24,25
 1305 -260 1305 -260 1512 -133 c 0,26,27
 1742 10 1742 10 1742 260 c 0,28,29
 1742 487 1742 487 1600 487 c 0,30,31
 1457 487 1457 487 1457 265 c 0,32,33
 1457 77 1457 77 1572 55 c 1,34,35
 1510 -3 1510 -3 1342 -3 c 0,36,37
 1147 -3 1147 -3 1147 445 c 0,38,39
 1147 540 1147 540 1162 650 c 2,40,-1
 1195 865 l 1,41,42
 1130 875 1130 875 1103.5 876 c 128,-1,43
 1077 877 1077 877 1062 877 c 0,44,45
 915 877 915 877 822.5 812 c 128,-1,46
 730 747 730 747 707 622 c 1,47,48
 760 682 760 682 875 682 c 0,49,50
 970 682 970 682 1037 597 c 0,51,52
 1100 512 1100 512 1100 400 c 0,53,54
 1100 222 1100 222 996 113.5 c 128,-1,55
 892 5 892 5 730 5 c 0,56,57
 575 5 575 5 491 132.5 c 128,-1,58
 407 260 407 260 407 455 c 0,59,60
 407 725 407 725 607 870 c 0,61,62
 772 990 772 990 1037 990 c 0,63,64
 1180 990 1180 990 1387 965 c 1,65,-1
 1660 940 l 1,66,67
 1805 940 1805 940 1797 1015 c 1,68,69
 1827 1015 1827 1015 1850 985 c 0,70,71
 1872 962 1872 962 1872 927 c 0,72,73
 1872 812 1872 812 1697 812 c 0,74,75
 1647 812 1647 812 1604.5 817 c 128,-1,76
 1562 822 1562 822 1492 840 c 1,77,78
 1472 757 1472 757 1459.5 681 c 128,-1,79
 1447 605 1447 605 1447 537 c 1,80,81
 1530 650 1530 650 1700 650 c 0,82,83
 1825 650 1825 650 1903.5 555 c 128,-1,84
 1982 460 1982 460 1982 320 c 0,0,1
885 395 m 0,85,86
 885 565 885 565 800 565 c 0,87,88
 732 565 732 565 692 477 c 0,89,90
 662 405 662 405 662 305 c 0,91,92
 662 122 662 122 742 122 c 0,93,94
 815 122 815 122 855 225 c 0,95,96
 885 300 885 300 885 395 c 0,85,86
EndSplineSet
EndChar

StartChar: tm_tta
Encoding: 2975 2975 66
Width: 1220
GlyphClass: 2
Flags: W
LayerCount: 2
Fore
SplineSet
1202 65 m 0,0,1
 1202 2 1202 2 1187 -25 c 1,2,3
 1110 25 1110 25 1025 25 c 0,4,5
 967 25 967 25 930 2 c 2,6,-1
 860 -43 l 1,7,8
 802 -18 802 -18 747 -18 c 2,9,-1
 657 -23 l 1,10,-1
 532 -30 l 1,11,12
 282 -30 282 -30 158.5 73.5 c 128,-1,13
 35 177 35 177 35 357 c 0,14,15
 35 477 35 477 83.5 613.5 c 128,-1,16
 132 750 132 750 132 802 c 2,17,-1
 130 860 l 1,18,19
 122 880 122 880 82 910 c 1,20,21
 157 935 157 935 220 935 c 0,22,23
 310 935 310 935 370 891 c 128,-1,24
 430 847 430 847 430 765 c 0,25,26
 430 695 430 695 377 532 c 0,27,28
 352 450 352 450 339.5 391 c 128,-1,29
 327 332 327 332 327 282 c 0,30,31
 327 60 327 60 542 60 c 256,32,33
 757 60 757 60 860 232 c 1,34,35
 925 202 925 202 960 202 c 2,36,-1
 997 205 l 1,37,-1
 1045 210 l 1,38,39
 1122 210 1122 210 1165 160 c 0,40,41
 1202 122 1202 122 1202 65 c 0,0,1
EndSplineSet
EndChar

StartChar: tm_nna
Encoding: 2979 2979 67
Width: 2420
GlyphClass: 2
Flags: W
LayerCount: 2
Fore
SplineSet
2402 840 m 0,0,1
 2402 762 2402 762 2290 762 c 0,2,3
 2270 762 2270 762 2241 764.5 c 128,-1,4
 2212 767 2212 767 2182 775 c 1,5,6
 2152 730 2152 730 2124.5 562.5 c 128,-1,7
 2097 395 2097 395 2097 300 c 0,8,9
 2097 242 2097 242 2098.5 198.5 c 128,-1,10
 2100 155 2100 155 2107 117 c 0,11,12
 2125 32 2125 32 2197 2 c 1,13,14
 2145 -35 2145 -35 2040 -35 c 0,15,16
 1820 -35 1820 -35 1820 247 c 0,17,18
 1820 310 1820 310 1835 436 c 128,-1,19
 1850 562 1850 562 1885 787 c 1,20,21
 1817 795 1817 795 1757 795 c 0,22,23
 1700 795 1700 795 1647 787 c 1,24,25
 1787 652 1787 652 1787 417 c 0,26,27
 1787 232 1787 232 1681 102 c 128,-1,28
 1575 -28 1575 -28 1400 -28 c 0,29,30
 1172 -28 1172 -28 1125 157 c 1,31,32
 1030 -35 1030 -35 772 -35 c 0,33,34
 620 -35 620 -35 542 95 c 1,35,36
 475 -25 475 -25 310 -25 c 0,37,38
 165 -25 165 -25 90 105 c 0,39,40
 32 212 32 212 32 375 c 0,41,42
 32 630 32 630 214.5 778.5 c 128,-1,43
 397 927 397 927 692 927 c 0,44,45
 817 927 817 927 905 892 c 1,46,47
 1020 932 1020 932 1212 932 c 0,48,49
 1372 932 1372 932 1492 885 c 1,50,51
 1597 915 1597 915 1780 915 c 1,52,-1
 2022 900 l 1,53,-1
 2265 885 l 2,54,55
 2277 885 2277 885 2297 898.5 c 128,-1,56
 2317 912 2317 912 2320 935 c 1,57,-1
 2312 952 l 1,58,59
 2402 930 2402 930 2402 840 c 0,0,1
1340 807 m 1,60,61
 1277 825 1277 825 1220 825 c 0,62,63
 1167 825 1167 825 1131 820 c 128,-1,64
 1095 815 1095 815 1050 797 c 1,65,66
 1125 717 1125 717 1155 585 c 1,67,68
 1215 720 1215 720 1340 807 c 1,60,61
745 807 m 1,69,-1
 682 812 l 1,70,71
 420 812 420 812 322 512 c 1,72,73
 355 540 355 540 420 540 c 0,74,75
 472 540 472 540 515 502 c 1,76,77
 562 670 562 670 745 807 c 1,69,-1
1552 387 m 0,78,79
 1552 490 1552 490 1534.5 570 c 128,-1,80
 1517 650 1517 650 1480 705 c 1,81,82
 1332 562 1332 562 1332 245 c 0,83,84
 1332 87 1332 87 1407 87 c 0,85,86
 1472 87 1472 87 1517 182 c 1,87,88
 1552 267 1552 267 1552 387 c 0,78,79
927 437 m 0,89,90
 927 620 927 620 885 702 c 1,91,92
 712 552 712 552 712 230 c 0,93,94
 712 70 712 70 792 70 c 0,95,96
 842 70 842 70 884.5 197.5 c 128,-1,97
 927 325 927 325 927 437 c 0,89,90
420 305 m 0,98,99
 420 412 420 412 362 412 c 0,100,101
 322 412 322 412 282 260 c 1,102,-1
 282 222 l 2,103,104
 282 110 282 110 327 110 c 0,105,106
 370 110 370 110 395 170 c 128,-1,107
 420 230 420 230 420 305 c 0,98,99
EndSplineSet
EndChar

StartChar: tm_ta
Encoding: 2980 2980 68
Width: 1215
GlyphClass: 2
Flags: W
LayerCount: 2
Fore
SplineSet
1177 350 m 0,0,1
 1177 75 1177 75 952 -90 c 0,2,3
 740 -243 740 -243 405 -243 c 0,4,5
 320 -243 320 -243 108.5 -203 c 128,-1,6
 -103 -163 -103 -163 -203 -163 c 0,7,8
 -283 -163 -283 -163 -345.5 -200.5 c 128,-1,9
 -408 -238 -408 -238 -408 -305 c 0,10,11
 -408 -340 -408 -340 -345 -378 c 1,12,13
 -388 -403 -388 -403 -438 -403 c 0,14,15
 -513 -403 -513 -403 -579 -359 c 128,-1,16
 -645 -315 -645 -315 -645 -248 c 0,17,18
 -645 -33 -645 -33 -343 -33 c 0,19,20
 -278 -33 -278 -33 -196.5 -45.5 c 128,-1,21
 -115 -58 -115 -58 20 -90 c 0,22,23
 272 -148 272 -148 425 -148 c 0,24,25
 675 -148 675 -148 805 -18 c 0,26,27
 922 100 922 100 922 307 c 0,28,29
 922 512 922 512 785 610 c 1,30,31
 715 600 715 600 703.5 598.5 c 128,-1,32
 692 597 692 597 657 585 c 1,33,34
 740 420 740 420 740 297 c 0,35,36
 740 140 740 140 632 50 c 0,37,38
 537 -25 537 -25 387 -25 c 0,39,40
 70 -25 70 -25 70 267 c 0,41,42
 70 365 70 365 125 437 c 1,43,44
 35 505 35 505 35 622 c 0,45,46
 35 752 35 752 151 841 c 128,-1,47
 267 930 267 930 452 930 c 0,48,49
 565 930 565 930 645 920 c 1,50,-1
 755 912 l 1,51,52
 860 912 860 912 860 972 c 0,53,54
 860 992 860 992 845 1015 c 1,55,56
 955 980 955 980 955 895 c 0,57,58
 955 782 955 782 795 782 c 1,59,-1
 532 820 l 1,60,-1
 612 680 l 1,61,62
 680 702 680 702 777.5 716 c 128,-1,63
 875 730 875 730 1010 730 c 1,64,65
 1177 622 1177 622 1177 350 c 0,0,1
392 607 m 1,66,-1
 290 780 l 1,67,68
 200 752 200 752 200 612 c 0,69,70
 200 562 200 562 222 527 c 1,71,72
 287 567 287 567 392 607 c 1,66,-1
512 262 m 0,73,74
 512 357 512 357 440 510 c 1,75,-1
 432 505 l 1,76,77
 310 420 310 420 310 280 c 0,78,79
 310 210 310 210 335 146 c 128,-1,80
 360 82 360 82 407 82 c 0,81,82
 512 82 512 82 512 262 c 0,73,74
EndSplineSet
EndChar

StartChar: tm_na
Encoding: 2984 2984 69
Width: 1345
GlyphClass: 2
Flags: W
LayerCount: 2
Fore
SplineSet
1305 290 m 0,0,1
 1305 85 1305 85 1153.5 -57.5 c 128,-1,2
 1002 -200 1002 -200 792 -200 c 0,3,4
 725 -200 725 -200 605 -185 c 1,5,-1
 452 -173 l 1,6,7
 372 -173 372 -173 308.5 -211.5 c 128,-1,8
 245 -250 245 -250 245 -325 c 0,9,10
 245 -353 245 -353 312 -388 c 1,11,12
 282 -415 282 -415 252 -418 c 2,13,-1
 195 -418 l 2,14,15
 150 -418 150 -418 87 -370 c 0,16,17
 12 -313 12 -313 12 -233 c 256,18,19
 12 -153 12 -153 96 -101.5 c 128,-1,20
 180 -50 180 -50 300 -50 c 0,21,22
 400 -50 400 -50 548.5 -80 c 128,-1,23
 697 -110 697 -110 777 -110 c 0,24,25
 1012 -110 1012 -110 1012 267 c 0,26,27
 1012 472 1012 472 895 472 c 0,28,29
 800 472 800 472 755 340 c 1,30,-1
 757 297 l 1,31,-1
 757 252 l 2,32,33
 757 182 757 182 781 118.5 c 128,-1,34
 805 55 805 55 860 55 c 1,35,36
 865 27 865 27 797.5 11 c 128,-1,37
 730 -5 730 -5 652 -5 c 0,38,39
 517 -5 517 -5 470 150 c 0,40,41
 445 245 445 245 445 437 c 0,42,43
 445 600 445 600 505 852 c 1,44,-1
 450 852 l 1,45,-1
 392 857 l 1,46,47
 295 857 295 857 232.5 794.5 c 128,-1,48
 170 732 170 732 170 635 c 0,49,50
 170 527 170 527 242.5 349.5 c 128,-1,51
 315 172 315 172 315 100 c 0,52,53
 315 47 315 47 287.5 8.5 c 128,-1,54
 260 -30 260 -30 217 -30 c 0,55,56
 87 -30 87 -30 70 72 c 1,57,58
 165 72 165 72 165 145 c 0,59,60
 165 192 165 192 101 358.5 c 128,-1,61
 37 525 37 525 37 615 c 0,62,63
 37 972 37 972 482 972 c 0,64,65
 580 972 580 972 735 945 c 1,66,-1
 922 920 l 1,67,68
 1022 920 1022 920 1022 997 c 0,69,70
 1022 1022 1022 1022 1010 1045 c 1,71,72
 1075 1045 1075 1045 1126 1006 c 128,-1,73
 1177 967 1177 967 1177 897 c 0,74,75
 1177 855 1177 855 1135 822 c 0,76,77
 1115 807 1115 807 1092.5 798.5 c 128,-1,78
 1070 790 1070 790 1047 790 c 1,79,-1
 970 807 l 2,80,81
 912 820 912 820 787 832 c 1,82,83
 767 747 767 747 756 667 c 128,-1,84
 745 587 745 587 745 512 c 1,85,86
 825 665 825 665 1030 665 c 0,87,88
 1112 665 1112 665 1207 560 c 1,89,90
 1305 442 1305 442 1305 290 c 0,0,1
EndSplineSet
EndChar

StartChar: tm_nnna
Encoding: 2985 2985 70
Width: 1835
GlyphClass: 2
Flags: W
LayerCount: 2
Fore
SplineSet
1817 867 m 0,0,1
 1817 782 1817 782 1710 782 c 0,2,3
 1662 782 1662 782 1592 800 c 1,4,5
 1510 515 1510 515 1510 292 c 0,6,7
 1510 142 1510 142 1532 90 c 0,8,9
 1540 70 1540 70 1602 17 c 1,10,11
 1552 -8 1552 -8 1432 -8 c 0,12,13
 1235 -8 1235 -8 1235 225 c 0,14,15
 1235 495 1235 495 1317 825 c 1,16,17
 1307 822 1307 822 1287 822 c 0,18,19
 1277 822 1277 822 1257 827 c 2,20,-1
 1185 835 l 1,21,22
 1145 835 1145 835 1107 835 c 1,23,24
 1075 827 1075 827 1060 825 c 1,25,26
 1205 695 1205 695 1205 455 c 0,27,28
 1205 267 1205 267 1097 135 c 0,29,30
 977 -15 977 -15 765 -15 c 0,31,32
 622 -15 622 -15 537 110 c 1,33,34
 470 -3 470 -3 320 -3 c 0,35,36
 37 -3 37 -3 37 385 c 0,37,38
 37 655 37 655 225 810 c 0,39,40
 400 950 400 950 677 950 c 0,41,42
 802 950 802 950 907 912 c 1,43,44
 1027 957 1027 957 1167 957 c 0,45,46
 1275 957 1275 957 1435 933.5 c 128,-1,47
 1595 910 1595 910 1665 910 c 0,48,49
 1755 910 1755 910 1747 962 c 1,50,51
 1817 955 1817 955 1817 867 c 0,0,1
737 825 m 1,52,-1
 665 830 l 1,53,54
 422 830 422 830 325 537 c 1,55,56
 375 560 375 560 420 560 c 0,57,58
 477 560 477 560 512 530 c 1,59,60
 575 712 575 712 737 825 c 1,52,-1
920 475 m 0,61,62
 920 662 920 662 872 742 c 1,63,-1
 867 737 l 2,64,65
 715 585 715 585 715 247 c 0,66,67
 715 97 715 97 765 97 c 0,68,69
 832 97 832 97 880 227 c 0,70,71
 920 342 920 342 920 475 c 0,61,62
412 327 m 0,72,73
 412 432 412 432 370 432 c 0,74,75
 312 432 312 432 282 305 c 1,76,-1
 280 260 l 1,77,78
 280 135 280 135 330 135 c 0,79,80
 362 135 362 135 387 197 c 0,81,82
 397 225 397 225 404.5 258.5 c 128,-1,83
 412 292 412 292 412 327 c 0,72,73
EndSplineSet
EndChar

StartChar: tm_pa
Encoding: 2986 2986 71
Width: 1230
GlyphClass: 2
Flags: W
LayerCount: 2
Fore
SplineSet
1175 420 m 0,0,1
 1175 220 1175 220 1026 97.5 c 128,-1,2
 877 -25 877 -25 595 -25 c 0,3,4
 325 -25 325 -25 177 120 c 0,5,6
 55 237 55 237 55 405 c 0,7,8
 55 485 55 485 85 632 c 0,9,10
 92 672 92 672 104.5 738.5 c 128,-1,11
 117 805 117 805 117 825 c 0,12,13
 117 882 117 882 90 920 c 1,14,15
 167 930 167 930 196 931 c 128,-1,16
 225 932 225 932 242 932 c 0,17,18
 295 932 295 932 347 925 c 1,19,20
 415 872 415 872 415 780 c 0,21,22
 415 697 415 697 371 569.5 c 128,-1,23
 327 442 327 442 327 370 c 0,24,25
 327 82 327 82 620 82 c 0,26,27
 745 82 745 82 823.5 158.5 c 128,-1,28
 902 235 902 235 902 347 c 0,29,30
 902 400 902 400 894.5 451 c 128,-1,31
 887 502 887 502 867 567 c 0,32,33
 832 695 832 695 832 757 c 0,34,35
 832 952 832 952 1047 952 c 0,36,37
 1142 952 1142 952 1170 917 c 1,38,39
 1117 880 1117 880 1117 792 c 0,40,41
 1117 715 1117 715 1146 593.5 c 128,-1,42
 1175 472 1175 472 1175 420 c 0,0,1
EndSplineSet
EndChar

StartChar: tm_ma
Encoding: 2990 2990 72
Width: 1347
GlyphClass: 2
Flags: W
LayerCount: 2
Fore
SplineSet
1307 510 m 0,0,1
 1307 260 1307 260 1095 110 c 0,2,3
 900 -28 900 -28 612 -28 c 0,4,5
 410 -28 410 -28 250 75 c 0,6,7
 55 195 55 195 55 392 c 0,8,9
 55 482 55 482 85 602 c 128,-1,10
 115 722 115 722 115 780 c 0,11,12
 115 802 115 802 100 837 c 2,13,-1
 70 895 l 1,14,15
 107 902 107 902 137 907 c 128,-1,16
 167 912 167 912 200 912 c 0,17,18
 407 912 407 912 407 732 c 0,19,20
 407 662 407 662 376 526 c 128,-1,21
 345 390 345 390 345 312 c 0,22,23
 345 77 345 77 645 77 c 1,24,25
 505 267 505 267 505 532 c 0,26,27
 505 787 505 787 615 912 c 1,28,29
 657 917 657 917 704.5 919.5 c 128,-1,30
 752 922 752 922 855 922 c 0,31,32
 1027 922 1027 922 1160 815 c 0,33,34
 1307 695 1307 695 1307 510 c 0,0,1
1040 542 m 0,35,36
 1040 635 1040 635 990 720 c 1,37,38
 945 807 945 807 885 807 c 0,39,40
 842 807 842 807 798.5 674.5 c 128,-1,41
 755 542 755 542 755 425 c 0,42,43
 755 215 755 215 820 117 c 1,44,45
 917 172 917 172 978.5 291 c 128,-1,46
 1040 410 1040 410 1040 542 c 0,35,36
EndSplineSet
EndChar

StartChar: tm_ya
Encoding: 2991 2991 73
Width: 1655
GlyphClass: 2
Flags: W
LayerCount: 2
Fore
SplineSet
1610 927 m 1,0,1
 1550 892 1550 892 1550 780 c 0,2,3
 1550 750 1550 750 1553.5 715 c 128,-1,4
 1557 680 1557 680 1581 585 c 128,-1,5
 1605 490 1605 490 1605 427 c 0,6,7
 1605 220 1605 220 1457.5 95 c 128,-1,8
 1310 -30 1310 -30 1037 -30 c 0,9,10
 827 -30 827 -30 715 30 c 1,11,-1
 585 112 l 1,12,13
 465 -23 465 -23 347 -23 c 0,14,15
 220 -23 220 -23 153.5 84.5 c 128,-1,16
 87 192 87 192 87 347 c 0,17,18
 87 437 87 437 105 577 c 1,19,-1
 122 785 l 1,20,21
 122 880 122 880 55 930 c 1,22,23
 112 965 112 965 182 965 c 0,24,25
 257 965 257 965 316 921 c 128,-1,26
 375 877 375 877 375 810 c 0,27,28
 375 737 375 737 322.5 554.5 c 128,-1,29
 270 372 270 372 270 277 c 0,30,31
 270 85 270 85 385 85 c 0,32,33
 485 85 485 85 485 222 c 1,34,-1
 477 347 l 1,35,-1
 470 467 l 1,36,37
 470 550 470 550 500 677 c 0,38,39
 510 717 510 717 521 778.5 c 128,-1,40
 532 840 532 840 532 865 c 0,41,42
 532 882 532 882 505 952 c 1,43,-1
 605 957 l 1,44,45
 840 957 840 957 840 782 c 0,46,47
 840 747 840 747 830 692 c 128,-1,48
 820 637 820 637 797 567 c 0,49,50
 757 420 757 420 757 345 c 0,51,52
 757 230 757 230 833.5 151 c 128,-1,53
 910 72 910 72 1040 72 c 0,54,55
 1310 72 1310 72 1310 347 c 0,56,57
 1310 435 1310 435 1277 557 c 0,58,59
 1267 602 1267 602 1256 664.5 c 128,-1,60
 1245 727 1245 727 1245 755 c 0,61,62
 1245 957 1245 957 1450 957 c 0,63,64
 1527 957 1527 957 1610 927 c 1,0,1
EndSplineSet
EndChar

StartChar: tm_ra
Encoding: 2992 2992 74
Width: 1072
GlyphClass: 2
Flags: W
LayerCount: 2
Fore
SplineSet
1052 872 m 0,0,1
 1052 777 1052 777 907 777 c 0,2,3
 875 777 875 777 855 779.5 c 128,-1,4
 835 782 835 782 792 795 c 1,5,-1
 775 657 l 1,6,7
 775 605 775 605 828.5 407.5 c 128,-1,8
 882 210 882 210 882 117 c 0,9,10
 882 -183 882 -183 552 -183 c 1,11,-1
 490 -178 l 1,12,-1
 407 -173 l 1,13,14
 245 -173 245 -173 245 -285 c 0,15,16
 245 -313 245 -313 260 -350 c 2,17,-1
 290 -413 l 1,18,19
 247 -438 247 -438 205 -438 c 0,20,21
 132 -438 132 -438 68.5 -379 c 128,-1,22
 5 -320 5 -320 5 -248 c 0,23,24
 5 -63 5 -63 270 -63 c 1,25,-1
 375 -70 l 1,26,-1
 477 -78 l 1,27,28
 625 -78 625 -78 625 115 c 0,29,30
 625 182 625 182 562.5 388.5 c 128,-1,31
 500 595 500 595 500 650 c 2,32,-1
 507 752 l 1,33,-1
 515 817 l 1,34,35
 490 827 490 827 461 832 c 128,-1,36
 432 837 432 837 390 837 c 0,37,38
 272 837 272 837 220 762 c 0,39,40
 185 705 185 705 185 615 c 0,41,42
 185 517 185 517 250 351 c 128,-1,43
 315 185 315 185 315 87 c 0,44,45
 315 40 315 40 278.5 7.5 c 128,-1,46
 242 -25 242 -25 190 -25 c 0,47,48
 142 -25 142 -25 108.5 6 c 128,-1,49
 75 37 75 37 75 80 c 1,50,-1
 110 75 l 1,51,52
 165 75 165 75 165 155 c 0,53,54
 165 190 165 190 152.5 240 c 128,-1,55
 140 290 140 290 112.5 370 c 128,-1,56
 85 450 85 450 70 513.5 c 128,-1,57
 55 577 55 577 55 625 c 0,58,59
 55 785 55 785 157.5 868.5 c 128,-1,60
 260 952 260 952 430 952 c 0,61,62
 520 952 520 952 561 949.5 c 128,-1,63
 602 947 602 947 675 932 c 1,64,-1
 817 915 l 1,65,66
 965 915 965 915 965 957 c 1,67,-1
 957 985 l 1,68,69
 1052 950 1052 950 1052 872 c 0,0,1
EndSplineSet
EndChar

StartChar: tm_rra
Encoding: 2993 2993 75
Width: 1397
GlyphClass: 2
Flags: W
LayerCount: 2
Fore
SplineSet
1360 440 m 0,0,1
 1360 127 1360 127 1115 -50 c 0,2,3
 925 -188 925 -188 717 -188 c 2,4,-1
 667 -188 l 2,5,6
 647 -188 647 -188 627 -188 c 0,7,8
 602 -183 602 -183 590 -183 c 2,9,-1
 475 -180 l 1,10,11
 235 -180 235 -180 235 -345 c 0,12,13
 235 -368 235 -368 295 -410 c 1,14,15
 250 -440 250 -440 197 -440 c 0,16,17
 117 -440 117 -440 56 -379 c 128,-1,18
 -5 -318 -5 -318 -5 -243 c 0,19,20
 -5 -178 -5 -178 77 -120 c 1,21,22
 160 -68 160 -68 260 -68 c 0,23,24
 300 -68 300 -68 342.5 -70.5 c 128,-1,25
 385 -73 385 -73 432 -80 c 2,26,-1
 605 -93 l 1,27,28
 835 -93 835 -93 957 67 c 0,29,30
 1065 212 1065 212 1065 442 c 0,31,32
 1065 595 1065 595 1007 702 c 0,33,34
 950 802 950 802 875 802 c 0,35,36
 735 802 735 802 735 567 c 1,37,-1
 727 415 l 1,38,-1
 720 255 l 1,39,40
 720 22 720 22 805 32 c 1,41,42
 797 12 797 12 732 -10 c 0,43,44
 700 -20 700 -20 675 -25 c 128,-1,45
 650 -30 650 -30 617 -30 c 0,46,47
 420 -30 420 -30 420 225 c 0,48,49
 420 330 420 330 442.5 442.5 c 128,-1,50
 465 555 465 555 465 595 c 0,51,52
 465 670 465 670 426 731 c 128,-1,53
 387 792 387 792 330 792 c 0,54,55
 185 792 185 792 185 602 c 0,56,57
 185 497 185 497 238.5 329.5 c 128,-1,58
 292 162 292 162 292 110 c 0,59,60
 292 50 292 50 258.5 11 c 128,-1,61
 225 -28 225 -28 170 -28 c 0,62,63
 67 -28 67 -28 45 80 c 1,64,-1
 70 77 l 1,65,66
 145 77 145 77 145 147 c 0,67,68
 145 212 145 212 100 357 c 128,-1,69
 55 502 55 502 55 617 c 0,70,71
 55 737 55 737 146 828.5 c 128,-1,72
 237 920 237 920 357 920 c 0,73,74
 602 920 602 920 660 800 c 1,75,76
 742 927 742 927 922 927 c 0,77,78
 1120 927 1120 927 1240 793.5 c 128,-1,79
 1360 660 1360 660 1360 440 c 0,0,1
EndSplineSet
EndChar

StartChar: tm_la
Encoding: 2994 2994 76
Width: 1480
GlyphClass: 2
Flags: W
LayerCount: 2
Fore
SplineSet
1440 520 m 0,0,1
 1440 295 1440 295 1330 145 c 1,2,3
 1210 -28 1210 -28 1002 -28 c 0,4,5
 780 -28 780 -28 720 150 c 0,6,7
 697 217 697 217 697 492 c 2,8,-1
 697 535 l 1,9,-1
 697 570 l 2,10,11
 697 687 697 687 687 720 c 0,12,13
 665 842 665 842 572 842 c 0,14,15
 395 842 395 842 335 555 c 1,16,17
 385 582 385 582 445 582 c 0,18,19
 557 582 557 582 615 502 c 1,20,21
 662 430 662 430 662 330 c 0,22,23
 662 152 662 152 562 55 c 0,24,25
 477 -25 477 -25 332 -25 c 0,26,27
 200 -25 200 -25 110 102 c 1,28,29
 35 215 35 215 35 377 c 0,30,31
 35 625 35 625 172 785 c 0,32,33
 322 962 322 962 590 962 c 0,34,35
 962 962 962 962 962 560 c 1,36,-1
 957 435 l 1,37,-1
 952 295 l 1,38,39
 952 100 952 100 1025 100 c 0,40,41
 1105 100 1105 100 1152 225 c 0,42,43
 1192 337 1192 337 1192 470 c 0,44,45
 1192 832 1192 832 1060 832 c 0,46,47
 1022 832 1022 832 1015 812 c 2,48,-1
 1007 770 l 1,49,50
 895 800 895 800 895 892 c 0,51,52
 895 950 895 950 952 965 c 1,53,-1
 1067 965 l 2,54,55
 1245 965 1245 965 1350 827 c 0,56,57
 1440 707 1440 707 1440 520 c 0,0,1
462 280 m 0,58,59
 462 447 462 447 370 447 c 0,60,61
 337 447 337 447 315 387 c 1,62,-1
 312 325 l 1,63,64
 312 82 312 82 407 82 c 0,65,66
 462 82 462 82 462 280 c 0,58,59
EndSplineSet
EndChar

StartChar: tm_lla
Encoding: 2995 2995 77
Width: 1715
GlyphClass: 2
Flags: W
LayerCount: 2
Fore
SplineSet
1695 892 m 0,0,1
 1695 852 1695 852 1657 825 c 0,2,3
 1620 802 1620 802 1572 802 c 1,4,-1
 1525 810 l 1,5,6
 1470 630 1470 630 1470 412 c 0,7,8
 1470 42 1470 42 1590 15 c 1,9,10
 1560 -28 1560 -28 1432 -28 c 0,11,12
 1307 -28 1307 -28 1253.5 41 c 128,-1,13
 1200 110 1200 110 1200 267 c 0,14,15
 1200 660 1200 660 1240 802 c 1,16,17
 1215 827 1215 827 1127 827 c 0,18,19
 1045 827 1045 827 1007 782 c 1,20,21
 1017 757 1017 757 1023.5 739.5 c 128,-1,22
 1030 722 1030 722 1042 700 c 1,23,24
 1060 642 1060 642 1060 567 c 0,25,26
 1060 495 1060 495 1040 385 c 1,27,-1
 1022 185 l 1,28,29
 1022 65 1022 65 1070 0 c 1,30,31
 1040 -35 1040 -35 922 -35 c 0,32,33
 750 -35 750 -35 750 180 c 0,34,35
 750 277 750 277 777 405 c 0,36,37
 790 465 790 465 797.5 523.5 c 128,-1,38
 805 582 805 582 805 622 c 0,39,40
 805 712 805 712 751 777 c 128,-1,41
 697 842 697 842 605 842 c 0,42,43
 365 842 365 842 310 492 c 1,44,45
 382 560 382 560 467 560 c 0,46,47
 562 560 562 560 626 485 c 128,-1,48
 690 410 690 410 690 310 c 0,49,50
 690 167 690 167 596 68.5 c 128,-1,51
 502 -30 502 -30 367 -30 c 0,52,53
 37 -30 37 -30 37 382 c 0,54,55
 37 632 37 632 195 787 c 0,56,57
 272 862 272 862 372 902 c 128,-1,58
 472 942 472 942 595 942 c 0,59,60
 847 942 847 942 920 852 c 1,61,62
 980 912 980 912 1032 927 c 0,63,64
 1057 932 1057 932 1084.5 934.5 c 128,-1,65
 1112 937 1112 937 1172 937 c 0,66,67
 1192 937 1192 937 1227 934.5 c 128,-1,68
 1262 932 1262 932 1302 925 c 2,69,-1
 1435 912 l 1,70,71
 1535 912 1535 912 1560 928.5 c 128,-1,72
 1585 945 1585 945 1607 1007 c 1,73,74
 1695 977 1695 977 1695 892 c 0,0,1
480 242 m 1,75,76
 480 432 480 432 375 432 c 0,77,78
 312 432 312 432 312 282 c 0,79,80
 312 215 312 215 342 148.5 c 128,-1,81
 372 82 372 82 420 82 c 0,82,83
 465 82 465 82 475 137 c 1,84,-1
 480 242 l 1,75,76
EndSplineSet
EndChar

StartChar: tm_llla
Encoding: 2996 2996 78
Width: 1365
GlyphClass: 2
Flags: W
LayerCount: 2
Fore
SplineSet
1352 -83 m 1,0,1
 1330 -140 1330 -140 1247 -173 c 0,2,3
 1180 -198 1180 -198 1142 -198 c 1,4,-1
 1050 -183 l 1,5,6
 1035 -238 1035 -238 947 -275 c 0,7,8
 872 -305 872 -305 775 -305 c 0,9,10
 690 -305 690 -305 561 -240 c 128,-1,11
 432 -175 432 -175 340 -175 c 0,12,13
 297 -175 297 -175 257 -212.5 c 128,-1,14
 217 -250 217 -250 217 -288 c 0,15,16
 217 -328 217 -328 267 -378 c 1,17,18
 240 -393 240 -393 197 -393 c 0,19,20
 115 -393 115 -393 40 -343 c 128,-1,21
 -35 -293 -35 -293 -35 -218 c 256,22,23
 -35 -143 -35 -143 48.5 -88 c 128,-1,24
 132 -33 132 -33 225 -33 c 0,25,26
 330 -33 330 -33 452.5 -94 c 128,-1,27
 575 -155 575 -155 652 -155 c 2,28,-1
 712 -155 l 2,29,30
 752 -155 752 -155 791 -147.5 c 128,-1,31
 830 -140 830 -140 860 -90 c 1,32,-1
 780 -28 l 1,33,-1
 660 -38 l 1,34,35
 415 -38 415 -38 262 62 c 0,36,37
 85 175 85 175 85 395 c 0,38,39
 85 472 85 472 88.5 503.5 c 128,-1,40
 92 535 92 535 105 590 c 0,41,42
 127 687 127 687 127 770 c 2,43,-1
 125 835 l 1,44,45
 117 862 117 862 67 890 c 1,46,47
 100 917 100 917 222 917 c 0,48,49
 432 917 432 917 432 700 c 0,50,51
 432 610 432 610 407 507 c 0,52,53
 397 462 397 462 389.5 404.5 c 128,-1,54
 382 347 382 347 382 295 c 0,55,56
 382 190 382 190 470 125 c 0,57,58
 540 70 540 70 627 70 c 1,59,-1
 672 77 l 1,60,61
 537 255 537 255 537 530 c 0,62,63
 537 820 537 820 635 930 c 1,64,-1
 722 932 l 1,65,-1
 817 935 l 1,66,67
 1055 935 1055 935 1197 822 c 0,68,69
 1237 787 1237 787 1285 695 c 1,70,71
 1327 595 1327 595 1327 502 c 0,72,73
 1327 312 1327 312 1205 180 c 0,74,75
 1102 65 1102 65 920 5 c 1,76,77
 990 -60 990 -60 1065 -60 c 0,78,79
 1132 -60 1132 -60 1197 35 c 1,80,81
 1237 35 1237 35 1295 -10 c 0,82,83
 1335 -43 1335 -43 1352 -83 c 1,0,1
1057 532 m 0,84,85
 1057 785 1057 785 882 822 c 1,86,87
 840 760 840 760 813.5 641 c 128,-1,88
 787 522 787 522 787 455 c 0,89,90
 787 265 787 265 850 122 c 1,91,92
 945 152 945 152 1001 267 c 128,-1,93
 1057 382 1057 382 1057 532 c 0,84,85
EndSplineSet
EndChar

StartChar: tm_va
Encoding: 2997 2997 79
Width: 1540
GlyphClass: 2
Flags: W
LayerCount: 2
Fore
SplineSet
1452 300 m 0,0,1
 1452 190 1452 190 1372 87 c 0,2,3
 1280 -28 1280 -28 1162 -28 c 0,4,5
 1120 -28 1120 -28 1033.5 -5.5 c 128,-1,6
 947 17 947 17 890 17 c 0,7,8
 852 17 852 17 772 -45 c 1,9,10
 712 -35 712 -35 668.5 20 c 128,-1,11
 625 75 625 75 625 142 c 1,12,13
 742 177 742 177 820 320 c 0,14,15
 885 445 885 445 885 565 c 0,16,17
 885 820 885 820 687 820 c 0,18,19
 467 820 467 820 352 552 c 1,20,-1
 447 560 l 1,21,22
 665 560 665 560 665 327 c 0,23,24
 665 177 665 177 568.5 73.5 c 128,-1,25
 472 -30 472 -30 330 -30 c 0,26,27
 180 -30 180 -30 102 87 c 0,28,29
 37 187 37 187 37 340 c 0,30,31
 37 595 37 595 197 757 c 0,32,33
 367 930 367 930 655 930 c 0,34,35
 837 930 837 930 962 835 c 0,36,37
 1100 727 1100 727 1100 547 c 0,38,39
 1100 400 1100 400 1035 292 c 0,40,41
 995 222 995 222 890 125 c 1,42,-1
 957 135 l 2,43,44
 982 135 982 135 1015 122 c 1,45,-1
 1077 112 l 1,46,47
 1220 112 1220 112 1220 287 c 0,48,49
 1220 347 1220 347 1162.5 541 c 128,-1,50
 1105 735 1105 735 1105 795 c 0,51,52
 1105 877 1105 877 1170 925 c 1,53,54
 1225 960 1225 960 1305 960 c 0,55,56
 1402 960 1402 960 1440 920 c 1,57,58
 1385 897 1385 897 1385 825 c 0,59,60
 1385 672 1385 672 1418.5 531 c 128,-1,61
 1452 390 1452 390 1452 300 c 0,0,1
457 257 m 0,62,63
 457 440 457 440 385 440 c 0,64,65
 347 440 347 440 315 427 c 1,66,67
 295 322 295 322 295 255 c 0,68,69
 295 77 295 77 362 77 c 0,70,71
 397 77 397 77 427 136 c 128,-1,72
 457 195 457 195 457 257 c 0,62,63
EndSplineSet
EndChar

StartChar: tm_ssa
Encoding: 2999 2999 80
Width: 1957
GlyphClass: 2
Flags: W
LayerCount: 2
Fore
SplineSet
1962 125 m 0,0,1
 1962 67 1962 67 1822 12 c 128,-1,2
 1682 -43 1682 -43 1525 -43 c 1,3,-1
 1440 -38 l 1,4,5
 1410 -110 1410 -110 1410 -163 c 0,6,7
 1410 -323 1410 -323 1525 -333 c 1,8,9
 1512 -405 1512 -405 1357 -405 c 0,10,11
 1270 -405 1270 -405 1200 -352.5 c 128,-1,12
 1130 -300 1130 -300 1130 -218 c 0,13,14
 1130 -145 1130 -145 1240 -10 c 1,15,-1
 1180 -8 l 2,16,17
 1162 -8 1162 -8 1146 -6.5 c 128,-1,18
 1130 -5 1130 -5 1050 10 c 2,19,-1
 937 30 l 1,20,-1
 882 27 l 1,21,22
 862 20 862 20 780 -35 c 1,23,24
 640 -5 640 -5 640 122 c 0,25,26
 640 142 640 142 702 202 c 1,27,28
 782 270 782 270 822 340 c 0,29,30
 885 457 885 457 885 615 c 0,31,32
 885 710 885 710 831 773.5 c 128,-1,33
 777 837 777 837 702 837 c 0,34,35
 460 837 460 837 355 550 c 1,36,37
 432 582 432 582 490 582 c 0,38,39
 680 582 680 582 680 310 c 0,40,41
 680 172 680 172 575 72 c 128,-1,42
 470 -28 470 -28 337 -28 c 0,43,44
 192 -28 192 -28 107 90 c 0,45,46
 35 192 35 192 35 347 c 0,47,48
 35 597 35 597 197 760 c 0,49,50
 380 942 380 942 680 942 c 0,51,52
 850 942 850 942 977 845 c 0,53,54
 1125 732 1125 732 1125 530 c 0,55,56
 1125 420 1125 420 1077 327 c 1,57,-1
 975 170 l 1,58,-1
 1312 90 l 1,59,-1
 1355 140 l 1,60,61
 1175 302 1175 302 1175 532 c 0,62,63
 1175 955 1175 955 1585 955 c 0,64,65
 1727 955 1727 955 1824.5 867.5 c 128,-1,66
 1922 780 1922 780 1922 602 c 0,67,68
 1922 462 1922 462 1802 330 c 0,69,70
 1747 267 1747 267 1552 115 c 1,71,-1
 1512 77 l 1,72,73
 1655 77 1655 77 1722 107 c 0,74,75
 1822 150 1822 150 1822 270 c 1,76,77
 1962 232 1962 232 1962 125 c 0,0,1
1685 657 m 0,78,79
 1685 825 1685 825 1587 825 c 0,80,81
 1515 825 1515 825 1470 713.5 c 128,-1,82
 1425 602 1425 602 1425 490 c 0,83,84
 1425 330 1425 330 1482 255 c 1,85,86
 1685 435 1685 435 1685 657 c 0,78,79
460 270 m 0,87,88
 460 462 460 462 390 462 c 0,89,90
 357 462 357 462 340 437 c 1,91,-1
 307 357 l 1,92,-1
 297 235 l 1,93,94
 297 77 297 77 367 77 c 0,95,96
 397 77 397 77 428.5 141 c 128,-1,97
 460 205 460 205 460 270 c 0,87,88
EndSplineSet
EndChar

StartChar: tm_sa
Encoding: 3000 3000 81
Width: 1975
GlyphClass: 2
Flags: W
LayerCount: 2
Fore
SplineSet
1937 510 m 0,0,1
 1937 262 1937 262 1808.5 127 c 128,-1,2
 1680 -8 1680 -8 1470 -8 c 0,3,4
 1132 -8 1132 -8 1132 265 c 0,5,6
 1132 362 1132 362 1150 460 c 1,7,-1
 1167 632 l 1,8,9
 1167 797 1167 797 1122 816 c 128,-1,10
 1077 835 1077 835 1060 835 c 0,11,12
 1030 835 1030 835 997 795 c 1,13,14
 1040 732 1040 732 1040 615 c 0,15,16
 1040 547 1040 547 1025 442 c 1,17,-1
 1012 290 l 1,18,19
 1012 117 1012 117 1047 15 c 1,20,21
 995 -5 995 -5 950 -10 c 1,22,-1
 867 -3 l 1,23,24
 732 -3 732 -3 732 200 c 0,25,26
 732 280 732 280 755 450 c 1,27,-1
 777 650 l 1,28,29
 777 747 777 747 727 809.5 c 128,-1,30
 677 872 677 872 605 872 c 0,31,32
 412 872 412 872 337 580 c 1,33,34
 410 610 410 610 467 610 c 0,35,36
 550 610 550 610 612.5 528.5 c 128,-1,37
 675 447 675 447 675 302 c 0,38,39
 675 180 675 180 582.5 88.5 c 128,-1,40
 490 -3 490 -3 365 -3 c 0,41,42
 197 -3 197 -3 107 132 c 0,43,44
 35 247 35 247 35 427 c 0,45,46
 35 660 35 660 181 815 c 128,-1,47
 327 970 327 970 580 970 c 0,48,49
 805 970 805 970 937 872 c 1,50,51
 1000 957 1000 957 1125 957 c 256,52,53
 1250 957 1250 957 1337 877 c 1,54,55
 1425 802 1425 802 1425 670 c 0,56,57
 1425 590 1425 590 1401 478.5 c 128,-1,58
 1377 367 1377 367 1377 277 c 0,59,60
 1377 90 1377 90 1477 90 c 0,61,62
 1585 90 1585 90 1645 220 c 0,63,64
 1692 327 1692 327 1692 480 c 0,65,66
 1692 550 1692 550 1684.5 606 c 128,-1,67
 1677 662 1677 662 1657 717 c 0,68,69
 1615 840 1615 840 1535 840 c 0,70,71
 1487 840 1487 840 1495 772 c 1,72,73
 1450 772 1450 772 1412 825 c 0,74,75
 1405 835 1405 835 1392.5 862.5 c 128,-1,76
 1380 890 1380 890 1380 917 c 0,77,78
 1380 955 1380 955 1407 957 c 2,79,-1
 1472 960 l 1,80,-1
 1550 965 l 1,81,82
 1662 965 1662 965 1747 910 c 0,83,84
 1937 780 1937 780 1937 510 c 0,0,1
462 302 m 0,85,86
 462 370 462 370 441 423.5 c 128,-1,87
 420 477 420 477 380 477 c 256,88,89
 340 477 340 477 315 437 c 1,90,-1
 310 317 l 1,91,92
 310 110 310 110 397 110 c 0,93,94
 462 110 462 110 462 302 c 0,85,86
EndSplineSet
EndChar

StartChar: tm_ha
Encoding: 3001 3001 82
Width: 2470
GlyphClass: 2
Flags: W
LayerCount: 2
Fore
SplineSet
2430 465 m 0,0,1
 2430 60 2430 60 2182 -90 c 0,2,3
 1900 -258 1900 -258 1525 -258 c 1,4,5
 1410 -245 1410 -245 1280 -236.5 c 128,-1,6
 1150 -228 1150 -228 1032 -228 c 0,7,8
 867 -228 867 -228 737 -218 c 128,-1,9
 607 -208 607 -208 510 -200 c 1,10,11
 272 -200 272 -200 272 -370 c 0,12,13
 272 -395 272 -395 297 -410 c 2,14,-1
 342 -435 l 1,15,16
 320 -465 320 -465 225 -465 c 0,17,18
 147 -465 147 -465 91 -410 c 128,-1,19
 35 -355 35 -355 35 -278 c 0,20,21
 35 -85 35 -85 402 -85 c 0,22,23
 580 -85 580 -85 970 -119 c 128,-1,24
 1360 -153 1360 -153 1525 -153 c 0,25,26
 1877 -153 1877 -153 1990 -23 c 0,27,28
 2057 60 2057 60 2104.5 203.5 c 128,-1,29
 2152 347 2152 347 2152 480 c 0,30,31
 2152 810 2152 810 2022 810 c 0,32,33
 1877 810 1877 810 1877 625 c 0,34,35
 1877 587 1877 587 1854.5 461 c 128,-1,36
 1832 335 1832 335 1832 212 c 0,37,38
 1832 77 1832 77 1907 32 c 1,39,40
 1850 -25 1850 -25 1742 -25 c 0,41,42
 1652 -25 1652 -25 1597 25 c 128,-1,43
 1542 75 1542 75 1542 152 c 0,44,45
 1542 235 1542 235 1567 382 c 0,46,47
 1577 445 1577 445 1586 511 c 128,-1,48
 1595 577 1595 577 1595 622 c 0,49,50
 1595 820 1595 820 1477 820 c 0,51,52
 1322 820 1322 820 1322 615 c 0,53,54
 1322 530 1322 530 1361 387.5 c 128,-1,55
 1400 245 1400 245 1400 187 c 0,56,57
 1400 97 1400 97 1338.5 36 c 128,-1,58
 1277 -25 1277 -25 1192 -25 c 0,59,60
 1140 -25 1140 -25 1073.5 6 c 128,-1,61
 1007 37 1007 37 952 37 c 0,62,63
 887 37 887 37 860 20 c 1,64,-1
 795 -43 l 1,65,66
 647 10 647 10 647 135 c 1,67,-1
 717 197 l 1,68,69
 800 265 800 265 847 345 c 0,70,71
 917 465 917 465 917 605 c 0,72,73
 917 717 917 717 863.5 786 c 128,-1,74
 810 855 810 855 717 855 c 0,75,76
 470 855 470 855 355 560 c 1,77,78
 422 600 422 600 475 600 c 0,79,80
 580 600 580 600 635 520 c 0,81,82
 682 447 682 447 682 345 c 0,83,84
 682 190 682 190 582 82.5 c 128,-1,85
 482 -25 482 -25 332 -25 c 0,86,87
 202 -25 202 -25 119.5 82.5 c 128,-1,88
 37 190 37 190 37 335 c 0,89,90
 37 612 37 612 207 785 c 0,91,92
 387 970 387 970 697 970 c 0,93,94
 865 970 865 970 990 867 c 0,95,96
 1132 755 1132 755 1132 565 c 0,97,98
 1132 335 1132 335 915 147 c 1,99,-1
 990 155 l 1,100,101
 1035 155 1035 155 1082.5 132.5 c 128,-1,102
 1130 110 1130 110 1170 110 c 0,103,104
 1267 110 1267 110 1267 217 c 0,105,106
 1267 285 1267 285 1230 390 c 0,107,108
 1195 500 1195 500 1195 687 c 0,109,110
 1195 810 1195 810 1295 888.5 c 128,-1,111
 1395 967 1395 967 1515 967 c 0,112,113
 1710 967 1710 967 1810 837 c 1,114,115
 1877 912 1877 912 1940 937 c 0,116,117
 1992 955 1992 955 2080 955 c 0,118,119
 2250 955 2250 955 2340 820 c 128,-1,120
 2430 685 2430 685 2430 465 c 0,0,1
472 277 m 0,121,122
 472 467 472 467 402 467 c 0,123,124
 360 467 360 467 340 447 c 1,125,-1
 307 380 l 1,126,127
 300 337 300 337 297.5 317 c 128,-1,128
 295 297 295 297 295 250 c 0,129,130
 295 85 295 85 380 85 c 0,131,132
 412 85 412 85 442 141 c 128,-1,133
 472 197 472 197 472 277 c 0,121,122
EndSplineSet
EndChar

StartChar: tm_aakaar
Encoding: 3006 3006 83
Width: 965
GlyphClass: 2
Flags: W
LayerCount: 2
Fore
SplineSet
947 895 m 0,0,1
 947 855 947 855 914.5 826 c 128,-1,2
 882 797 882 797 840 797 c 0,3,4
 812 797 812 797 790 807 c 1,5,6
 755 715 755 715 737.5 607.5 c 128,-1,7
 720 500 720 500 720 355 c 0,8,9
 720 202 720 202 732 152 c 0,10,11
 755 52 755 52 827 22 c 1,12,13
 790 -13 790 -13 737 -23 c 1,14,-1
 632 -25 l 2,15,16
 522 -25 522 -25 477 97 c 1,17,18
 452 177 452 177 452 332 c 0,19,20
 452 582 452 582 505 805 c 1,21,22
 457 832 457 832 352 832 c 0,23,24
 255 832 255 832 210 789.5 c 128,-1,25
 165 747 165 747 165 630 c 0,26,27
 165 532 165 532 228.5 366 c 128,-1,28
 292 200 292 200 292 102 c 0,29,30
 292 -28 292 -28 170 -28 c 0,31,32
 112 -28 112 -28 82 2 c 128,-1,33
 52 32 52 32 52 80 c 1,34,-1
 82 77 l 1,35,36
 145 77 145 77 145 155 c 0,37,38
 145 190 145 190 132.5 240 c 128,-1,39
 120 290 120 290 92.5 370 c 128,-1,40
 65 450 65 450 50 513.5 c 128,-1,41
 35 577 35 577 35 625 c 0,42,43
 35 765 35 765 113.5 857.5 c 128,-1,44
 192 950 192 950 360 950 c 0,45,46
 437 950 437 950 542 932 c 1,47,-1
 717 915 l 1,48,-1
 767 915 l 2,49,50
 797 915 797 915 817 920 c 0,51,52
 870 932 870 932 870 982 c 1,53,-1
 867 1010 l 1,54,55
 947 995 947 995 947 895 c 0,0,1
EndSplineSet
EndChar

StartChar: tm_ikaar
Encoding: 3007 3007 84
Width: 836
GlyphClass: 2
Flags: W
LayerCount: 2
Fore
SplineSet
765 940 m 1,0,-1
 790 942 l 1,1,2
 500 1025 500 1025 500 1180 c 0,3,4
 500 1260 500 1260 585 1312 c 0,5,6
 622 1332 622 1332 662 1342 c 128,-1,7
 702 1352 702 1352 755 1352 c 0,8,9
 920 1352 920 1352 1027 1275 c 0,10,11
 1152 1185 1152 1185 1152 995 c 1,12,-1
 1147 915 l 1,13,-1
 1142 832 l 2,14,15
 1142 782 1142 782 1165 755 c 1,16,-1
 1115 747 l 1,17,18
 1057 747 1057 747 1005 785 c 0,19,20
 957 825 957 825 957 900 c 1,21,-1
 960 955 l 1,22,-1
 965 1012 l 1,23,24
 965 1242 965 1242 835 1242 c 256,25,26
 705 1242 705 1242 705 1120 c 0,27,28
 705 995 705 995 830 995 c 1,29,-1
 857 992 l 1,30,31
 867 1007 867 1007 880 1012 c 2,32,-1
 765 940 l 1,0,-1
EndSplineSet
EndChar

StartChar: tm_iikaar
Encoding: 3008 3008 85
Width: 890
GlyphClass: 4
Flags: W
LayerCount: 2
Fore
SplineSet
395 945 m 1,0,1
 240 1035 240 1035 240 1192 c 0,2,3
 240 1295 240 1295 337 1362 c 0,4,5
 425 1420 425 1420 547 1420 c 0,6,7
 682 1420 682 1420 777 1355 c 1,8,9
 872 1295 872 1295 872 1200 c 0,10,11
 872 1125 872 1125 811 1073.5 c 128,-1,12
 750 1022 750 1022 670 1022 c 0,13,14
 585 1022 585 1022 516 1053.5 c 128,-1,15
 447 1085 447 1085 432 1150 c 1,16,-1
 430 1122 l 1,17,18
 430 1012 430 1012 630 937 c 1,19,-1
 395 945 l 1,0,1
675 1242 m 1,20,21
 675 1325 675 1325 635 1325 c 0,22,23
 550 1325 550 1325 550 1207 c 0,24,25
 550 1135 550 1135 595 1135 c 0,26,27
 625 1135 625 1135 647.5 1172.5 c 128,-1,28
 670 1210 670 1210 675 1242 c 1,20,21
EndSplineSet
EndChar

StartChar: tm_ukaar
Encoding: 3009 3009 86
Width: 849
GlyphClass: 4
Flags: W
LayerCount: 2
Fore
SplineSet
520 692 m 0,0,1
 520 835 520 835 452 835 c 0,2,3
 390 835 390 835 350 750 c 0,4,5
 320 682 320 682 320 597 c 0,6,7
 320 530 320 530 330 496 c 128,-1,8
 340 462 340 462 395 462 c 0,9,10
 440 462 440 462 485 550 c 0,11,12
 520 627 520 627 520 692 c 0,0,1
-448 965 m 2,13,-1
 425 965 l 2,14,15
 745 965 745 965 745 687 c 0,16,17
 745 540 745 540 637.5 437.5 c 128,-1,18
 530 335 530 335 372 335 c 0,19,20
 250 335 250 335 170 417.5 c 128,-1,21
 90 500 90 500 90 607 c 0,22,23
 90 650 90 650 97.5 685 c 128,-1,24
 105 720 105 720 125 760 c 2,25,-1
 160 832 l 1,26,27
 135 835 135 835 85 835 c 128,-1,28
 35 835 35 835 10 835 c 0,29,30
 -93 835 -93 835 -210.5 833.5 c 128,-1,31
 -328 832 -328 832 -460 830 c 1,32,33
 -458 875 -458 875 -456.5 920 c 128,-1,34
 -455 965 -455 965 -448 965 c 2,13,-1
EndSplineSet
EndChar

StartChar: tm_uukaar
Encoding: 3010 3010 87
Width: 875
GlyphClass: 4
Flags: W
LayerCount: 2
Fore
SplineSet
607 740 m 0,0,1
 607 890 607 890 477 890 c 0,2,3
 440 890 440 890 417 810 c 0,4,5
 410 775 410 775 405 738.5 c 128,-1,6
 400 702 400 702 400 660 c 0,7,8
 400 537 400 537 475 537 c 0,9,10
 535 537 535 537 571 599.5 c 128,-1,11
 607 662 607 662 607 740 c 0,0,1
-235 890 m 1,12,-1
 -275 877 l 1,13,14
 -345 877 -345 877 -443 817 c 1,15,16
 -510 847 -510 847 -556.5 909.5 c 128,-1,17
 -603 972 -603 972 -590 1017 c 1,18,19
 -563 1017 -563 1017 -530 1007 c 1,20,-1
 -465 1000 l 1,21,-1
 222 1000 l 1,22,23
 272 1137 272 1137 375 1217 c 0,24,25
 490 1310 490 1310 632 1310 c 0,26,27
 760 1310 760 1310 860 1227.5 c 128,-1,28
 960 1145 960 1145 960 1025 c 0,29,30
 960 942 960 942 907 875 c 1,31,32
 852 875 852 875 811 915 c 128,-1,33
 770 955 770 955 755 1002 c 1,34,35
 792 1070 792 1070 792 1100 c 0,36,37
 792 1135 792 1135 769.5 1160 c 128,-1,38
 747 1185 747 1185 712 1190 c 1,39,40
 632 1190 632 1190 572 1137.5 c 128,-1,41
 512 1085 512 1085 485 1000 c 1,42,-1
 542 1005 l 1,43,44
 657 1005 657 1005 733.5 936 c 128,-1,45
 810 867 810 867 810 740 c 0,46,47
 810 610 810 610 713.5 508.5 c 128,-1,48
 617 407 617 407 482 407 c 0,49,50
 177 407 177 407 177 730 c 0,51,52
 177 810 177 810 200 877 c 1,53,54
 170 877 170 877 125 877 c 128,-1,55
 80 877 80 877 35 877 c 2,56,-1
 -25 877 l 1,57,-1
 -80 877 l 1,58,-1
 -128 877 l 1,59,-1
 -170 877 l 1,60,-1
 -205 877 l 1,61,-1
 -235 877 l 2,62,63
 -210 877 -210 877 -235 890 c 1,12,-1
EndSplineSet
EndChar

StartChar: tm_ekaar
Encoding: 3014 3014 88
Width: 1217
GlyphClass: 2
Flags: W
LayerCount: 2
Fore
SplineSet
1162 670 m 0,0,1
 1162 615 1162 615 1152 551 c 128,-1,2
 1142 487 1142 487 1132 432 c 128,-1,3
 1122 377 1122 377 1114.5 308.5 c 128,-1,4
 1107 240 1107 240 1107 187 c 2,5,-1
 1110 87 l 1,6,7
 1117 32 1117 32 1152 -5 c 1,8,-1
 1017 -25 l 1,9,10
 910 -25 910 -25 868.5 25 c 128,-1,11
 827 75 827 75 827 182 c 0,12,13
 827 232 827 232 837 301 c 128,-1,14
 847 370 847 370 870 452 c 0,15,16
 915 617 915 617 915 727 c 0,17,18
 915 852 915 852 845 922 c 1,19,20
 775 985 775 985 670 985 c 0,21,22
 390 985 390 985 322 595 c 1,23,24
 407 665 407 665 500 665 c 0,25,26
 612 665 612 665 682 570 c 0,27,28
 745 485 745 485 745 385 c 0,29,30
 745 205 745 205 647.5 90 c 128,-1,31
 550 -25 550 -25 405 -25 c 0,32,33
 37 -25 37 -25 37 432 c 0,34,35
 37 715 37 715 185 887 c 0,36,37
 350 1080 350 1080 662 1080 c 0,38,39
 875 1080 875 1080 1018.5 966 c 128,-1,40
 1162 852 1162 852 1162 670 c 0,0,1
512 367 m 0,41,42
 512 532 512 532 422 532 c 0,43,44
 372 532 372 532 342 485 c 0,45,46
 335 477 335 477 297 370 c 1,47,-1
 295 270 l 2,48,49
 295 87 295 87 395 87 c 0,50,51
 442 87 442 87 477 182 c 128,-1,52
 512 277 512 277 512 367 c 0,41,42
EndSplineSet
EndChar

StartChar: tm_eekaar
Encoding: 3015 3015 89
Width: 1347
GlyphClass: 2
Flags: W
LayerCount: 2
Fore
SplineSet
1312 380 m 0,0,1
 1312 230 1312 230 1123.5 101 c 128,-1,2
 935 -28 935 -28 710 -28 c 0,3,4
 442 -28 442 -28 262 105 c 0,5,6
 37 267 37 267 37 582 c 0,7,8
 37 837 37 837 235 1052 c 0,9,10
 470 1310 470 1310 855 1310 c 0,11,12
 982 1310 982 1310 1076 1248.5 c 128,-1,13
 1170 1187 1170 1187 1170 1080 c 0,14,15
 1170 972 1170 972 1061 897 c 128,-1,16
 952 822 952 822 765 822 c 0,17,18
 595 822 595 822 482 975 c 1,19,20
 327 847 327 847 285 645 c 1,21,22
 510 787 510 787 785 787 c 0,23,24
 1022 787 1022 787 1175 657 c 0,25,26
 1312 540 1312 540 1312 380 c 0,0,1
990 1102 m 0,27,28
 990 1175 990 1175 880 1175 c 0,29,30
 787 1175 787 1175 715 1125 c 1,31,32
 642 1080 642 1080 642 1027 c 0,33,34
 642 962 642 962 737 962 c 0,35,36
 787 962 787 962 819.5 969.5 c 128,-1,37
 852 977 852 977 905 1002 c 0,38,39
 990 1040 990 1040 990 1102 c 0,27,28
1127 462 m 0,40,41
 1127 592 1127 592 1032 640 c 0,42,43
 970 667 970 667 837 667 c 0,44,45
 637 667 637 667 476 573.5 c 128,-1,46
 315 480 315 480 292 347 c 1,47,48
 352 140 352 140 622 140 c 0,49,50
 810 140 810 140 960 222 c 0,51,52
 1127 317 1127 317 1127 462 c 0,40,41
EndSplineSet
EndChar

StartChar: tm_aikaar
Encoding: 3016 3016 90
Width: 1635
GlyphClass: 2
Flags: W
LayerCount: 2
Fore
SplineSet
1597 442 m 0,0,1
 1597 245 1597 245 1477 111 c 128,-1,2
 1357 -23 1357 -23 1177 -23 c 0,3,4
 1062 -23 1062 -23 1002 27 c 1,5,6
 915 -30 915 -30 805 -30 c 0,7,8
 630 -30 630 -30 557 95 c 1,9,10
 490 -23 490 -23 332 -23 c 0,11,12
 195 -23 195 -23 116 81 c 128,-1,13
 37 185 37 185 37 327 c 0,14,15
 37 590 37 590 200 750 c 0,16,17
 375 920 375 920 700 920 c 0,18,19
 800 920 800 920 887 887 c 1,20,21
 990 920 990 920 1100 920 c 0,22,23
 1332 920 1332 920 1464.5 791 c 128,-1,24
 1597 662 1597 662 1597 442 c 0,0,1
722 805 m 1,25,-1
 660 810 l 1,26,27
 437 810 437 810 335 525 c 1,28,29
 357 535 357 535 378.5 540 c 128,-1,30
 400 545 400 545 430 545 c 0,31,32
 487 545 487 545 527 512 c 1,33,34
 577 692 577 692 722 805 c 1,25,-1
1337 452 m 0,35,36
 1337 812 1337 812 1090 812 c 1,37,-1
 1025 805 l 1,38,39
 1195 657 1195 657 1195 415 c 0,40,41
 1195 210 1195 210 1070 82 c 1,42,43
 1082 75 1082 75 1122 70 c 1,44,45
 1220 70 1220 70 1278.5 183.5 c 128,-1,46
 1337 297 1337 297 1337 452 c 0,35,36
942 460 m 0,47,48
 942 622 942 622 882 710 c 1,49,50
 812 632 812 632 765 492 c 0,51,52
 727 375 727 375 727 265 c 0,53,54
 727 87 727 87 805 87 c 0,55,56
 867 87 867 87 910 215 c 1,57,58
 942 332 942 332 942 460 c 0,47,48
430 295 m 2,59,-1
 432 370 l 1,60,61
 425 410 425 410 380 410 c 0,62,63
 345 410 345 410 295 297 c 1,64,-1
 292 245 l 1,65,66
 292 112 292 112 350 112 c 0,67,68
 377 112 377 112 407 182 c 0,69,70
 430 242 430 242 430 295 c 2,59,-1
EndSplineSet
EndChar

StartChar: tm_halant
Encoding: 3021 3021 94
Width: 25
GlyphClass: 4
Flags: W
LayerCount: 2
Fore
SplineSet
-663 1222 m 0,0,1
 -738 1222 -738 1222 -791.5 1276 c 128,-1,2
 -845 1330 -845 1330 -845 1402 c 0,3,4
 -845 1477 -845 1477 -790 1532 c 128,-1,5
 -735 1587 -735 1587 -663 1587 c 0,6,7
 -585 1587 -585 1587 -535 1531 c 128,-1,8
 -485 1475 -485 1475 -485 1395 c 0,9,10
 -485 1330 -485 1330 -538 1272 c 1,11,12
 -593 1222 -593 1222 -663 1222 c 0,0,1
EndSplineSet
EndChar

StartChar: tm_au_lengthmk
Encoding: 3031 3031 95
Width: 1714
GlyphClass: 2
Flags: W
LayerCount: 2
Fore
SplineSet
1695 892 m 0,0,1
 1695 852 1695 852 1657 825 c 0,2,3
 1620 802 1620 802 1572 802 c 1,4,-1
 1525 810 l 1,5,6
 1470 630 1470 630 1470 412 c 0,7,8
 1470 42 1470 42 1590 15 c 1,9,10
 1560 -28 1560 -28 1432 -28 c 0,11,12
 1307 -28 1307 -28 1253.5 41 c 128,-1,13
 1200 110 1200 110 1200 267 c 0,14,15
 1200 660 1200 660 1240 802 c 1,16,17
 1215 827 1215 827 1127 827 c 0,18,19
 1045 827 1045 827 1007 782 c 1,20,21
 1017 757 1017 757 1023.5 739.5 c 128,-1,22
 1030 722 1030 722 1042 700 c 1,23,24
 1060 642 1060 642 1060 567 c 0,25,26
 1060 495 1060 495 1040 385 c 1,27,-1
 1022 185 l 1,28,29
 1022 65 1022 65 1070 0 c 1,30,31
 1040 -35 1040 -35 922 -35 c 0,32,33
 750 -35 750 -35 750 180 c 0,34,35
 750 277 750 277 777 405 c 0,36,37
 790 465 790 465 797.5 523.5 c 128,-1,38
 805 582 805 582 805 622 c 0,39,40
 805 712 805 712 751 777 c 128,-1,41
 697 842 697 842 605 842 c 0,42,43
 365 842 365 842 310 492 c 1,44,45
 382 560 382 560 467 560 c 0,46,47
 562 560 562 560 626 485 c 128,-1,48
 690 410 690 410 690 310 c 0,49,50
 690 167 690 167 596 68.5 c 128,-1,51
 502 -30 502 -30 367 -30 c 0,52,53
 37 -30 37 -30 37 382 c 0,54,55
 37 632 37 632 195 787 c 0,56,57
 272 862 272 862 372 902 c 128,-1,58
 472 942 472 942 595 942 c 0,59,60
 847 942 847 942 920 852 c 1,61,62
 980 912 980 912 1032 927 c 0,63,64
 1057 932 1057 932 1084.5 934.5 c 128,-1,65
 1112 937 1112 937 1172 937 c 0,66,67
 1192 937 1192 937 1227 934.5 c 128,-1,68
 1262 932 1262 932 1302 925 c 2,69,-1
 1435 912 l 1,70,71
 1535 912 1535 912 1560 928.5 c 128,-1,72
 1585 945 1585 945 1607 1007 c 1,73,74
 1695 977 1695 977 1695 892 c 0,0,1
480 242 m 1,75,76
 480 432 480 432 375 432 c 0,77,78
 312 432 312 432 312 282 c 0,79,80
 312 215 312 215 342 148.5 c 128,-1,81
 372 82 372 82 420 82 c 0,82,83
 465 82 465 82 475 137 c 1,84,-1
 480 242 l 1,75,76
EndSplineSet
EndChar

StartChar: tm_two
Encoding: 3048 3048 97
Width: 1425
GlyphClass: 2
Flags: W
LayerCount: 2
Fore
SplineSet
1244 70 m 1,0,-1
 1226 0 l 1,1,-1
 586 0 l 2,2,3
 429 0 429 0 429 106 c 0,4,5
 429 153 429 153 478 181.5 c 128,-1,6
 527 210 527 210 586 210 c 2,7,-1
 779 210 l 2,8,9
 867 210 867 210 928 271.5 c 128,-1,10
 989 333 989 333 989 420 c 0,11,12
 989 500 989 500 945 560.5 c 128,-1,13
 901 621 901 621 831 621 c 0,14,15
 793 621 793 621 744 595 c 1,16,17
 814 555 814 555 814 437 c 0,18,19
 814 382 814 382 772.5 344.5 c 128,-1,20
 731 307 731 307 675 307 c 0,21,22
 618 307 618 307 580 351 c 128,-1,23
 542 395 542 395 542 455 c 0,24,25
 542 565 542 565 646.5 632.5 c 128,-1,26
 751 700 751 700 884 700 c 0,27,28
 987 700 987 700 1058 629 c 128,-1,29
 1129 558 1129 558 1129 455 c 0,30,31
 1129 321 1129 321 1025.5 230.5 c 128,-1,32
 922 140 922 140 779 140 c 2,33,-1
 595 140 l 2,34,35
 551 140 551 140 551 106 c 0,36,37
 551 70 551 70 604 70 c 2,38,-1
 1244 70 l 1,0,-1
675 560 m 1,39,40
 621 516 621 516 621 473 c 0,41,42
 621 386 621 386 666 386 c 0,43,44
 709 386 709 386 709 473 c 0,45,46
 709 518 709 518 675 560 c 1,39,40
EndSplineSet
EndChar

StartChar: tm_three
Encoding: 3049 3049 98
Width: 1424
GlyphClass: 2
Flags: W
LayerCount: 2
Fore
SplineSet
1270 70 m 1,0,-1
 1252 0 l 1,1,-1
 640 0 l 1,2,-1
 657 70 l 1,3,-1
 780 70 l 2,4,5
 874 70 874 70 941 130.5 c 128,-1,6
 1008 191 1008 191 1008 280 c 0,7,8
 1008 317 1008 317 982.5 342.5 c 128,-1,9
 957 368 957 368 920 368 c 0,10,11
 890 368 890 368 865 341 c 128,-1,12
 840 314 840 314 833 280 c 2,13,-1
 815 193 l 1,14,-1
 675 193 l 1,15,-1
 764 630 l 1,16,-1
 571 630 l 1,17,-1
 444 0 l 1,18,-1
 378 0 l 1,19,-1
 517 700 l 1,20,-1
 1095 700 l 1,21,-1
 1077 630 l 1,22,-1
 902 630 l 1,23,-1
 859 403 l 1,24,25
 918 455 918 455 990 455 c 0,26,27
 1057 455 1057 455 1102.5 403.5 c 128,-1,28
 1148 352 1148 352 1148 280 c 0,29,30
 1148 209 1148 209 1090 151 c 128,-1,31
 1032 93 1032 93 947 70 c 1,32,-1
 1270 70 l 1,0,-1
EndSplineSet
EndChar

StartChar: tm_four
Encoding: 3050 3050 99
Width: 1427
GlyphClass: 2
Flags: W
LayerCount: 2
Fore
SplineSet
915 316 m 1,0,-1
 644 316 l 2,1,2
 601 316 601 316 570.5 291 c 128,-1,3
 540 266 540 266 540 228 c 0,4,5
 540 158 540 158 609.5 114 c 128,-1,6
 679 70 679 70 766 70 c 0,7,8
 811 70 811 70 844 99.5 c 128,-1,9
 877 129 877 129 887 175 c 2,10,-1
 915 316 l 1,0,-1
979 630 m 1,11,-1
 784 630 l 1,12,-1
 735 386 l 1,13,-1
 930 386 l 1,14,-1
 979 630 l 1,11,-1
1042 245 m 2,15,16
 1017 125 1017 125 940 62.5 c 128,-1,17
 863 0 863 0 766 0 c 0,18,19
 651 0 651 0 559.5 64 c 128,-1,20
 468 128 468 128 468 228 c 0,21,22
 468 294 468 294 520.5 340 c 128,-1,23
 573 386 573 386 644 386 c 2,24,-1
 669 386 l 1,25,-1
 731 700 l 1,26,-1
 1344 700 l 1,27,-1
 1329 630 l 1,28,-1
 1118 630 l 1,29,-1
 1068 386 l 1,30,-1
 1232 386 l 1,31,-1
 1248 464 l 1,32,-1
 1309 464 l 1,33,-1
 1279 316 l 1,34,-1
 1055 316 l 1,35,-1
 1042 245 l 2,15,16
EndSplineSet
EndChar

StartChar: tm_five
Encoding: 3051 3051 100
Width: 1424
GlyphClass: 2
Flags: W
LayerCount: 2
Fore
SplineSet
1412 517 m 1,0,-1
 1359 526 l 1,1,2
 1369 563 1369 563 1369 598 c 0,3,4
 1369 723 1369 723 1253.5 825.5 c 128,-1,5
 1138 928 1138 928 965 928 c 0,6,7
 728 928 728 928 575.5 716 c 128,-1,8
 423 504 423 504 423 228 c 0,9,10
 423 -43 423 -43 515 -179.5 c 128,-1,11
 607 -316 607 -316 790 -316 c 0,12,13
 979 -316 979 -316 1103.5 -163.5 c 128,-1,14
 1228 -11 1228 -11 1228 193 c 0,15,16
 1228 257 1228 257 1200 304.5 c 128,-1,17
 1172 352 1172 352 1126 352 c 0,18,19
 1099 352 1099 352 1072.5 336.5 c 128,-1,20
 1046 321 1046 321 1039 298 c 2,21,-1
 980 0 l 1,22,-1
 840 0 l 1,23,-1
 965 630 l 1,24,-1
 759 630 l 1,25,-1
 634 0 l 1,26,-1
 566 0 l 1,27,-1
 706 700 l 1,28,-1
 1237 700 l 1,29,-1
 1219 630 l 1,30,-1
 1105 630 l 1,31,-1
 1057 386 l 1,32,33
 1101 437 1101 437 1171 437 c 0,34,35
 1261 437 1261 437 1314.5 368.5 c 128,-1,36
 1368 300 1368 300 1368 193 c 0,37,38
 1368 -47 1368 -47 1202.5 -216 c 128,-1,39
 1037 -385 1037 -385 799 -385 c 0,40,41
 589 -385 589 -385 471.5 -223 c 128,-1,42
 354 -61 354 -61 354 193 c 0,43,44
 354 513 354 513 519 764 c 128,-1,45
 684 1015 684 1015 948 1015 c 0,46,47
 1152 1015 1152 1015 1288.5 889.5 c 128,-1,48
 1425 764 1425 764 1425 613 c 0,49,50
 1425 566 1425 566 1412 517 c 1,0,-1
EndSplineSet
EndChar

StartChar: tm_six
Encoding: 3052 3052 101
Width: 1424
GlyphClass: 2
Flags: W
LayerCount: 2
Fore
SplineSet
784 316 m 1,0,-1
 513 316 l 2,1,2
 469 316 469 316 438 291 c 128,-1,3
 407 266 407 266 407 228 c 0,4,5
 407 158 407 158 477 114 c 128,-1,6
 547 70 547 70 635 70 c 0,7,8
 680 70 680 70 713 99.5 c 128,-1,9
 746 129 746 129 756 175 c 2,10,-1
 784 316 l 1,0,-1
846 630 m 1,11,-1
 653 630 l 1,12,-1
 603 386 l 1,13,-1
 798 386 l 1,14,-1
 846 630 l 1,11,-1
910 245 m 2,15,16
 884 125 884 125 808 62.5 c 128,-1,17
 732 0 732 0 635 0 c 0,18,19
 518 0 518 0 428 64 c 128,-1,20
 338 128 338 128 338 228 c 0,21,22
 338 294 338 294 389.5 340 c 128,-1,23
 441 386 441 386 513 386 c 2,24,-1
 537 386 l 1,25,-1
 600 700 l 1,26,-1
 1229 700 l 1,27,-1
 1213 630 l 1,28,-1
 988 630 l 1,29,-1
 938 386 l 1,30,-1
 1422 386 l 1,31,-1
 1410 316 l 1,32,-1
 1353 316 l 1,33,-1
 1291 0 l 1,34,-1
 1151 0 l 1,35,-1
 1213 316 l 1,36,-1
 1116 316 l 1,37,-1
 1055 0 l 1,38,-1
 967 0 l 1,39,-1
 1028 316 l 1,40,-1
 924 316 l 1,41,-1
 910 245 l 2,15,16
EndSplineSet
EndChar

StartChar: tm_seven
Encoding: 3053 3053 102
Width: 1425
GlyphClass: 2
Flags: W
LayerCount: 2
Fore
SplineSet
643 88 m 1,0,1
 706 88 706 88 753 128 c 128,-1,2
 800 168 800 168 800 228 c 0,3,4
 800 269 800 269 781 301 c 128,-1,5
 762 333 762 333 729 333 c 0,6,7
 684 333 684 333 654.5 296.5 c 128,-1,8
 625 260 625 260 625 210 c 0,9,10
 625 135 625 135 643 88 c 1,0,1
1042 0 m 1,11,-1
 1167 630 l 1,12,-1
 852 630 l 2,13,14
 704 630 704 630 594.5 540.5 c 128,-1,15
 485 451 485 451 485 316 c 0,16,17
 485 247 485 247 507 194.5 c 128,-1,18
 529 142 529 142 572 106 c 1,19,20
 555 135 555 135 555 228 c 256,21,22
 555 321 555 321 614.5 388 c 128,-1,23
 674 455 674 455 765 455 c 0,24,25
 837 455 837 455 884 398 c 128,-1,26
 931 341 931 341 931 263 c 0,27,28
 931 155 931 155 863 77.5 c 128,-1,29
 795 0 795 0 695 0 c 0,30,31
 576 0 576 0 495.5 94 c 128,-1,32
 415 188 415 188 415 316 c 0,33,34
 415 481 415 481 545.5 590.5 c 128,-1,35
 676 700 676 700 852 700 c 2,36,-1
 1430 700 l 1,37,-1
 1412 630 l 1,38,-1
 1307 630 l 1,39,-1
 1181 0 l 1,40,-1
 1042 0 l 1,11,-1
EndSplineSet
EndChar

StartChar: tm_eight
Encoding: 3054 3054 103
Width: 1427
GlyphClass: 2
Flags: W
LayerCount: 2
Fore
SplineSet
849 629 m 1,0,1
 745 611 745 611 670 548.5 c 128,-1,2
 595 486 595 486 595 402 c 0,3,4
 595 338 595 338 638.5 291 c 128,-1,5
 682 244 682 244 744 244 c 0,6,7
 817 244 817 244 864 307.5 c 128,-1,8
 911 371 911 371 911 454 c 0,9,10
 911 580 911 580 849 629 c 1,0,1
1024 140 m 1,11,-1
 411 140 l 2,12,13
 381 140 381 140 357 125 c 128,-1,14
 333 110 333 110 333 87 c 0,15,16
 333 43 333 43 412 -13.5 c 128,-1,17
 491 -70 491 -70 639 -70 c 0,18,19
 743 -70 743 -70 839.5 -18 c 128,-1,20
 936 34 936 34 1024 140 c 1,11,-1
1414 -245 m 1,21,-1
 1269 -245 l 1,22,-1
 1348 140 l 1,23,-1
 1164 140 l 1,24,25
 1051 4 1051 4 915 -63.5 c 128,-1,26
 779 -131 779 -131 621 -131 c 0,27,28
 421 -131 421 -131 311.5 -52.5 c 128,-1,29
 202 26 202 26 202 123 c 0,30,31
 202 160 202 160 233 184.5 c 128,-1,32
 264 209 264 209 307 209 c 2,33,-1
 666 209 l 1,34,35
 604 231 604 231 565 284.5 c 128,-1,36
 526 338 526 338 526 402 c 0,37,38
 526 534 526 534 652 617 c 128,-1,39
 778 700 778 700 937 700 c 0,40,41
 1069 700 1069 700 1169 620.5 c 128,-1,42
 1269 541 1269 541 1269 420 c 0,43,44
 1269 306 1269 306 1213 209 c 1,45,-1
 1364 209 l 1,46,-1
 1463 700 l 1,47,-1
 1603 700 l 1,48,-1
 1414 -245 l 1,21,-1
989 620 m 1,49,50
 1042 530 1042 530 1042 411 c 0,51,52
 1042 267 1042 267 919 209 c 1,53,-1
 1077 209 l 1,54,55
 1146 308 1146 308 1146 402 c 0,56,57
 1146 486 1146 486 1103 553 c 128,-1,58
 1060 620 1060 620 989 620 c 1,49,50
EndSplineSet
EndChar

StartChar: tm_nine
Encoding: 3055 3055 104
Width: 1427
GlyphClass: 2
Flags: W
LayerCount: 2
Fore
SplineSet
692 316 m 1,0,-1
 422 316 l 2,1,2
 379 316 379 316 348 291 c 128,-1,3
 317 266 317 266 317 228 c 0,4,5
 317 158 317 158 387 114 c 128,-1,6
 457 70 457 70 544 70 c 0,7,8
 589 70 589 70 622 99.5 c 128,-1,9
 655 129 655 129 665 175 c 2,10,-1
 692 316 l 1,0,-1
756 630 m 1,11,-1
 562 630 l 1,12,-1
 513 386 l 1,13,-1
 707 386 l 1,14,-1
 756 630 l 1,11,-1
1157 175 m 0,15,16
 1157 259 1157 259 1052 298 c 1,17,18
 982 240 982 240 982 158 c 0,19,20
 982 121 982 121 1007.5 95.5 c 128,-1,21
 1033 70 1033 70 1068 70 c 0,22,23
 1107 70 1107 70 1132 101.5 c 128,-1,24
 1157 133 1157 133 1157 175 c 0,15,16
1297 0 m 1,25,26
 1375 93 1375 93 1375 193 c 0,27,28
 1375 263 1375 263 1332.5 315.5 c 128,-1,29
 1290 368 1290 368 1226 368 c 0,30,31
 1163 368 1163 368 1113 342 c 1,32,33
 1167 322 1167 322 1201 276.5 c 128,-1,34
 1235 231 1235 231 1235 175 c 0,35,36
 1235 104 1235 104 1187 52 c 128,-1,37
 1139 0 1139 0 1068 0 c 0,38,39
 1005 0 1005 0 958.5 46.5 c 128,-1,40
 912 93 912 93 912 158 c 0,41,42
 912 257 912 257 982 316 c 1,43,-1
 833 316 l 1,44,-1
 819 245 l 2,45,46
 795 125 795 125 718.5 62.5 c 128,-1,47
 642 0 642 0 544 0 c 0,48,49
 428 0 428 0 337 64 c 128,-1,50
 246 128 246 128 246 228 c 0,51,52
 246 294 246 294 299 340 c 128,-1,53
 352 386 352 386 422 386 c 2,54,-1
 446 386 l 1,55,-1
 508 700 l 1,56,-1
 1122 700 l 1,57,-1
 1104 630 l 1,58,-1
 896 630 l 1,59,-1
 847 386 l 1,60,-1
 947 386 l 2,61,62
 1014 386 1014 386 1052 368 c 1,63,64
 1111 420 1111 420 1226 420 c 0,65,66
 1327 420 1327 420 1399.5 354.5 c 128,-1,67
 1472 289 1472 289 1472 193 c 0,68,69
 1472 109 1472 109 1410 0 c 1,70,-1
 1297 0 l 1,25,26
EndSplineSet
EndChar

StartChar: tm_ten
Encoding: 3056 3056 105
Width: 1260
GlyphClass: 2
Flags: W
LayerCount: 2
Fore
SplineSet
597 149 m 1,0,1
 558 74 558 74 508 37 c 128,-1,2
 458 0 458 0 395 0 c 0,3,4
 302 0 302 0 242 64 c 128,-1,5
 182 128 182 128 182 200 c 0,6,7
 182 224 182 224 186 244 c 2,8,-1
 279 700 l 1,9,-1
 419 700 l 1,10,-1
 325 244 l 2,11,12
 320 223 320 223 320 205 c 0,13,14
 320 155 320 155 346.5 112.5 c 128,-1,15
 373 70 373 70 413 70 c 0,16,17
 472 70 472 70 525 146 c 128,-1,18
 578 222 578 222 606 359 c 2,19,-1
 675 700 l 1,20,-1
 815 700 l 1,21,-1
 746 351 l 2,22,23
 728 262 728 262 728 204 c 0,24,25
 728 150 728 150 760.5 110 c 128,-1,26
 793 70 793 70 841 70 c 0,27,28
 957 70 957 70 1026 204 c 128,-1,29
 1095 338 1095 338 1095 500 c 0,30,31
 1095 691 1095 691 995.5 840 c 128,-1,32
 896 989 896 989 737 989 c 1,33,-1
 755 1042 l 1,34,35
 960 1042 960 1042 1097.5 880.5 c 128,-1,36
 1235 719 1235 719 1235 500 c 0,37,38
 1235 300 1235 300 1118.5 150 c 128,-1,39
 1002 0 1002 0 824 0 c 0,40,41
 739 0 739 0 673.5 40.5 c 128,-1,42
 608 81 608 81 597 149 c 1,0,1
EndSplineSet
EndChar

StartChar: tm_hundred
Encoding: 3057 3057 106
Width: 1166
GlyphClass: 2
Flags: W
LayerCount: 2
Fore
SplineSet
1284 700 m 1,0,-1
 1267 629 l 1,1,-1
 1117 629 l 1,2,-1
 991 0 l 1,3,-1
 851 0 l 1,4,-1
 977 629 l 1,5,-1
 770 629 l 1,6,-1
 644 0 l 1,7,-1
 504 0 l 1,8,-1
 599 472 l 2,9,10
 606 507 606 507 606 534 c 0,11,12
 606 579 606 579 589 613 c 128,-1,13
 572 647 572 647 540 647 c 0,14,15
 483 647 483 647 440 595.5 c 128,-1,16
 397 544 397 544 382 472 c 2,17,-1
 285 0 l 1,18,-1
 146 0 l 1,19,-1
 242 472 l 2,20,21
 263 577 263 577 336.5 647 c 128,-1,22
 410 717 410 717 503 717 c 0,23,24
 567 717 567 717 614 679.5 c 128,-1,25
 661 642 661 642 661 585 c 1,26,-1
 685 700 l 1,27,-1
 1284 700 l 1,0,-1
EndSplineSet
EndChar

StartChar: tm_thousand
Encoding: 3058 3058 107
Width: 1256
GlyphClass: 2
Flags: W
LayerCount: 2
Fore
SplineSet
551 316 m 1,0,-1
 280 316 l 2,1,2
 237 316 237 316 206 291 c 128,-1,3
 175 266 175 266 175 228 c 0,4,5
 175 158 175 158 245.5 114 c 128,-1,6
 316 70 316 70 402 70 c 0,7,8
 447 70 447 70 480 99.5 c 128,-1,9
 513 129 513 129 523 175 c 2,10,-1
 551 316 l 1,0,-1
615 630 m 1,11,-1
 420 630 l 1,12,-1
 371 386 l 1,13,-1
 565 386 l 1,14,-1
 615 630 l 1,11,-1
677 245 m 2,15,16
 653 125 653 125 576 62.5 c 128,-1,17
 499 0 499 0 402 0 c 0,18,19
 285 0 285 0 195 64 c 128,-1,20
 105 128 105 128 105 228 c 0,21,22
 105 294 105 294 156.5 340 c 128,-1,23
 208 386 208 386 280 386 c 2,24,-1
 304 386 l 1,25,-1
 367 700 l 1,26,-1
 997 700 l 1,27,-1
 983 630 l 1,28,-1
 755 630 l 1,29,-1
 705 386 l 1,30,-1
 1120 386 l 1,31,-1
 1105 316 l 1,32,-1
 971 316 l 1,33,-1
 945 175 l 1,34,35
 990 228 990 228 1067 228 c 0,36,37
 1134 228 1134 228 1179.5 176 c 128,-1,38
 1225 124 1225 124 1225 53 c 0,39,40
 1225 -78 1225 -78 1108 -161 c 128,-1,41
 991 -244 991 -244 840 -244 c 0,42,43
 740 -244 740 -244 542 -205 c 0,44,45
 346 -167 346 -167 244 -167 c 0,46,47
 181 -167 181 -167 134 -206.5 c 128,-1,48
 87 -246 87 -246 87 -307 c 0,49,50
 87 -384 87 -384 158 -411 c 1,51,-1
 149 -445 l 1,52,53
 82 -433 82 -433 36.5 -387 c 128,-1,54
 -9 -341 -9 -341 -9 -280 c 0,55,56
 -9 -205 -9 -205 70.5 -159.5 c 128,-1,57
 150 -114 150 -114 244 -114 c 0,58,59
 346 -114 346 -114 542 -153 c 0,60,61
 740 -192 740 -192 840 -192 c 0,62,63
 938 -192 938 -192 1011.5 -135 c 128,-1,64
 1085 -78 1085 -78 1085 9 c 0,65,66
 1085 61 1085 61 1061 100.5 c 128,-1,67
 1037 140 1037 140 997 140 c 256,68,69
 957 140 957 140 927 88 c 1,70,-1
 910 0 l 1,71,-1
 769 0 l 1,72,-1
 831 316 l 1,73,-1
 691 316 l 1,74,-1
 677 245 l 2,15,16
EndSplineSet
EndChar

StartChar: zerowidthnonjoiner
Encoding: 8204 8204 108
Width: 0
GlyphClass: 2
Flags: W
LayerCount: 2
Fore
SplineSet
315 1225 m 1,0,-1
 -34 -516 l 1,1,-1
 -103 -516 l 1,2,-1
 244 1225 l 1,3,-1
 315 1225 l 1,0,-1
EndSplineSet
EndChar

StartChar: zerowidthjoiner
Encoding: 8205 8205 109
Width: 0
GlyphClass: 2
Flags: W
LayerCount: 2
Fore
SplineSet
415 997 m 1,0,-1
 363 953 l 1,1,-1
 270 1073 l 1,2,-1
 -24 -441 l 1,3,-1
 -87 -441 l 1,4,-1
 206 1073 l 1,5,-1
 65 953 l 1,6,-1
 32 997 l 1,7,-1
 210 1145 l 1,8,-1
 89 1292 l 1,9,-1
 140 1334 l 1,10,-1
 260 1185 l 1,11,-1
 437 1334 l 1,12,-1
 472 1292 l 1,13,-1
 294 1145 l 1,14,-1
 415 997 l 1,0,-1
EndSplineSet
EndChar

StartChar: u2013
Encoding: 8211 8211 110
Width: 722
GlyphClass: 2
Flags: W
LayerCount: 2
Fore
SplineSet
733 319 m 1,0,-1
 -12 319 l 1,1,-1
 -12 370 l 1,2,-1
 733 370 l 1,3,-1
 733 319 l 1,0,-1
EndSplineSet
EndChar

StartChar: u2014
Encoding: 8212 8212 111
Width: 1284
GlyphClass: 2
Flags: W
LayerCount: 2
Fore
SplineSet
1296 318 m 1,0,-1
 -13 319 l 1,1,-1
 -13 371 l 1,2,-1
 1296 370 l 1,3,-1
 1296 318 l 1,0,-1
EndSplineSet
EndChar

StartChar: u2018
Encoding: 8216 8216 112
Width: 512
GlyphClass: 2
Flags: W
LayerCount: 2
Fore
SplineSet
482 722 m 0,0,1
 482 632 482 632 408.5 577 c 128,-1,2
 335 522 335 522 232 522 c 0,3,4
 27 522 27 522 27 712 c 0,5,6
 27 850 27 850 144.5 971 c 128,-1,7
 262 1092 262 1092 362 1092 c 0,8,9
 407 1092 407 1092 407 1047 c 256,10,11
 407 1002 407 1002 380 1000 c 0,12,13
 332 1000 332 1000 265 947 c 0,14,15
 212 902 212 902 190 857 c 1,16,-1
 327 882 l 1,17,18
 395 882 395 882 438.5 834.5 c 128,-1,19
 482 787 482 787 482 722 c 0,0,1
EndSplineSet
EndChar

StartChar: u2019
Encoding: 8217 8217 113
Width: 477
GlyphClass: 2
Flags: W
LayerCount: 2
Fore
SplineSet
467 832 m 0,0,1
 467 695 467 695 349.5 573.5 c 128,-1,2
 232 452 232 452 132 452 c 0,3,4
 87 452 87 452 87 497 c 256,5,6
 87 542 87 542 115 545 c 0,7,8
 162 545 162 545 230 597 c 1,9,10
 282 642 282 642 305 687 c 1,11,-1
 167 662 l 1,12,13
 100 662 100 662 56 709.5 c 128,-1,14
 12 757 12 757 12 822 c 0,15,16
 12 917 12 917 86 969.5 c 128,-1,17
 160 1022 160 1022 262 1022 c 0,18,19
 467 1022 467 1022 467 832 c 0,0,1
EndSplineSet
EndChar

StartChar: u2026
Encoding: 8230 8230 116
Width: 1283
GlyphClass: 2
Flags: W
LayerCount: 2
Fore
SplineSet
265 136 m 0,0,1
 298 136 298 136 320.5 114 c 128,-1,2
 343 92 343 92 343 58 c 0,3,4
 343 26 343 26 320.5 3 c 128,-1,5
 298 -20 298 -20 265 -20 c 0,6,7
 233 -20 233 -20 210 3 c 128,-1,8
 187 26 187 26 187 58 c 0,9,10
 187 92 187 92 210 114 c 128,-1,11
 233 136 233 136 265 136 c 0,0,1
638 136 m 256,12,13
 670 136 670 136 693 114 c 128,-1,14
 716 92 716 92 716 58 c 0,15,16
 716 26 716 26 692.5 3 c 128,-1,17
 669 -20 669 -20 638 -20 c 0,18,19
 606 -20 606 -20 583 3 c 128,-1,20
 560 26 560 26 560 58 c 0,21,22
 560 92 560 92 583 114 c 128,-1,23
 606 136 606 136 638 136 c 256,12,13
1010 136 m 0,24,25
 1043 136 1043 136 1066 114 c 128,-1,26
 1089 92 1089 92 1089 58 c 0,27,28
 1089 26 1089 26 1065.5 3 c 128,-1,29
 1042 -20 1042 -20 1010 -20 c 256,30,31
 978 -20 978 -20 955.5 3 c 128,-1,32
 933 26 933 26 933 58 c 0,33,34
 933 92 933 92 955.5 114 c 128,-1,35
 978 136 978 136 1010 136 c 0,24,25
EndSplineSet
EndChar

StartChar: u2212
Encoding: 8722 8722 117
Width: 974
GlyphClass: 2
Flags: W
LayerCount: 2
Fore
SplineSet
133 450 m 1,0,-1
 133 508 l 1,1,-1
 894 508 l 1,2,-1
 894 450 l 1,3,-1
 133 450 l 1,0,-1
EndSplineSet
EndChar

StartChar: u25CC
Encoding: 9676 9676 118
Width: 1167
GlyphClass: 2
Flags: W
LayerCount: 2
Fore
SplineSet
654 665 m 0,0,1
 626 665 626 665 612 679 c 128,-1,2
 598 693 598 693 598 724 c 0,3,4
 598 746 598 746 615 762.5 c 128,-1,5
 632 779 632 779 654 779 c 0,6,7
 683 779 683 779 697.5 765 c 128,-1,8
 712 751 712 751 712 724 c 0,9,10
 712 693 712 693 697.5 679 c 128,-1,11
 683 665 683 665 654 665 c 0,0,1
840 616 m 0,12,13
 811 616 811 616 796.5 630.5 c 128,-1,14
 782 645 782 645 782 674 c 0,15,16
 782 701 782 701 796.5 715 c 128,-1,17
 811 729 811 729 840 729 c 0,18,19
 862 729 862 729 879 713 c 128,-1,20
 896 697 896 697 896 674 c 0,21,22
 896 645 896 645 882 630.5 c 128,-1,23
 868 616 868 616 840 616 c 0,12,13
470 616 m 0,24,25
 442 616 442 616 428 630.5 c 128,-1,26
 414 645 414 645 414 674 c 0,27,28
 414 697 414 697 431 713 c 128,-1,29
 448 729 448 729 470 729 c 0,30,31
 494 729 494 729 510 713 c 128,-1,32
 526 697 526 697 526 674 c 0,33,34
 526 645 526 645 512.5 630.5 c 128,-1,35
 499 616 499 616 470 616 c 0,24,25
973 482 m 0,36,37
 951 482 951 482 933.5 498 c 128,-1,38
 916 514 916 514 916 538 c 0,39,40
 916 567 916 567 930.5 581 c 128,-1,41
 945 595 945 595 973 595 c 256,42,43
 1001 595 1001 595 1014.5 581 c 128,-1,44
 1028 567 1028 567 1028 538 c 0,45,46
 1028 514 1028 514 1012 498 c 128,-1,47
 996 482 996 482 973 482 c 0,36,37
336 482 m 0,48,49
 307 482 307 482 293 495.5 c 128,-1,50
 279 509 279 509 279 538 c 256,51,52
 279 567 279 567 293 581 c 128,-1,53
 307 595 307 595 336 595 c 0,54,55
 364 595 364 595 378 581 c 128,-1,56
 392 567 392 567 392 538 c 0,57,58
 392 514 392 514 375 498 c 128,-1,59
 358 482 358 482 336 482 c 0,48,49
1024 298 m 0,60,61
 994 298 994 298 979.5 311.5 c 128,-1,62
 965 325 965 325 965 354 c 0,63,64
 965 382 965 382 979.5 396 c 128,-1,65
 994 410 994 410 1024 410 c 0,66,67
 1046 410 1046 410 1063 393 c 128,-1,68
 1080 376 1080 376 1080 354 c 0,69,70
 1080 331 1080 331 1063 314.5 c 128,-1,71
 1046 298 1046 298 1024 298 c 0,60,61
287 298 m 0,72,73
 257 298 257 298 243 311.5 c 128,-1,74
 229 325 229 325 229 354 c 0,75,76
 229 382 229 382 243 396 c 128,-1,77
 257 410 257 410 287 410 c 0,78,79
 310 410 310 410 326.5 393 c 128,-1,80
 343 376 343 376 343 354 c 0,81,82
 343 331 343 331 326.5 314.5 c 128,-1,83
 310 298 310 298 287 298 c 0,72,73
973 112 m 256,84,85
 945 112 945 112 930.5 126.5 c 128,-1,86
 916 141 916 141 916 169 c 0,87,88
 916 193 916 193 933.5 209.5 c 128,-1,89
 951 226 951 226 973 226 c 0,90,91
 996 226 996 226 1012 209.5 c 128,-1,92
 1028 193 1028 193 1028 169 c 0,93,94
 1028 141 1028 141 1014.5 126.5 c 128,-1,95
 1001 112 1001 112 973 112 c 256,84,85
336 112 m 0,96,97
 307 112 307 112 293 126.5 c 128,-1,98
 279 141 279 141 279 169 c 0,99,100
 279 198 279 198 293 212 c 128,-1,101
 307 226 307 226 336 226 c 0,102,103
 358 226 358 226 375 209.5 c 128,-1,104
 392 193 392 193 392 169 c 0,105,106
 392 141 392 141 378 126.5 c 128,-1,107
 364 112 364 112 336 112 c 0,96,97
840 -22 m 0,108,109
 811 -22 811 -22 796.5 -8 c 128,-1,110
 782 6 782 6 782 34 c 0,111,112
 782 63 782 63 796.5 78 c 128,-1,113
 811 93 811 93 840 93 c 0,114,115
 863 93 863 93 879.5 75 c 128,-1,116
 896 57 896 57 896 34 c 256,117,118
 896 11 896 11 879 -5.5 c 128,-1,119
 862 -22 862 -22 840 -22 c 0,108,109
470 -22 m 0,120,121
 448 -22 448 -22 431 -5.5 c 128,-1,122
 414 11 414 11 414 34 c 256,123,124
 414 57 414 57 430.5 75 c 128,-1,125
 447 93 447 93 470 93 c 0,126,127
 495 93 495 93 510.5 75 c 128,-1,128
 526 57 526 57 526 34 c 256,129,130
 526 11 526 11 510 -5.5 c 128,-1,131
 494 -22 494 -22 470 -22 c 0,120,121
654 -72 m 0,132,133
 632 -72 632 -72 615 -55 c 128,-1,134
 598 -38 598 -38 598 -16 c 0,135,136
 598 14 598 14 612 28.5 c 128,-1,137
 626 43 626 43 654 43 c 0,138,139
 683 43 683 43 697.5 28.5 c 128,-1,140
 712 14 712 14 712 -16 c 0,141,142
 712 -44 712 -44 697.5 -58 c 128,-1,143
 683 -72 683 -72 654 -72 c 0,132,133
EndSplineSet
EndChar

StartChar: tm_k_ikaar
Encoding: 65540 -1 119
Width: 1230
GlyphClass: 2
Flags: W
LayerCount: 2
Fore
SplineSet
1190 390 m 0,0,1
 1190 220 1190 220 1068.5 98.5 c 128,-1,2
 947 -23 947 -23 785 -23 c 0,3,4
 690 -23 690 -23 602 30 c 1,5,6
 507 -30 507 -30 395 -30 c 0,7,8
 262 -30 262 -30 171 50 c 128,-1,9
 80 130 80 130 80 267 c 0,10,11
 80 367 80 367 142 447 c 1,12,13
 35 540 35 540 35 650 c 0,14,15
 35 817 35 817 217 907 c 0,16,17
 335 962 335 962 475 962 c 0,18,19
 490 962 490 962 533.5 959.5 c 128,-1,20
 577 957 577 957 671 948.5 c 128,-1,21
 765 940 765 940 790 942 c 1,22,23
 500 1025 500 1025 500 1180 c 0,24,25
 500 1260 500 1260 585 1312 c 0,26,27
 622 1332 622 1332 662 1342 c 128,-1,28
 702 1352 702 1352 755 1352 c 0,29,30
 920 1352 920 1352 1027 1275 c 0,31,32
 1152 1185 1152 1185 1152 995 c 1,33,-1
 1147 915 l 1,34,-1
 1142 832 l 2,35,36
 1142 782 1142 782 1165 755 c 1,37,-1
 1115 747 l 1,38,39
 1057 747 1057 747 1005 785 c 0,40,41
 957 825 957 825 957 900 c 1,42,-1
 960 955 l 1,43,-1
 965 1012 l 1,44,45
 965 1242 965 1242 835 1242 c 256,46,47
 705 1242 705 1242 705 1120 c 0,48,49
 705 995 705 995 830 995 c 1,50,-1
 857 992 l 1,51,52
 867 1007 867 1007 880 1012 c 1,53,54
 915 982 915 982 915 912 c 0,55,56
 915 805 915 805 777 805 c 0,57,58
 737 805 737 805 717 807.5 c 128,-1,59
 697 810 697 810 650 825 c 1,60,-1
 512 852 l 1,61,-1
 607 700 l 1,62,63
 840 760 840 760 967 760 c 0,64,65
 997 760 997 760 1010 757 c 1,66,67
 1190 645 1190 645 1190 390 c 0,0,1
370 617 m 1,68,69
 357 655 357 655 337 688.5 c 128,-1,70
 317 722 317 722 275 782 c 1,71,72
 202 730 202 730 202 605 c 0,73,74
 202 550 202 550 222 527 c 1,75,76
 290 580 290 580 370 617 c 1,68,69
932 360 m 0,77,78
 932 550 932 550 815 627 c 1,79,80
 765 627 765 627 742.5 622 c 128,-1,81
 720 617 720 617 657 600 c 1,82,83
 747 405 747 405 747 280 c 0,84,85
 747 167 747 167 665 80 c 1,86,87
 690 67 690 67 720 62 c 1,88,89
 795 62 795 62 863.5 146 c 128,-1,90
 932 230 932 230 932 360 c 0,77,78
507 230 m 0,91,92
 507 365 507 365 430 512 c 1,93,94
 312 445 312 445 312 257 c 0,95,96
 312 185 312 185 338.5 128.5 c 128,-1,97
 365 72 365 72 410 72 c 0,98,99
 507 72 507 72 507 230 c 0,91,92
EndSplineSet
Ligature2: "'psts' Post Base Substitutions lookup 8 subtable" tm_ka tm_ikaar
EndChar

StartChar: tm_ng_ikaar
Encoding: 65541 -1 120
Width: 2252
GlyphClass: 2
Flags: W
LayerCount: 2
Fore
SplineSet
2220 -8 m 1,0,1
 2212 -10 2212 -10 2203.5 -14 c 128,-1,2
 2195 -18 2195 -18 2173.5 -33 c 128,-1,3
 2152 -48 2152 -48 2127 -48 c 0,4,5
 1885 -48 1885 -48 1885 247 c 0,6,7
 1885 322 1885 322 1892 400 c 0,8,9
 1892 410 1892 410 1912 550 c 1,10,-1
 1940 805 l 1,11,12
 1940 972 1940 972 1861 1069.5 c 128,-1,13
 1782 1167 1782 1167 1652 1167 c 0,14,15
 1527 1167 1527 1167 1457 1105 c 0,16,17
 1397 1052 1397 1052 1397 975 c 0,18,19
 1397 915 1397 915 1412 892 c 2,20,-1
 1413 890 l 1,21,22
 1462 947 1462 947 1565 947 c 0,23,24
 1667 947 1667 947 1712 910 c 1,25,26
 1650 862 1650 862 1650 817 c 0,27,28
 1650 712 1650 712 1690 510 c 1,29,-1
 1730 267 l 1,30,31
 1730 125 1730 125 1653.5 45 c 128,-1,32
 1577 -35 1577 -35 1450 -35 c 0,33,34
 1385 -35 1385 -35 1296 -11.5 c 128,-1,35
 1207 12 1207 12 1185 12 c 0,36,37
 1110 12 1110 12 1075 -30 c 0,38,39
 1060 -45 1060 -45 1042 -45 c 0,40,41
 1030 -45 1030 -45 1010 -38 c 0,42,43
 917 7 917 7 897 60 c 1,44,-1
 885 102 l 1,45,46
 885 117 885 117 935 135 c 1,47,48
 995 150 995 150 1025 172 c 0,49,50
 1072 212 1072 212 1072 290 c 0,51,52
 1072 377 1072 377 1026 428.5 c 128,-1,53
 980 480 980 480 905 480 c 0,54,55
 750 480 750 480 750 250 c 0,56,57
 750 47 750 47 850 37 c 1,58,59
 815 -28 815 -28 660 -28 c 0,60,61
 520 -28 520 -28 470 130 c 1,62,63
 445 225 445 225 445 437 c 0,64,65
 445 602 445 602 505 825 c 1,66,67
 447 840 447 840 380 840 c 0,68,69
 282 840 282 840 222 787 c 1,70,71
 167 732 167 732 167 645 c 0,72,73
 167 517 167 517 237 338.5 c 128,-1,74
 307 160 307 160 307 102 c 0,75,76
 307 50 307 50 279.5 11 c 128,-1,77
 252 -28 252 -28 210 -28 c 0,78,79
 160 -28 160 -28 110 2 c 0,80,81
 67 32 67 32 67 77 c 1,82,83
 157 65 157 65 157 145 c 0,84,85
 157 205 157 205 97 362.5 c 128,-1,86
 37 520 37 520 37 652 c 0,87,88
 37 797 37 797 152 876 c 128,-1,89
 267 955 267 955 462 955 c 0,90,91
 610 955 610 955 740 931 c 2,92,-1
 870 907 l 1,93,94
 992 907 992 907 1037 975 c 1,95,96
 1120 975 1120 975 1120 885 c 0,97,98
 1120 785 1120 785 972 785 c 0,99,100
 882 785 882 785 792 832 c 1,101,102
 765 782 765 782 750 706 c 128,-1,103
 735 630 735 630 735 515 c 1,104,105
 825 650 825 650 1045 650 c 0,106,107
 1157 650 1157 650 1232 573.5 c 128,-1,108
 1307 497 1307 497 1307 375 c 0,109,110
 1307 290 1307 290 1281 248.5 c 128,-1,111
 1255 207 1255 207 1147 115 c 1,112,-1
 1187 120 l 1,113,-1
 1230 125 l 1,114,-1
 1280 115 l 1,115,-1
 1332 105 l 1,116,117
 1467 105 1467 105 1467 240 c 0,118,119
 1467 315 1467 315 1418.5 505 c 128,-1,120
 1370 695 1370 695 1370 745 c 0,121,122
 1370 753 1370 753 1370 761 c 1,123,124
 1120 776 1120 776 1120 992 c 0,125,126
 1120 1310 1120 1310 1535 1310 c 0,127,128
 1812 1310 1812 1310 1975 1140 c 0,129,130
 2130 980 2130 980 2130 730 c 0,131,132
 2130 595 2130 595 2115 432 c 1,133,-1
 2100 207 l 1,134,135
 2100 30 2100 30 2220 -8 c 1,0,1
EndSplineSet
Ligature2: "'psts' Post Base Substitutions lookup 8 subtable" tm_nga tm_ikaar
EndChar

StartChar: tm_c_ikaar
Encoding: 65542 -1 121
Width: 1330
GlyphClass: 2
Flags: W
LayerCount: 2
Fore
SplineSet
1307 5 m 1,0,1
 1285 -10 1285 -10 1246 -21.5 c 128,-1,2
 1207 -33 1207 -33 1165 -33 c 1,3,4
 1075 5 1075 5 1040 40 c 0,5,6
 980 107 980 107 980 255 c 0,7,8
 980 342 980 342 1025 635 c 0,9,10
 1047 785 1047 785 1059.5 866 c 128,-1,11
 1072 947 1072 947 1072 977 c 0,12,13
 1072 1262 1072 1262 877 1262 c 0,14,15
 825 1262 825 1262 785 1218.5 c 128,-1,16
 745 1175 745 1175 745 1115 c 0,17,18
 745 1070 745 1070 785 1027 c 1,19,-1
 602 1027 l 1,20,21
 522 1072 522 1072 522 1165 c 0,22,23
 522 1262 522 1262 615 1322 c 0,24,25
 692 1372 692 1372 805 1372 c 0,26,27
 1037 1372 1037 1372 1160 1232 c 0,28,29
 1262 1110 1262 1110 1262 915 c 0,30,31
 1262 782 1262 782 1226 562 c 128,-1,32
 1190 342 1190 342 1190 225 c 0,33,34
 1190 135 1190 135 1208.5 82.5 c 128,-1,35
 1227 30 1227 30 1307 5 c 1,0,1
985 622 m 0,36,37
 985 577 985 577 950 549.5 c 128,-1,38
 915 522 915 522 865 522 c 0,39,40
 825 522 825 522 781 529.5 c 128,-1,41
 737 537 737 537 710 542 c 1,42,43
 747 470 747 470 767 408.5 c 128,-1,44
 787 347 787 347 787 292 c 0,45,46
 787 142 787 142 676 56 c 128,-1,47
 565 -30 565 -30 375 -30 c 0,48,49
 237 -30 237 -30 150 42 c 1,50,51
 52 117 52 117 52 260 c 0,52,53
 52 375 52 375 127 470 c 1,54,55
 32 557 32 557 32 680 c 0,56,57
 32 797 32 797 154.5 873.5 c 128,-1,58
 277 950 277 950 442 950 c 0,59,60
 530 950 530 950 620 940 c 1,61,-1
 772 930 l 1,62,63
 837 930 837 930 862 955 c 128,-1,64
 887 980 887 980 912 985 c 1,65,66
 965 985 965 985 965 920 c 0,67,68
 965 865 965 865 905 827 c 0,69,70
 855 797 855 797 787 797 c 0,71,72
 765 797 765 797 751 799.5 c 128,-1,73
 737 802 737 802 680 815 c 2,74,-1
 555 837 l 1,75,76
 565 787 565 787 645 655 c 1,77,78
 675 655 675 655 760 660 c 128,-1,79
 845 665 845 665 872 665 c 1,80,81
 917 672 917 672 917 702 c 1,82,-1
 910 732 l 1,83,84
 985 725 985 725 985 622 c 0,36,37
392 615 m 1,85,86
 330 750 330 750 292 812 c 1,87,-1
 212 717 l 1,88,89
 185 670 185 670 185 607 c 0,90,91
 185 567 185 567 207 537 c 1,92,93
 280 582 280 582 392 615 c 1,85,86
517 257 m 0,94,95
 517 327 517 327 440 512 c 1,96,97
 305 417 305 417 305 247 c 0,98,99
 305 180 305 180 332.5 126 c 128,-1,100
 360 72 360 72 405 72 c 0,101,102
 517 72 517 72 517 257 c 0,94,95
EndSplineSet
Ligature2: "'psts' Post Base Substitutions lookup 8 subtable" tm_ca tm_ikaar
EndChar

StartChar: tm_j_ikaar
Encoding: 65543 -1 122
Width: 1930
GlyphClass: 2
Flags: W
LayerCount: 2
Fore
SplineSet
1895 -28 m 1,0,1
 1850 -45 1850 -45 1767 -45 c 0,2,3
 1560 -45 1560 -45 1560 260 c 0,4,5
 1560 412 1560 412 1615 682 c 128,-1,6
 1670 952 1670 952 1670 1015 c 0,7,8
 1670 1110 1670 1110 1626 1182.5 c 128,-1,9
 1582 1255 1582 1255 1500 1255 c 0,10,11
 1405 1255 1405 1255 1350 1202.5 c 128,-1,12
 1295 1150 1295 1150 1295 1065 c 0,13,14
 1295 990 1295 990 1357 910 c 1,15,16
 1497 835 1497 835 1497 675 c 0,17,18
 1497 522 1497 522 1317 432 c 1,19,20
 1512 372 1512 372 1512 212 c 0,21,22
 1512 97 1512 97 1387 17 c 0,23,24
 1332 -20 1332 -20 1274.5 -40 c 128,-1,25
 1217 -60 1217 -60 1160 -60 c 0,26,27
 952 -60 952 -60 817 52 c 1,28,29
 665 -55 665 -55 455 -55 c 0,30,31
 305 -55 305 -55 185 17.5 c 128,-1,32
 65 90 65 90 65 210 c 0,33,34
 65 362 65 362 202 432 c 1,35,36
 52 477 52 477 52 622 c 0,37,38
 52 787 52 787 202 877 c 0,39,40
 335 957 335 957 535 957 c 0,41,42
 822 957 822 957 905 850 c 1,43,44
 980 952 980 952 1180 952 c 2,45,-1
 1190 952 l 1,46,47
 1140 990 1140 990 1117 1017 c 1,48,49
 1090 1060 1090 1060 1090 1135 c 0,50,51
 1090 1355 1090 1355 1452 1355 c 0,52,53
 1622 1355 1622 1355 1747 1217.5 c 128,-1,54
 1872 1080 1872 1080 1872 877 c 0,55,56
 1872 757 1872 757 1833.5 513.5 c 128,-1,57
 1795 270 1795 270 1795 160 c 0,58,59
 1795 12 1795 12 1895 -28 c 1,0,1
1215 697 m 0,60,61
 1215 772 1215 772 1202 795 c 0,62,63
 1182 832 1182 832 1120 832 c 0,64,65
 965 832 965 832 965 627 c 0,66,67
 965 607 965 607 992 537 c 1,68,69
 992 517 992 517 947 502 c 0,70,71
 927 497 927 497 903.5 497 c 128,-1,72
 880 497 880 497 865 497 c 0,73,74
 820 497 820 497 795 502 c 128,-1,75
 770 507 770 507 752 515 c 0,76,77
 700 537 700 537 700 620 c 2,78,-1
 700 647 l 2,79,80
 700 747 700 747 687 775 c 1,81,82
 665 850 665 850 560 850 c 256,83,84
 455 850 455 850 395 782 c 1,85,86
 425 790 425 790 495 790 c 0,87,88
 545 790 545 790 592 750 c 0,89,90
 652 700 652 700 652 615 c 0,91,92
 652 537 652 537 575 475 c 1,93,-1
 877 460 l 1,94,-1
 897 452 l 2,95,96
 907 447 907 447 932 447 c 0,97,98
 952 447 952 447 990 470 c 1,99,-1
 1122 530 l 1,100,101
 1215 592 1215 592 1215 697 c 0,60,61
417 615 m 0,102,103
 417 662 417 662 417 664.5 c 128,-1,104
 417 667 417 667 420 667 c 1,105,106
 420 695 420 695 385 695 c 0,107,108
 362 695 362 695 330 645 c 1,109,-1
 325 575 l 1,110,111
 325 510 325 510 360 510 c 0,112,113
 380 510 380 510 398.5 542.5 c 128,-1,114
 417 575 417 575 417 615 c 0,102,103
820 370 m 1,115,-1
 732 370 l 1,116,-1
 635 372 l 2,117,118
 520 372 520 372 431 323.5 c 128,-1,119
 342 275 342 275 342 160 c 0,120,121
 342 47 342 47 477 47 c 0,122,123
 557 47 557 47 617 125 c 1,124,-1
 682 245 l 2,125,126
 710 295 710 295 820 370 c 1,115,-1
1225 230 m 0,127,128
 1225 315 1225 315 1142 352 c 1,129,-1
 1057 315 l 2,130,131
 997 290 997 290 952 225 c 1,132,-1
 882 112 l 1,133,134
 912 60 912 60 1022 60 c 0,135,136
 1092 60 1092 60 1152 102 c 0,137,138
 1225 152 1225 152 1225 230 c 0,127,128
EndSplineSet
Ligature2: "'psts' Post Base Substitutions lookup 8 subtable" tm_ja tm_ikaar
EndChar

StartChar: tm_ny_ikaar
Encoding: 65544 -1 123
Width: 2344
GlyphClass: 2
Flags: W
LayerCount: 2
Fore
SplineSet
1982 320 m 0,0,1
 1982 -20 1982 -20 1662 -205 c 0,2,3
 1400 -355 1400 -355 1045 -355 c 0,4,5
 632 -355 632 -355 360 -203 c 0,6,7
 35 -18 35 -18 35 342 c 0,8,9
 35 437 35 437 80 592 c 128,-1,10
 125 747 125 747 125 787 c 0,11,12
 125 805 125 805 92 862 c 1,13,14
 357 817 357 817 357 650 c 0,15,16
 357 615 357 615 349.5 570 c 128,-1,17
 342 525 342 525 322 460 c 0,18,19
 287 332 287 332 287 250 c 0,20,21
 287 -18 287 -18 520 -153 c 0,22,23
 712 -260 712 -260 1022 -260 c 0,24,25
 1305 -260 1305 -260 1512 -133 c 0,26,27
 1742 10 1742 10 1742 260 c 0,28,29
 1742 487 1742 487 1600 487 c 0,30,31
 1457 487 1457 487 1457 265 c 0,32,33
 1457 77 1457 77 1572 55 c 1,34,35
 1510 -3 1510 -3 1342 -3 c 0,36,37
 1147 -3 1147 -3 1147 445 c 0,38,39
 1147 540 1147 540 1162 650 c 2,40,-1
 1195 865 l 1,41,42
 1130 875 1130 875 1103.5 876 c 128,-1,43
 1077 877 1077 877 1062 877 c 0,44,45
 915 877 915 877 822.5 812 c 128,-1,46
 730 747 730 747 707 622 c 1,47,48
 760 682 760 682 875 682 c 0,49,50
 970 682 970 682 1037 597 c 0,51,52
 1100 512 1100 512 1100 400 c 0,53,54
 1100 222 1100 222 996 113.5 c 128,-1,55
 892 5 892 5 730 5 c 0,56,57
 575 5 575 5 491 132.5 c 128,-1,58
 407 260 407 260 407 455 c 0,59,60
 407 725 407 725 607 870 c 0,61,62
 772 990 772 990 1037 990 c 0,63,64
 1180 990 1180 990 1387 965 c 1,65,-1
 1483 956 l 1,66,67
 1442 998 1442 998 1442 1065 c 0,68,69
 1442 1162 1442 1162 1535 1222 c 0,70,71
 1612 1272 1612 1272 1725 1272 c 0,72,73
 2047 1272 2047 1272 2170 1132 c 0,74,75
 2272 1010 2272 1010 2272 815 c 0,76,77
 2272 682 2272 682 2236 462 c 128,-1,78
 2200 242 2200 242 2200 125 c 0,79,80
 2200 35 2200 35 2218.5 -17.5 c 128,-1,81
 2237 -70 2237 -70 2317 -95 c 1,82,83
 2295 -110 2295 -110 2256 -121.5 c 128,-1,84
 2217 -133 2217 -133 2175 -133 c 1,85,86
 2085 -95 2085 -95 2050 -60 c 0,87,88
 1990 7 1990 7 1990 155 c 0,89,90
 1990 242 1990 242 2035 535 c 0,91,92
 2057 685 2057 685 2069.5 766 c 128,-1,93
 2082 847 2082 847 2082 877 c 0,94,95
 2082 1162 2082 1162 1797 1162 c 0,96,97
 1745 1162 1745 1162 1705 1118.5 c 128,-1,98
 1665 1075 1665 1075 1665 1015 c 0,99,100
 1665 977 1665 977 1693 941 c 1,101,102
 1804 949 1804 949 1797 1015 c 1,103,104
 1827 1015 1827 1015 1850 985 c 0,105,106
 1872 962 1872 962 1872 927 c 0,107,108
 1872 812 1872 812 1697 812 c 0,109,110
 1647 812 1647 812 1604.5 817 c 128,-1,111
 1562 822 1562 822 1492 840 c 1,112,113
 1472 757 1472 757 1459.5 681 c 128,-1,114
 1447 605 1447 605 1447 537 c 1,115,116
 1530 650 1530 650 1700 650 c 0,117,118
 1825 650 1825 650 1903.5 555 c 128,-1,119
 1982 460 1982 460 1982 320 c 0,0,1
885 395 m 0,120,121
 885 565 885 565 800 565 c 0,122,123
 732 565 732 565 692 477 c 0,124,125
 662 405 662 405 662 305 c 0,126,127
 662 122 662 122 742 122 c 0,128,129
 815 122 815 122 855 225 c 0,130,131
 885 300 885 300 885 395 c 0,120,121
EndSplineSet
Ligature2: "'psts' Post Base Substitutions lookup 8 subtable" tm_nya tm_ikaar
EndChar

StartChar: tm_tt_ikaar
Encoding: 65545 -1 124
Width: 1410
GlyphClass: 2
Flags: W
LayerCount: 2
Fore
SplineSet
1392 65 m 0,0,1
 1392 22 1392 22 1377 -13 c 1,2,-1
 1322 17 l 1,3,4
 1275 35 1275 35 1212 35 c 1,5,-1
 1055 12 l 1,6,-1
 827 -20 l 1,7,8
 792 -85 792 -85 792 -140 c 0,9,10
 792 -308 792 -308 922 -330 c 1,11,12
 870 -410 870 -410 732 -410 c 0,13,14
 647 -410 647 -410 583.5 -355 c 128,-1,15
 520 -300 520 -300 520 -223 c 0,16,17
 520 -158 520 -158 552 -110 c 1,18,-1
 627 -28 l 1,19,20
 345 -28 345 -28 210 42 c 0,21,22
 35 135 35 135 35 380 c 0,23,24
 35 465 35 465 87 630 c 2,25,-1
 142 815 l 1,26,27
 142 875 142 875 85 915 c 1,28,29
 137 937 137 937 227 937 c 0,30,31
 425 937 425 937 425 765 c 0,32,33
 425 702 425 702 373.5 524.5 c 128,-1,34
 322 347 322 347 322 270 c 0,35,36
 322 62 322 62 530 62 c 1,37,-1
 635 65 l 1,38,-1
 715 137 l 1,39,40
 612 197 612 197 547 317 c 0,41,42
 522 370 522 370 507 428.5 c 128,-1,43
 492 487 492 487 492 547 c 0,44,45
 492 947 492 947 882 947 c 0,46,47
 1025 947 1025 947 1130 857 c 128,-1,48
 1235 767 1235 767 1235 622 c 0,49,50
 1235 482 1235 482 1117 335 c 1,51,-1
 912 115 l 1,52,-1
 1070 182 l 2,53,54
 1155 217 1155 217 1250 217 c 0,55,56
 1310 217 1310 217 1351 169.5 c 128,-1,57
 1392 122 1392 122 1392 65 c 0,0,1
992 672 m 0,58,59
 992 737 992 737 961 787 c 128,-1,60
 930 837 930 837 875 837 c 0,61,62
 745 837 745 837 745 567 c 0,63,64
 745 315 745 315 812 240 c 1,65,66
 992 442 992 442 992 672 c 0,58,59
EndSplineSet
Ligature2: "'psts' Post Base Substitutions lookup 8 subtable" tm_tta tm_ikaar
EndChar

StartChar: tm_nn_ikaar
Encoding: 65546 -1 125
Width: 2732
GlyphClass: 2
Flags: W
LayerCount: 2
Fore
SplineSet
2697 -3 m 1,0,1
 2650 -30 2650 -30 2607 -35 c 1,2,3
 2505 -35 2505 -35 2437 32 c 1,4,5
 2375 102 2375 102 2375 200 c 0,6,7
 2375 327 2375 327 2433.5 629.5 c 128,-1,8
 2492 932 2492 932 2492 1017 c 0,9,10
 2492 1110 2492 1110 2439.5 1185 c 128,-1,11
 2387 1260 2387 1260 2305 1260 c 0,12,13
 2247 1260 2247 1260 2207 1216 c 128,-1,14
 2167 1172 2167 1172 2167 1105 c 0,15,16
 2167 1067 2167 1067 2197 1030 c 1,17,18
 2230 997 2230 997 2270 997 c 1,19,-1
 2305 1005 l 1,20,21
 2340 1005 2340 1005 2340 977 c 0,22,23
 2340 965 2340 965 2325 960 c 2,24,-1
 2275 955 l 1,25,-1
 2217 950 l 1,26,27
 2112 950 2112 950 2028.5 1007.5 c 128,-1,28
 1945 1065 1945 1065 1945 1160 c 0,29,30
 1945 1252 1945 1252 2028.5 1313.5 c 128,-1,31
 2112 1375 2112 1375 2222 1375 c 0,32,33
 2422 1375 2422 1375 2549.5 1252.5 c 128,-1,34
 2677 1130 2677 1130 2677 940 c 0,35,36
 2677 805 2677 805 2632 556 c 128,-1,37
 2587 307 2587 307 2587 202 c 0,38,39
 2587 112 2587 112 2602 82 c 1,40,41
 2617 37 2617 37 2697 -3 c 1,0,1
2415 880 m 0,42,43
 2415 792 2415 792 2280 792 c 0,44,45
 2230 792 2230 792 2172 802 c 1,46,-1
 2125 552 l 2,47,48
 2112 487 2112 487 2104.5 422 c 128,-1,49
 2097 357 2097 357 2097 310 c 0,50,51
 2097 180 2097 180 2116 121 c 128,-1,52
 2135 62 2135 62 2192 22 c 1,53,54
 2117 -8 2117 -8 2020 -8 c 0,55,56
 1820 -8 1820 -8 1820 275 c 0,57,58
 1820 380 1820 380 1850 575 c 2,59,-1
 1887 822 l 1,60,-1
 1782 830 l 1,61,62
 1717 830 1717 830 1652 815 c 1,63,64
 1790 685 1790 685 1790 465 c 0,65,66
 1790 267 1790 267 1690 142 c 0,67,68
 1580 0 1580 0 1377 0 c 0,69,70
 1177 0 1177 0 1130 192 c 1,71,72
 1032 -3 1032 -3 787 -3 c 0,73,74
 625 -3 625 -3 542 120 c 1,75,76
 462 10 462 10 317 10 c 0,77,78
 37 10 37 10 37 420 c 0,79,80
 37 677 37 677 230 832 c 0,81,82
 405 972 405 972 657 972 c 0,83,84
 812 972 812 972 912 930 c 1,85,86
 1035 972 1035 972 1187 972 c 0,87,88
 1372 972 1372 972 1507 910 c 1,89,90
 1575 930 1575 930 1636 940 c 128,-1,91
 1697 950 1697 950 1770 950 c 0,92,93
 1900 950 1900 950 2005 935 c 128,-1,94
 2110 920 2110 920 2252 920 c 0,95,96
 2317 920 2317 920 2345 972 c 1,97,98
 2415 957 2415 957 2415 880 c 0,42,43
1340 830 m 1,99,100
 1280 845 1280 845 1195 845 c 0,101,102
 1120 845 1120 845 1060 827 c 1,103,104
 1130 750 1130 750 1160 627 c 1,105,106
 1220 745 1220 745 1340 830 c 1,99,100
747 845 m 1,107,-1
 670 850 l 1,108,109
 422 850 422 850 325 555 c 1,110,111
 370 577 370 577 407 577 c 0,112,113
 465 577 465 577 517 540 c 1,114,115
 585 730 585 730 747 845 c 1,107,-1
1552 442 m 0,116,117
 1552 640 1552 640 1490 732 c 1,118,119
 1332 597 1332 597 1332 302 c 0,120,121
 1332 232 1332 232 1354.5 174.5 c 128,-1,122
 1377 117 1377 117 1417 115 c 0,123,124
 1485 115 1485 115 1522 222 c 0,125,126
 1552 312 1552 312 1552 442 c 0,116,117
932 460 m 0,127,128
 932 652 932 652 890 740 c 1,129,130
 717 592 717 592 717 272 c 0,131,132
 717 105 717 105 785 105 c 0,133,134
 850 105 850 105 895 235 c 0,135,136
 932 340 932 340 932 460 c 0,127,128
417 345 m 2,137,-1
 417 382 l 2,138,139
 417 405 417 405 412 420 c 0,140,141
 400 452 400 452 357 452 c 0,142,143
 320 452 320 452 282 297 c 1,144,-1
 282 260 l 2,145,146
 282 145 282 145 325 145 c 0,147,148
 367 145 367 145 397 215 c 0,149,150
 407 242 407 242 412 271 c 128,-1,151
 417 300 417 300 417 345 c 2,137,-1
EndSplineSet
Ligature2: "'psts' Post Base Substitutions lookup 8 subtable" tm_nna tm_ikaar
EndChar

StartChar: tm_t_ikaar
Encoding: 65547 -1 126
Width: 1250
GlyphClass: 2
Flags: W
LayerCount: 2
Fore
SplineSet
1212 382 m 0,0,1
 1212 80 1212 80 1035 -53 c 0,2,3
 975 -98 975 -98 856 -133 c 128,-1,4
 737 -168 737 -168 682 -168 c 2,5,-1
 495 -168 l 2,6,7
 397 -168 397 -168 332 -218 c 1,8,9
 270 -273 270 -273 270 -340 c 0,10,11
 270 -368 270 -368 292 -383 c 2,12,-1
 335 -405 l 1,13,14
 310 -445 310 -445 230 -445 c 0,15,16
 195 -445 195 -445 166 -435 c 128,-1,17
 137 -425 137 -425 102 -395 c 0,18,19
 30 -343 30 -343 30 -260 c 0,20,21
 30 -180 30 -180 122 -120 c 1,22,23
 217 -65 217 -65 350 -65 c 1,24,-1
 465 -70 l 1,25,-1
 582 -78 l 1,26,27
 690 -78 690 -78 772.5 -40.5 c 128,-1,28
 855 -3 855 -3 906 89.5 c 128,-1,29
 957 182 957 182 957 290 c 0,30,31
 957 562 957 562 800 645 c 1,32,33
 767 645 767 645 677 620 c 1,34,35
 772 445 772 445 772 262 c 0,36,37
 772 145 772 145 679.5 57.5 c 128,-1,38
 587 -30 587 -30 445 -30 c 0,39,40
 270 -30 270 -30 190 17 c 0,41,42
 82 82 82 82 82 242 c 0,43,44
 82 365 82 365 135 445 c 1,45,46
 37 512 37 512 37 635 c 0,47,48
 37 777 37 777 164.5 863.5 c 128,-1,49
 292 950 292 950 445 950 c 2,50,-1
 557 952 l 1,51,-1
 695 952 l 1,52,53
 495 997 495 997 495 1170 c 0,54,55
 495 1250 495 1250 577 1307 c 1,56,57
 657 1355 657 1355 755 1355 c 0,58,59
 1157 1355 1157 1355 1157 1027 c 0,60,61
 1157 812 1157 812 1180 777 c 1,62,-1
 1117 772 l 1,63,64
 957 772 957 772 957 930 c 1,65,-1
 965 1007 l 1,66,-1
 972 1087 l 1,67,68
 972 1147 972 1147 927 1200 c 0,69,70
 887 1252 887 1252 827 1245 c 0,71,72
 712 1230 712 1230 712 1135 c 0,73,74
 712 1075 712 1075 743.5 1031 c 128,-1,75
 775 987 775 987 835 987 c 1,76,-1
 840 1020 l 1,77,78
 930 1020 930 1020 930 925 c 0,79,80
 930 857 930 857 882 832 c 0,81,82
 860 822 860 822 832.5 821 c 128,-1,83
 805 820 805 820 790 820 c 0,84,85
 740 820 740 820 540 845 c 1,86,87
 547 815 547 815 622 710 c 1,88,89
 832 772 832 772 972 772 c 0,90,91
 1015 772 1015 772 1037 767 c 1,92,93
 1125 715 1125 715 1172 590 c 0,94,95
 1192 532 1192 532 1202 487 c 128,-1,96
 1212 442 1212 442 1212 382 c 0,0,1
392 622 m 1,97,-1
 287 787 l 1,98,99
 207 742 207 742 207 640 c 0,100,101
 207 580 207 580 230 535 c 1,102,-1
 392 622 l 1,97,-1
537 260 m 0,103,104
 537 387 537 387 452 525 c 1,105,106
 337 452 337 452 337 257 c 0,107,108
 337 70 337 70 435 70 c 0,109,110
 537 70 537 70 537 260 c 0,103,104
EndSplineSet
Ligature2: "'psts' Post Base Substitutions lookup 8 subtable" tm_ta tm_ikaar
EndChar

StartChar: tm_n_ikaar
Encoding: 65548 -1 127
Width: 1342
GlyphClass: 2
Flags: W
LayerCount: 2
Fore
SplineSet
1315 577 m 1,0,-1
 1245 577 l 2,1,2
 1202 577 1202 577 1154.5 614.5 c 128,-1,3
 1107 652 1107 652 1101 681 c 128,-1,4
 1095 710 1095 710 1095 745 c 0,5,6
 1095 767 1095 767 1095 793.5 c 128,-1,7
 1095 820 1095 820 1097 850 c 2,8,-1
 1107 987 l 1,9,10
 1107 1190 1107 1190 975 1190 c 0,11,12
 855 1190 855 1190 855 1062 c 0,13,14
 855 1012 855 1012 893.5 978.5 c 128,-1,15
 932 945 932 945 982 945 c 2,16,-1
 1012 947 l 1,17,-1
 1022 987 l 1,18,19
 1075 972 1075 972 1075 897 c 0,20,21
 1075 782 1075 782 962 782 c 0,22,23
 940 782 940 782 882 797 c 2,24,-1
 777 822 l 1,25,26
 725 660 725 660 725 495 c 1,27,28
 792 645 792 645 975 645 c 0,29,30
 1112 645 1112 645 1197 535 c 1,31,32
 1267 435 1267 435 1267 287 c 0,33,34
 1267 60 1267 60 1130 -75 c 0,35,36
 977 -220 977 -220 690 -220 c 0,37,38
 657 -220 657 -220 621 -217.5 c 128,-1,39
 585 -215 585 -215 547 -208 c 2,40,-1
 442 -198 l 1,41,42
 357 -198 357 -198 292 -228 c 0,43,44
 215 -268 215 -268 215 -340 c 0,45,46
 215 -375 215 -375 270 -405 c 1,47,48
 245 -430 245 -430 165 -430 c 0,49,50
 117 -430 117 -430 60 -383 c 0,51,52
 -13 -323 -13 -323 -13 -243 c 0,53,54
 -13 -160 -13 -160 68.5 -110 c 128,-1,55
 150 -60 150 -60 257 -60 c 0,56,57
 352 -60 352 -60 472 -97.5 c 128,-1,58
 592 -135 592 -135 695 -135 c 0,59,60
 792 -135 792 -135 880 -65 c 0,61,62
 1002 37 1002 37 1002 255 c 0,63,64
 1002 470 1002 470 852 470 c 0,65,66
 760 470 760 470 730 332 c 1,67,-1
 732 257 l 1,68,69
 732 55 732 55 835 45 c 1,70,71
 785 -13 785 -13 637 -13 c 0,72,73
 505 -13 505 -13 460 132 c 0,74,75
 450 170 450 170 442.5 243.5 c 128,-1,76
 435 317 435 317 435 412 c 0,77,78
 435 590 435 590 495 842 c 1,79,-1
 380 850 l 1,80,81
 162 850 162 850 162 632 c 0,82,83
 162 550 162 550 232 362.5 c 128,-1,84
 302 175 302 175 302 100 c 0,85,86
 302 45 302 45 267 10 c 128,-1,87
 232 -25 232 -25 185 -25 c 0,88,89
 82 -25 82 -25 60 77 c 1,90,91
 152 77 152 77 152 155 c 0,92,93
 152 200 152 200 92 365 c 128,-1,94
 32 530 32 530 32 625 c 0,95,96
 32 957 32 957 397 957 c 0,97,98
 437 957 437 957 503.5 949.5 c 128,-1,99
 570 942 570 942 677 925 c 2,100,-1
 897 892 l 1,101,-1
 945 895 l 1,102,103
 650 952 650 952 650 1135 c 0,104,105
 650 1217 650 1217 728.5 1258.5 c 128,-1,106
 807 1300 807 1300 910 1300 c 0,107,108
 1297 1300 1297 1300 1297 907 c 0,109,110
 1297 887 1297 887 1294.5 858.5 c 128,-1,111
 1292 830 1292 830 1285 795 c 2,112,-1
 1275 687 l 1,113,114
 1275 635 1275 635 1315 577 c 1,0,-1
EndSplineSet
Ligature2: "'psts' Post Base Substitutions lookup 8 subtable" tm_na tm_ikaar
EndChar

StartChar: tm_nnn_ikaar
Encoding: 65549 -1 128
Width: 2112
GlyphClass: 2
Flags: W
LayerCount: 2
Fore
SplineSet
2067 7 m 1,0,1
 2030 -8 2030 -8 1960 -8 c 0,2,3
 1765 -8 1765 -8 1765 207 c 0,4,5
 1765 332 1765 332 1820 613.5 c 128,-1,6
 1875 895 1875 895 1875 1000 c 0,7,8
 1875 1242 1875 1242 1697 1242 c 0,9,10
 1637 1242 1637 1242 1598.5 1202 c 128,-1,11
 1560 1162 1560 1162 1560 1095 c 0,12,13
 1560 987 1560 987 1682 987 c 1,14,-1
 1682 1005 l 1,15,16
 1810 1005 1810 1005 1810 880 c 0,17,18
 1810 785 1810 785 1690 785 c 0,19,20
 1637 785 1637 785 1577 807 c 1,21,22
 1495 522 1495 522 1495 300 c 0,23,24
 1495 170 1495 170 1503.5 126 c 128,-1,25
 1512 82 1512 82 1577 25 c 1,26,27
 1527 0 1527 0 1417 0 c 0,28,29
 1327 0 1327 0 1268.5 61 c 128,-1,30
 1210 122 1210 122 1210 240 c 0,31,32
 1210 345 1210 345 1215 393.5 c 128,-1,33
 1220 442 1220 442 1240 594.5 c 128,-1,34
 1260 747 1260 747 1287 810 c 1,35,36
 1260 815 1260 815 1230 817.5 c 128,-1,37
 1200 820 1200 820 1137 820 c 1,38,-1
 1060 815 l 1,39,40
 1182 672 1182 672 1182 462 c 0,41,42
 1182 277 1182 277 1082 145 c 0,43,44
 972 -3 972 -3 792 -3 c 0,45,46
 605 -3 605 -3 540 125 c 1,47,48
 480 0 480 0 310 0 c 0,49,50
 187 0 187 0 111 103.5 c 128,-1,51
 35 207 35 207 35 382 c 0,52,53
 35 660 35 660 218.5 813.5 c 128,-1,54
 402 967 402 967 687 967 c 0,55,56
 810 967 810 967 915 922 c 1,57,58
 1042 962 1042 962 1155 962 c 0,59,60
 1285 962 1285 962 1425 945 c 1,61,-1
 1625 927 l 2,62,63
 1652 927 1652 927 1665 942 c 1,64,-1
 1592 937 l 1,65,66
 1475 937 1475 937 1402 1010 c 0,67,68
 1340 1072 1340 1072 1340 1147 c 0,69,70
 1340 1255 1340 1255 1435 1312 c 0,71,72
 1515 1360 1515 1360 1612 1360 c 0,73,74
 1805 1360 1805 1360 1935 1243.5 c 128,-1,75
 2065 1127 2065 1127 2065 910 c 0,76,77
 2065 770 2065 770 2020 550 c 128,-1,78
 1975 330 1975 330 1975 195 c 0,79,80
 1975 97 1975 97 1990 67 c 128,-1,81
 2005 37 2005 37 2067 7 c 1,0,1
740 835 m 1,82,-1
 665 840 l 1,83,84
 430 840 430 840 327 555 c 1,85,-1
 412 572 l 1,86,87
 477 572 477 572 517 532 c 1,88,89
 567 712 567 712 740 835 c 1,82,-1
945 500 m 0,90,91
 945 662 945 662 892 745 c 1,92,93
 720 610 720 610 720 275 c 0,94,95
 720 112 720 112 795 112 c 0,96,97
 945 112 945 112 945 500 c 0,90,91
415 335 m 0,98,99
 415 440 415 440 370 440 c 256,100,101
 325 440 325 440 310 385 c 2,102,-1
 285 262 l 1,103,104
 285 140 285 140 337 140 c 0,105,106
 367 140 367 140 391 203.5 c 128,-1,107
 415 267 415 267 415 335 c 0,98,99
EndSplineSet
Ligature2: "'psts' Post Base Substitutions lookup 8 subtable" tm_nnna tm_ikaar
EndChar

StartChar: tm_p_ikaar
Encoding: 65550 -1 129
Width: 1622
GlyphClass: 2
Flags: W
LayerCount: 2
Fore
SplineSet
1590 -8 m 1,0,1
 1582 -10 1582 -10 1573.5 -14 c 128,-1,2
 1565 -18 1565 -18 1543.5 -33 c 128,-1,3
 1522 -48 1522 -48 1497 -48 c 0,4,5
 1255 -48 1255 -48 1255 247 c 0,6,7
 1255 322 1255 322 1262 400 c 0,8,9
 1262 410 1262 410 1282 550 c 1,10,-1
 1310 805 l 1,11,12
 1310 972 1310 972 1231 1069.5 c 128,-1,13
 1152 1167 1152 1167 1022 1167 c 0,14,15
 897 1167 897 1167 827 1105 c 0,16,17
 767 1052 767 1052 767 975 c 0,18,19
 767 915 767 915 782 892 c 1,20,21
 795 880 795 880 847 865 c 1,22,23
 885 967 885 967 1032 967 c 0,24,25
 1155 967 1155 967 1182 932 c 1,26,27
 1127 892 1127 892 1127 780 c 0,28,29
 1127 750 1127 750 1137 703.5 c 128,-1,30
 1147 657 1147 657 1157 616 c 128,-1,31
 1167 575 1167 575 1174.5 525 c 128,-1,32
 1182 475 1182 475 1182 442 c 0,33,34
 1182 -25 1182 -25 602 -25 c 0,35,36
 330 -25 330 -25 182 120 c 0,37,38
 55 240 55 240 55 427 c 0,39,40
 55 480 55 480 62.5 537.5 c 128,-1,41
 70 595 70 595 87 670 c 0,42,43
 95 700 95 700 107.5 767.5 c 128,-1,44
 120 835 120 835 120 852 c 0,45,46
 120 885 120 885 95 942 c 1,47,48
 150 960 150 960 230 960 c 0,49,50
 257 960 257 960 276 960 c 128,-1,51
 295 960 295 960 347 950 c 1,52,53
 440 870 440 870 440 802 c 0,54,55
 440 722 440 722 395 583.5 c 128,-1,56
 350 445 350 445 350 392 c 0,57,58
 350 95 350 95 627 95 c 0,59,60
 752 95 752 95 833.5 170 c 128,-1,61
 915 245 915 245 915 360 c 0,62,63
 915 425 915 425 880 547.5 c 128,-1,64
 845 670 845 670 837 742 c 1,65,-1
 815 750 l 1,66,-1
 780 760 l 1,67,68
 490 760 490 760 490 992 c 0,69,70
 490 1310 490 1310 905 1310 c 0,71,72
 1182 1310 1182 1310 1345 1140 c 0,73,74
 1500 980 1500 980 1500 730 c 0,75,76
 1500 595 1500 595 1485 432 c 1,77,-1
 1470 207 l 1,78,79
 1470 30 1470 30 1590 -8 c 1,0,1
EndSplineSet
Ligature2: "'psts' Post Base Substitutions lookup 8 subtable" tm_pa tm_ikaar
EndChar

StartChar: tm_m_ikaar
Encoding: 65551 -1 130
Width: 1722
GlyphClass: 2
Flags: W
LayerCount: 2
Fore
SplineSet
1680 -3 m 1,0,1
 1657 -33 1657 -33 1567 -33 c 0,2,3
 1352 -33 1352 -33 1352 247 c 0,4,5
 1352 402 1352 402 1398.5 621 c 128,-1,6
 1445 840 1445 840 1445 917 c 0,7,8
 1445 1010 1445 1010 1402 1075 c 0,9,10
 1352 1150 1352 1150 1260 1150 c 0,11,12
 1195 1150 1195 1150 1143.5 1096 c 128,-1,13
 1092 1042 1092 1042 1092 975 c 0,14,15
 1092 910 1092 910 1162 822 c 1,16,17
 1302 702 1302 702 1302 520 c 0,18,19
 1302 240 1302 240 1075 90 c 0,20,21
 895 -30 895 -30 640 -30 c 0,22,23
 390 -30 390 -30 240 65 c 0,24,25
 55 177 55 177 55 402 c 0,26,27
 55 467 55 467 60 498.5 c 128,-1,28
 65 530 65 530 82 605 c 0,29,30
 110 735 110 735 110 790 c 0,31,32
 110 810 110 810 67 917 c 1,33,-1
 180 930 l 1,34,35
 287 930 287 930 346 880 c 128,-1,36
 405 830 405 830 405 742 c 0,37,38
 405 707 405 707 397.5 651 c 128,-1,39
 390 595 390 595 375 520 c 128,-1,40
 360 445 360 445 355 417 c 0,41,42
 340 337 340 337 340 315 c 0,43,44
 340 212 340 212 411 139.5 c 128,-1,45
 482 67 482 67 595 67 c 1,46,-1
 642 70 l 1,47,48
 577 142 577 142 538.5 279.5 c 128,-1,49
 500 417 500 417 500 542 c 0,50,51
 500 647 500 647 530 761 c 128,-1,52
 560 875 560 875 607 925 c 1,53,54
 657 932 657 932 850 932 c 0,55,56
 915 932 915 932 942.5 927 c 128,-1,57
 970 922 970 922 1015 905 c 1,58,-1
 947 952 l 1,59,60
 912 982 912 982 912 1042 c 0,61,62
 912 1265 912 1265 1177 1265 c 0,63,64
 1382 1265 1382 1265 1507 1132 c 0,65,66
 1565 1072 1565 1072 1595 997 c 128,-1,67
 1625 922 1625 922 1625 827 c 0,68,69
 1625 765 1625 765 1617.5 693.5 c 128,-1,70
 1610 622 1610 622 1590 522 c 0,71,72
 1557 322 1557 322 1557 225 c 0,73,74
 1557 30 1557 30 1680 -3 c 1,0,1
1035 552 m 0,75,76
 1035 660 1035 660 988.5 733.5 c 128,-1,77
 942 807 942 807 880 807 c 0,78,79
 842 807 842 807 792 680 c 1,80,81
 750 552 750 552 750 435 c 0,82,83
 750 332 750 332 762 285 c 0,84,85
 767 265 767 265 778.5 223.5 c 128,-1,86
 790 182 790 182 812 112 c 1,87,88
 1035 225 1035 225 1035 552 c 0,75,76
EndSplineSet
Ligature2: "'psts' Post Base Substitutions lookup 8 subtable" tm_ma tm_ikaar
EndChar

StartChar: tm_y_ikaar
Encoding: 65552 -1 131
Width: 1942
GlyphClass: 2
Flags: W
LayerCount: 2
Fore
SplineSet
1955 -13 m 1,0,1
 1932 -43 1932 -43 1822 -43 c 0,2,3
 1627 -43 1627 -43 1627 227 c 0,4,5
 1627 290 1627 290 1634.5 363.5 c 128,-1,6
 1642 437 1642 437 1660 535 c 0,7,8
 1692 730 1692 730 1692 830 c 0,9,10
 1692 1155 1692 1155 1385 1155 c 0,11,12
 1287 1155 1287 1155 1217 1105 c 128,-1,13
 1147 1055 1147 1055 1147 962 c 0,14,15
 1147 850 1147 850 1225 857 c 1,16,17
 1275 965 1275 965 1420 965 c 0,18,19
 1497 965 1497 965 1565 930 c 1,20,21
 1500 872 1500 872 1500 800 c 0,22,23
 1500 735 1500 735 1532 607 c 0,24,25
 1535 595 1535 595 1550 523.5 c 128,-1,26
 1565 452 1565 452 1565 415 c 0,27,28
 1565 212 1565 212 1406 91 c 128,-1,29
 1247 -30 1247 -30 990 -30 c 0,30,31
 697 -30 697 -30 562 120 c 1,32,33
 430 -25 430 -25 325 -25 c 0,34,35
 200 -25 200 -25 125 75 c 1,36,37
 55 180 55 180 55 345 c 0,38,39
 55 412 55 412 73.5 558.5 c 128,-1,40
 92 705 92 705 92 765 c 0,41,42
 92 877 92 877 10 922 c 1,43,44
 95 957 95 957 162 957 c 0,45,46
 342 957 342 957 342 772 c 0,47,48
 342 722 342 722 289.5 543.5 c 128,-1,49
 237 365 237 365 237 265 c 0,50,51
 237 185 237 185 267 130 c 128,-1,52
 297 75 297 75 357 75 c 0,53,54
 402 75 402 75 429.5 117.5 c 128,-1,55
 457 160 457 160 457 210 c 0,56,57
 457 235 457 235 457 262 c 1,58,59
 450 307 450 307 447 335 c 2,60,-1
 437 455 l 1,61,62
 437 535 437 535 467 662 c 0,63,64
 477 702 477 702 488.5 762 c 128,-1,65
 500 822 500 822 500 847 c 0,66,67
 500 885 500 885 475 950 c 1,68,-1
 570 955 l 1,69,70
 807 955 807 955 807 770 c 0,71,72
 807 712 807 712 767 585 c 0,73,74
 747 515 747 515 737 458.5 c 128,-1,75
 727 402 727 402 727 332 c 0,76,77
 727 217 727 217 805 142 c 0,78,79
 882 72 882 72 1017 72 c 0,80,81
 1137 72 1137 72 1206 139.5 c 128,-1,82
 1275 207 1275 207 1275 335 c 0,83,84
 1275 380 1275 380 1267.5 431 c 128,-1,85
 1260 482 1260 482 1240 557 c 0,86,87
 1207 707 1207 707 1207 765 c 2,88,-1
 1207 790 l 1,89,90
 1147 790 1147 790 1094.5 802.5 c 128,-1,91
 1042 815 1042 815 992 847 c 0,92,93
 890 912 890 912 890 1022 c 0,94,95
 890 1297 890 1297 1305 1297 c 0,96,97
 1542 1297 1542 1297 1709.5 1133.5 c 128,-1,98
 1877 970 1877 970 1877 717 c 0,99,100
 1877 620 1877 620 1854.5 463.5 c 128,-1,101
 1832 307 1832 307 1832 215 c 0,102,103
 1832 17 1832 17 1955 -13 c 1,0,1
EndSplineSet
Ligature2: "'psts' Post Base Substitutions lookup 8 subtable" tm_ya tm_ikaar
EndChar

StartChar: tm_r_ikaar
Encoding: 65553 -1 132
Width: 1310
GlyphClass: 2
Flags: W
LayerCount: 2
Fore
SplineSet
1032 892 m 0,0,1
 1032 797 1032 797 887 797 c 0,2,3
 855 797 855 797 835 799 c 0,4,5
 817 801 817 801 781 812 c 1,6,-1
 771 812 l 1,7,-1
 755 677 l 1,8,9
 755 625 755 625 808.5 427.5 c 128,-1,10
 862 230 862 230 862 137 c 0,11,12
 862 -163 862 -163 532 -163 c 1,13,-1
 470 -158 l 1,14,-1
 387 -153 l 1,15,16
 225 -153 225 -153 225 -265 c 0,17,18
 225 -293 225 -293 240 -330 c 2,19,-1
 270 -393 l 1,20,21
 227 -418 227 -418 185 -418 c 0,22,23
 112 -418 112 -418 48.5 -359 c 128,-1,24
 -15 -300 -15 -300 -15 -228 c 0,25,26
 -15 -43 -15 -43 250 -43 c 1,27,-1
 355 -50 l 1,28,-1
 457 -58 l 1,29,30
 605 -58 605 -58 605 135 c 0,31,32
 605 202 605 202 542.5 408.5 c 128,-1,33
 480 615 480 615 480 670 c 2,34,-1
 487 772 l 1,35,-1
 492 818 l 1,36,37
 412 840 412 840 357 840 c 0,38,39
 262 840 262 840 221 795 c 128,-1,40
 180 750 180 750 180 635 c 0,41,42
 180 542 180 542 240 372 c 0,43,44
 267 297 267 297 284.5 224.5 c 128,-1,45
 302 152 302 152 302 107 c 0,46,47
 302 57 302 57 266 13.5 c 128,-1,48
 230 -30 230 -30 180 -30 c 0,49,50
 137 -30 137 -30 92 7 c 0,51,52
 59 39 59 39 57 79 c 0,53,54
 55 89 55 89 55 100 c 1,55,-1
 90 95 l 1,56,57
 145 95 145 95 145 175 c 0,58,59
 145 210 145 210 132.5 260 c 128,-1,60
 120 310 120 310 92.5 390 c 128,-1,61
 65 470 65 470 50 533.5 c 128,-1,62
 35 597 35 597 35 645 c 0,63,64
 35 805 35 805 137.5 888.5 c 128,-1,65
 240 972 240 972 410 972 c 0,66,67
 500 972 500 972 541 969.5 c 128,-1,68
 582 967 582 967 655 952 c 1,69,-1
 797 935 l 2,70,71
 830 935 830 935 856 937 c 0,72,73
 858 938 858 938 860 940 c 2,74,-1
 790 945 l 1,75,76
 722 945 722 945 637 992 c 0,77,78
 530 1055 530 1055 530 1140 c 0,79,80
 530 1260 530 1260 632 1325 c 1,81,82
 710 1367 710 1367 802 1367 c 0,83,84
 992 1367 992 1367 1110 1265 c 0,85,86
 1255 1142 1255 1142 1255 907 c 0,87,88
 1255 812 1255 812 1217.5 547 c 128,-1,89
 1180 282 1180 282 1180 187 c 0,90,91
 1180 102 1180 102 1196 58.5 c 128,-1,92
 1212 15 1212 15 1282 -15 c 1,93,94
 1252 -50 1252 -50 1170 -50 c 0,95,96
 972 -50 972 -50 972 222 c 0,97,98
 972 362 972 362 1023.5 626 c 128,-1,99
 1075 890 1075 890 1075 1005 c 0,100,101
 1075 1247 1075 1247 880 1247 c 0,102,103
 755 1247 755 1247 755 1100 c 0,104,105
 755 987 755 987 942 966 c 1,106,107
 945 971 945 971 945 977 c 2,108,-1
 937 1005 l 1,109,110
 1032 970 1032 970 1032 892 c 0,0,1
EndSplineSet
Ligature2: "'psts' Post Base Substitutions lookup 8 subtable" tm_ra tm_ikaar
EndChar

StartChar: tm_rr_ikaar
Encoding: 65554 -1 133
Width: 1762
GlyphClass: 2
Flags: W
LayerCount: 2
Fore
SplineSet
1777 32 m 1,0,1
 1755 -5 1755 -5 1660 -5 c 0,2,3
 1392 -5 1392 -5 1392 367 c 0,4,5
 1392 427 1392 427 1402 504.5 c 128,-1,6
 1412 582 1412 582 1435 680 c 0,7,8
 1477 877 1477 877 1477 967 c 0,9,10
 1477 1040 1477 1040 1434.5 1117.5 c 128,-1,11
 1392 1195 1392 1195 1317 1195 c 0,12,13
 1232 1195 1232 1195 1172 1135 c 0,14,15
 1117 1075 1117 1075 1117 977 c 0,16,17
 1117 940 1117 940 1132 905 c 1,18,19
 1325 802 1325 802 1325 422 c 0,20,21
 1325 157 1325 157 1155 -24 c 128,-1,22
 985 -205 985 -205 705 -205 c 1,23,-1
 572 -200 l 1,24,-1
 402 -198 l 2,25,26
 315 -198 315 -198 253.5 -244 c 128,-1,27
 192 -290 192 -290 192 -360 c 0,28,29
 192 -388 192 -388 257 -430 c 1,30,31
 220 -460 220 -460 165 -460 c 0,32,33
 87 -460 87 -460 22 -406.5 c 128,-1,34
 -43 -353 -43 -353 -43 -273 c 0,35,36
 -43 -195 -43 -195 33.5 -144 c 128,-1,37
 110 -93 110 -93 205 -93 c 2,38,-1
 422 -100 l 1,39,-1
 600 -110 l 1,40,41
 722 -110 722 -110 850 -20 c 0,42,43
 940 47 940 47 980 142 c 1,44,45
 1027 272 1027 272 1027 532 c 0,46,47
 1027 805 1027 805 892 805 c 0,48,49
 820 805 820 805 775 715 c 0,50,51
 742 642 742 642 742 580 c 0,52,53
 742 517 742 517 727 423.5 c 128,-1,54
 712 330 712 330 712 250 c 0,55,56
 712 217 712 217 714.5 197 c 128,-1,57
 717 177 717 177 730 135 c 0,58,59
 752 42 752 42 800 32 c 1,60,61
 755 -28 755 -28 625 -28 c 0,62,63
 425 -28 425 -28 425 177 c 0,64,65
 425 215 425 215 432.5 266 c 128,-1,66
 440 317 440 317 445 350 c 0,67,68
 467 490 467 490 467 620 c 0,69,70
 467 682 467 682 422 747 c 128,-1,71
 377 812 377 812 312 812 c 0,72,73
 245 812 245 812 206 758.5 c 128,-1,74
 167 705 167 705 167 622 c 0,75,76
 167 567 167 567 179.5 504.5 c 128,-1,77
 192 442 192 442 225 345 c 0,78,79
 282 165 282 165 282 112 c 0,80,81
 282 57 282 57 248.5 16 c 128,-1,82
 215 -25 215 -25 167 -25 c 0,83,84
 112 -25 112 -25 63.5 8.5 c 128,-1,85
 15 42 15 42 22 87 c 1,86,87
 132 87 132 87 132 147 c 0,88,89
 132 225 132 225 84.5 378.5 c 128,-1,90
 37 532 37 532 37 637 c 0,91,92
 37 762 37 762 136 849.5 c 128,-1,93
 235 937 235 937 402 937 c 0,94,95
 492 937 492 937 568.5 902 c 128,-1,96
 645 867 645 867 672 810 c 1,97,98
 727 885 727 885 757 902 c 0,99,100
 822 947 822 947 947 947 c 2,101,-1
 972 947 l 1,102,103
 922 1077 922 1077 922 1122 c 0,104,105
 922 1332 922 1332 1220 1332 c 0,106,107
 1380 1332 1380 1332 1512 1222 c 0,108,109
 1677 1087 1677 1087 1677 842 c 0,110,111
 1677 757 1677 757 1669.5 684.5 c 128,-1,112
 1662 612 1662 612 1657 567 c 0,113,114
 1637 380 1637 380 1637 297 c 0,115,116
 1637 260 1637 260 1644.5 220 c 128,-1,117
 1652 180 1652 180 1672 137 c 0,118,119
 1715 40 1715 40 1777 32 c 1,0,1
EndSplineSet
Ligature2: "'psts' Post Base Substitutions lookup 8 subtable" tm_rra tm_ikaar
EndChar

StartChar: tm_l_ikaar
Encoding: 65555 -1 134
Width: 1837
GlyphClass: 2
Flags: W
LayerCount: 2
Fore
SplineSet
1857 -5 m 1,0,1
 1835 -48 1835 -48 1747 -48 c 0,2,3
 1492 -48 1492 -48 1492 325 c 0,4,5
 1492 387 1492 387 1510 565 c 1,6,-1
 1527 862 l 1,7,8
 1527 1067 1527 1067 1432 1180 c 1,9,10
 1342 1297 1342 1297 1167 1297 c 0,11,12
 1055 1297 1055 1297 988.5 1238.5 c 128,-1,13
 922 1180 922 1180 922 1082 c 0,14,15
 922 1002 922 1002 1022 947 c 1,16,-1
 1087 952 l 1,17,18
 1282 952 1282 952 1380 810 c 0,19,20
 1460 695 1460 695 1460 515 c 0,21,22
 1460 277 1460 277 1341 124.5 c 128,-1,23
 1222 -28 1222 -28 1012 -28 c 0,24,25
 827 -28 827 -28 755 85 c 0,26,27
 705 165 705 165 705 332 c 2,28,-1
 705 415 l 1,29,-1
 707 492 l 1,30,-1
 707 532 l 1,31,-1
 707 565 l 2,32,33
 707 680 707 680 697 717 c 0,34,35
 675 835 675 835 582 835 c 0,36,37
 392 835 392 835 330 540 c 1,38,39
 390 577 390 577 457 577 c 0,40,41
 557 577 557 577 613.5 502 c 128,-1,42
 670 427 670 427 670 312 c 0,43,44
 670 140 670 140 555 42 c 0,45,46
 465 -33 465 -33 355 -33 c 0,47,48
 215 -33 215 -33 120 80 c 1,49,50
 32 195 32 195 32 392 c 0,51,52
 32 617 32 617 175 780 c 0,53,54
 330 957 330 957 600 957 c 0,55,56
 815 957 815 957 905 830 c 0,57,58
 975 725 975 725 975 520 c 1,59,-1
 970 407 l 1,60,-1
 967 287 l 1,61,62
 967 100 967 100 1035 100 c 0,63,64
 1122 100 1122 100 1172 227 c 0,65,66
 1210 330 1210 330 1210 475 c 0,67,68
 1210 827 1210 827 1075 827 c 0,69,70
 1045 827 1045 827 1035 807 c 2,71,-1
 1015 765 l 1,72,73
 955 780 955 780 922 830 c 0,74,75
 902 865 902 865 905 902 c 1,76,-1
 922 912 l 1,77,78
 802 962 802 962 770 992 c 0,79,80
 705 1045 705 1045 705 1150 c 0,81,82
 705 1270 705 1270 835 1340 c 0,83,84
 887 1365 887 1365 954.5 1380 c 128,-1,85
 1022 1395 1022 1395 1100 1395 c 0,86,87
 1162 1395 1162 1395 1228.5 1385 c 128,-1,88
 1295 1375 1295 1375 1365 1352 c 0,89,90
 1567 1290 1567 1290 1660 1155 c 0,91,92
 1765 1000 1765 1000 1765 697 c 0,93,94
 1765 620 1765 620 1757.5 558.5 c 128,-1,95
 1750 497 1750 497 1745 460 c 2,96,-1
 1727 230 l 1,97,98
 1727 127 1727 127 1745 82 c 0,99,100
 1775 15 1775 15 1857 -5 c 1,0,1
467 275 m 0,101,102
 467 445 467 445 372 445 c 0,103,104
 337 445 337 445 312 367 c 1,105,-1
 312 337 l 2,106,107
 312 85 312 85 410 85 c 0,108,109
 467 85 467 85 467 275 c 0,101,102
EndSplineSet
Ligature2: "'psts' Post Base Substitutions lookup 8 subtable" tm_la tm_ikaar
EndChar

StartChar: tm_ll_ikaar
Encoding: 65556 -1 135
Width: 2032
GlyphClass: 2
Flags: W
LayerCount: 2
Fore
SplineSet
2017 2 m 1,0,1
 1992 -8 1992 -8 1959.5 -15.5 c 128,-1,2
 1927 -23 1927 -23 1895 -23 c 0,3,4
 1755 -23 1755 -23 1702 97 c 0,5,6
 1675 167 1675 167 1675 322 c 0,7,8
 1675 460 1675 460 1720 692 c 0,9,10
 1742 810 1742 810 1754.5 902.5 c 128,-1,11
 1767 995 1767 995 1767 1070 c 0,12,13
 1767 1282 1767 1282 1597 1282 c 0,14,15
 1535 1282 1535 1282 1498.5 1232 c 128,-1,16
 1462 1182 1462 1182 1462 1115 c 0,17,18
 1462 1012 1462 1012 1585 995 c 1,19,-1
 1587 1010 l 1,20,-1
 1587 1027 l 1,21,22
 1677 1015 1677 1015 1677 900 c 0,23,24
 1677 815 1677 815 1575 815 c 0,25,26
 1540 815 1540 815 1512 827 c 1,27,28
 1487 725 1487 725 1472 621 c 128,-1,29
 1457 517 1457 517 1457 430 c 0,30,31
 1457 252 1457 252 1476 142 c 128,-1,32
 1495 32 1495 32 1575 32 c 1,33,34
 1575 -20 1575 -20 1420 -20 c 0,35,36
 1182 -20 1182 -20 1182 292 c 0,37,38
 1182 635 1182 635 1230 817 c 1,39,40
 1210 837 1210 837 1125 837 c 0,41,42
 1037 837 1037 837 997 787 c 1,43,44
 1052 700 1052 700 1052 582 c 0,45,46
 1052 517 1052 517 1029.5 379.5 c 128,-1,47
 1007 242 1007 242 1007 202 c 0,48,49
 1007 55 1007 55 1057 12 c 1,50,51
 1035 -25 1035 -25 920 -25 c 0,52,53
 835 -25 835 -25 792 12 c 0,54,55
 737 62 737 62 737 197 c 0,56,57
 737 245 737 245 747 303.5 c 128,-1,58
 757 362 757 362 765 400 c 0,59,60
 792 560 792 560 792 640 c 0,61,62
 792 730 792 730 741 791 c 128,-1,63
 690 852 690 852 597 852 c 0,64,65
 355 852 355 852 302 510 c 1,66,-1
 362 547 l 1,67,68
 405 567 405 567 447 572 c 1,69,70
 547 572 547 572 612 501 c 128,-1,71
 677 430 677 430 677 330 c 0,72,73
 677 187 677 187 597 90 c 0,74,75
 505 -18 505 -18 357 -18 c 0,76,77
 35 -18 35 -18 35 392 c 0,78,79
 35 650 35 650 190 806 c 128,-1,80
 345 962 345 962 615 962 c 0,81,82
 817 962 817 962 922 872 c 1,83,84
 987 952 987 952 1120 952 c 0,85,86
 1142 952 1142 952 1179.5 949.5 c 128,-1,87
 1217 947 1217 947 1270 940 c 2,88,-1
 1422 927 l 1,89,90
 1560 927 1560 927 1575 955 c 1,91,-1
 1477 960 l 2,92,93
 1405 960 1405 960 1322.5 1015 c 128,-1,94
 1240 1070 1240 1070 1240 1152 c 0,95,96
 1240 1270 1240 1270 1328.5 1328.5 c 128,-1,97
 1417 1387 1417 1387 1535 1387 c 0,98,99
 1737 1387 1737 1387 1857 1251 c 128,-1,100
 1977 1115 1977 1115 1977 900 c 0,101,102
 1977 850 1977 850 1969.5 766 c 128,-1,103
 1962 682 1962 682 1945 552 c 0,104,105
 1937 495 1937 495 1924.5 372.5 c 128,-1,106
 1912 250 1912 250 1912 215 c 0,107,108
 1912 130 1912 130 1931 80 c 128,-1,109
 1950 30 1950 30 2017 2 c 1,0,1
472 260 m 0,110,111
 472 442 472 442 372 442 c 0,112,113
 307 442 307 442 307 300 c 0,114,115
 307 222 307 222 332 157 c 128,-1,116
 357 92 357 92 407 92 c 0,117,118
 472 92 472 92 472 260 c 0,110,111
EndSplineSet
Ligature2: "'psts' Post Base Substitutions lookup 8 subtable" tm_lla tm_ikaar
EndChar

StartChar: tm_lll_ikaar
Encoding: 65557 -1 136
Width: 1727
GlyphClass: 2
Flags: W
LayerCount: 2
Fore
SplineSet
1687 15 m 1,0,1
 1675 -28 1675 -28 1582 -28 c 0,2,3
 1340 -28 1340 -28 1340 260 c 0,4,5
 1340 340 1340 340 1385 578.5 c 128,-1,6
 1430 817 1430 817 1430 920 c 0,7,8
 1430 1160 1430 1160 1267 1160 c 0,9,10
 1192 1160 1192 1160 1141 1115 c 128,-1,11
 1090 1070 1090 1070 1090 987 c 0,12,13
 1090 935 1090 935 1145 850 c 1,14,-1
 1187 812 l 1,15,16
 1310 695 1310 695 1310 510 c 256,17,18
 1310 325 1310 325 1182 182 c 0,19,20
 1070 62 1070 62 895 2 c 1,21,22
 962 -58 962 -58 1035 -58 c 0,23,24
 1095 -58 1095 -58 1125 -28 c 1,25,-1
 1167 35 l 1,26,27
 1215 35 1215 35 1265 -8 c 1,28,29
 1315 -43 1315 -43 1330 -85 c 1,30,31
 1305 -150 1305 -150 1225 -185 c 0,32,33
 1172 -208 1172 -208 1132 -208 c 0,34,35
 1105 -208 1105 -208 1022 -183 c 1,36,37
 1022 -238 1022 -238 944.5 -275.5 c 128,-1,38
 867 -313 867 -313 770 -313 c 0,39,40
 660 -313 660 -313 531 -249 c 128,-1,41
 402 -185 402 -185 317 -185 c 0,42,43
 195 -185 195 -185 195 -288 c 0,44,45
 195 -340 195 -340 242 -390 c 1,46,47
 227 -398 227 -398 182 -403 c 1,48,49
 100 -403 100 -403 22 -355 c 0,50,51
 -63 -300 -63 -300 -63 -228 c 0,52,53
 -63 -150 -63 -150 17 -92.5 c 128,-1,54
 97 -35 97 -35 192 -35 c 0,55,56
 315 -35 315 -35 432.5 -99 c 128,-1,57
 550 -163 550 -163 622 -163 c 0,58,59
 822 -163 822 -163 830 -90 c 1,60,-1
 752 -33 l 1,61,-1
 672 -38 l 1,62,63
 415 -38 415 -38 247 62 c 0,64,65
 55 175 55 175 55 395 c 0,66,67
 55 472 55 472 80 580 c 0,68,69
 90 627 90 627 97.5 682 c 128,-1,70
 105 737 105 737 105 777 c 0,71,72
 105 852 105 852 42 897 c 1,73,74
 82 917 82 917 200 917 c 0,75,76
 300 917 300 917 360 857 c 0,77,78
 410 802 410 802 410 720 c 0,79,80
 410 650 410 650 385 527 c 0,81,82
 375 475 375 475 367.5 411 c 128,-1,83
 360 347 360 347 360 295 c 0,84,85
 360 192 360 192 450 125 c 0,86,87
 522 72 522 72 610 72 c 0,88,89
 637 72 637 72 652 77 c 1,90,91
 600 145 600 145 553.5 276 c 128,-1,92
 507 407 507 407 507 530 c 0,93,94
 507 682 507 682 542 795 c 0,95,96
 572 905 572 905 615 922 c 1,97,98
 702 942 702 942 795 942 c 0,99,100
 852 942 852 942 882 939.5 c 128,-1,101
 912 937 912 937 962 925 c 1,102,103
 880 1022 880 1022 880 1105 c 0,104,105
 880 1302 880 1302 1180 1302 c 0,106,107
 1372 1302 1372 1302 1498.5 1168.5 c 128,-1,108
 1625 1035 1625 1035 1625 837 c 0,109,110
 1625 780 1625 780 1617.5 703.5 c 128,-1,111
 1610 627 1610 627 1592 522 c 0,112,113
 1560 320 1560 320 1560 230 c 0,114,115
 1560 42 1560 42 1687 15 c 1,0,1
1030 530 m 0,116,117
 1030 642 1030 642 990 722 c 0,118,119
 942 810 942 810 852 810 c 1,120,121
 817 767 817 767 787 642 c 1,122,123
 767 537 767 537 767 455 c 0,124,125
 767 377 767 377 779.5 297 c 128,-1,126
 792 217 792 217 822 117 c 1,127,128
 917 147 917 147 973.5 262 c 128,-1,129
 1030 377 1030 377 1030 530 c 0,116,117
EndSplineSet
Ligature2: "'psts' Post Base Substitutions lookup 8 subtable" tm_llla tm_ikaar
EndChar

StartChar: tm_v_ikaar
Encoding: 65558 -1 137
Width: 1855
GlyphClass: 2
Flags: W
LayerCount: 2
Fore
SplineSet
1842 2 m 1,0,1
 1805 -40 1805 -40 1735 -40 c 0,2,3
 1510 -40 1510 -40 1510 227 c 0,4,5
 1510 340 1510 340 1536 513.5 c 128,-1,6
 1562 687 1562 687 1562 787 c 0,7,8
 1562 1162 1562 1162 1272 1162 c 0,9,10
 1167 1162 1167 1162 1103.5 1107 c 128,-1,11
 1040 1052 1040 1052 1040 962 c 0,12,13
 1040 892 1040 892 1092 892 c 1,14,-1
 1147 902 l 1,15,16
 1200 955 1200 955 1302 955 c 0,17,18
 1415 955 1415 955 1440 912 c 1,19,20
 1382 897 1382 897 1382 805 c 0,21,22
 1382 675 1382 675 1412 540 c 0,23,24
 1425 490 1425 490 1435 422.5 c 128,-1,25
 1445 355 1445 355 1445 310 c 0,26,27
 1445 162 1445 162 1348.5 63.5 c 128,-1,28
 1252 -35 1252 -35 1130 -35 c 0,29,30
 1080 -35 1080 -35 1017 -8 c 1,31,32
 947 17 947 17 897 17 c 0,33,34
 805 17 805 17 772 -53 c 1,35,36
 622 -3 622 -3 622 115 c 0,37,38
 622 182 622 182 752 327 c 128,-1,39
 882 472 882 472 882 570 c 0,40,41
 882 820 882 820 677 820 c 0,42,43
 460 820 460 820 355 545 c 1,44,45
 410 565 410 565 450 565 c 0,46,47
 667 565 667 565 667 332 c 0,48,49
 667 190 667 190 568.5 80 c 128,-1,50
 470 -30 470 -30 332 -30 c 0,51,52
 185 -30 185 -30 102 90 c 0,53,54
 37 190 37 190 37 345 c 0,55,56
 37 592 37 592 197 755 c 0,57,58
 370 927 370 927 657 927 c 0,59,60
 717 927 717 927 790 912 c 1,61,62
 790 882 790 882 877 832 c 1,63,64
 965 787 965 787 1007 787 c 1,65,66
 1095 695 1095 695 1095 552 c 0,67,68
 1095 322 1095 322 885 122 c 1,69,-1
 950 135 l 1,70,71
 972 135 972 135 1010 120 c 1,72,-1
 1077 107 l 1,73,74
 1207 107 1207 107 1207 280 c 0,75,76
 1207 380 1207 380 1154.5 545 c 128,-1,77
 1102 710 1102 710 1102 780 c 2,78,-1
 1102 797 l 1,79,80
 977 797 977 797 876 859.5 c 128,-1,81
 775 922 775 922 775 1022 c 0,82,83
 775 1157 775 1157 887 1237 c 0,84,85
 942 1272 942 1272 1011 1289.5 c 128,-1,86
 1080 1307 1080 1307 1175 1307 c 0,87,88
 1430 1307 1430 1307 1593.5 1147 c 128,-1,89
 1757 987 1757 987 1757 702 c 0,90,91
 1757 625 1757 625 1749.5 560 c 128,-1,92
 1742 495 1742 495 1734.5 437.5 c 128,-1,93
 1727 380 1727 380 1722 323.5 c 128,-1,94
 1717 267 1717 267 1717 212 c 0,95,96
 1717 105 1717 105 1746 63.5 c 128,-1,97
 1775 22 1775 22 1842 2 c 1,0,1
460 262 m 0,98,99
 460 310 460 310 445 370 c 0,100,101
 422 442 422 442 385 447 c 1,102,103
 347 447 347 447 312 405 c 1,104,105
 292 317 292 317 292 247 c 0,106,107
 292 77 292 77 362 77 c 0,108,109
 392 77 392 77 426 139.5 c 128,-1,110
 460 202 460 202 460 262 c 0,98,99
EndSplineSet
Ligature2: "'psts' Post Base Substitutions lookup 8 subtable" tm_va tm_ikaar
EndChar

StartChar: tm_ss_ikaar
Encoding: 65559 -1 138
Width: 2330
GlyphClass: 2
Flags: W
LayerCount: 2
Fore
SplineSet
2347 2 m 1,0,1
 2305 -23 2305 -23 2235 -23 c 0,2,3
 2007 -23 2007 -23 2007 240 c 0,4,5
 2007 320 2007 320 2067 597.5 c 128,-1,6
 2127 875 2127 875 2127 925 c 0,7,8
 2127 1150 2127 1150 1947 1150 c 0,9,10
 1877 1150 1877 1150 1832 1101 c 128,-1,11
 1787 1052 1787 1052 1787 985 c 0,12,13
 1787 922 1787 922 1815 865 c 1,14,15
 1917 767 1917 767 1917 600 c 0,16,17
 1917 450 1917 450 1772 302 c 1,18,-1
 1510 80 l 1,19,20
 1817 80 1817 80 1817 270 c 1,21,22
 1952 235 1952 235 1952 130 c 0,23,24
 1952 40 1952 40 1777 -5 c 0,25,26
 1637 -40 1637 -40 1455 -40 c 2,27,-1
 1432 -40 l 1,28,29
 1405 -118 1405 -118 1405 -165 c 0,30,31
 1405 -308 1405 -308 1525 -335 c 1,32,33
 1502 -400 1502 -400 1365 -400 c 0,34,35
 1272 -400 1272 -400 1205 -355 c 0,36,37
 1130 -303 1130 -303 1130 -210 c 0,38,39
 1130 -113 1130 -113 1232 -20 c 1,40,-1
 1065 12 l 1,41,-1
 927 30 l 1,42,43
 820 30 820 30 790 -40 c 1,44,45
 717 -25 717 -25 673.5 32.5 c 128,-1,46
 630 90 630 90 630 132 c 1,47,48
 640 145 640 145 645 152 c 0,49,50
 662 172 662 172 695 200 c 0,51,52
 775 265 775 265 820 340 c 0,53,54
 885 455 885 455 885 607 c 0,55,56
 885 705 885 705 830 767.5 c 128,-1,57
 775 830 775 830 700 830 c 0,58,59
 475 830 475 830 362 555 c 1,60,61
 427 577 427 577 487 577 c 0,62,63
 680 577 680 577 680 310 c 0,64,65
 680 182 680 182 573.5 78.5 c 128,-1,66
 467 -25 467 -25 330 -25 c 0,67,68
 200 -25 200 -25 117.5 85 c 128,-1,69
 35 195 35 195 35 340 c 0,70,71
 35 590 35 590 197 752 c 0,72,73
 375 932 375 932 690 932 c 0,74,75
 862 932 862 932 982 835 c 0,76,77
 1122 722 1122 722 1122 510 c 0,78,79
 1122 402 1122 402 1075 317 c 1,80,-1
 972 172 l 1,81,82
 1015 160 1015 160 1147 130 c 0,83,84
 1227 110 1227 110 1310 92 c 1,85,-1
 1347 142 l 1,86,87
 1177 292 1177 292 1177 527 c 0,88,89
 1177 945 1177 945 1587 945 c 1,90,-1
 1647 940 l 1,91,92
 1580 1022 1580 1022 1580 1107 c 0,93,94
 1580 1212 1580 1212 1675 1267 c 0,95,96
 1757 1312 1757 1312 1882 1312 c 0,97,98
 2050 1312 2050 1312 2190 1162 c 0,99,100
 2317 1022 2317 1022 2317 867 c 0,101,102
 2317 742 2317 742 2272 529.5 c 128,-1,103
 2227 317 2227 317 2227 185 c 0,104,105
 2227 52 2227 52 2347 2 c 1,0,1
1682 645 m 0,106,107
 1682 810 1682 810 1580 810 c 0,108,109
 1505 810 1505 810 1457 685 c 0,110,111
 1422 585 1422 585 1422 480 c 0,112,113
 1422 345 1422 345 1485 260 c 1,114,115
 1565 332 1565 332 1623.5 441 c 128,-1,116
 1682 550 1682 550 1682 645 c 0,106,107
462 272 m 0,117,118
 462 455 462 455 387 455 c 0,119,120
 350 455 350 455 332 422 c 0,121,122
 327 417 327 417 305 332 c 1,123,-1
 297 240 l 1,124,125
 297 82 297 82 362 82 c 0,126,127
 397 82 397 82 429.5 141 c 128,-1,128
 462 200 462 200 462 272 c 0,117,118
EndSplineSet
Ligature2: "'psts' Post Base Substitutions lookup 8 subtable" tm_ssa tm_ikaar
EndChar

StartChar: tm_s_ikaar
Encoding: 65560 -1 139
Width: 2302
GlyphClass: 2
Flags: W
LayerCount: 2
Fore
SplineSet
2345 -28 m 1,0,1
 2297 -68 2297 -68 2225 -68 c 0,2,3
 2097 -68 2097 -68 2027 35 c 0,4,5
 1972 122 1972 122 1972 245 c 1,6,-1
 1990 432 l 1,7,-1
 2007 702 l 1,8,9
 2007 855 2007 855 1988.5 956 c 128,-1,10
 1970 1057 1970 1057 1927 1132 c 0,11,12
 1840 1282 1840 1282 1647 1282 c 0,13,14
 1547 1282 1547 1282 1468.5 1226 c 128,-1,15
 1390 1170 1390 1170 1390 1070 c 0,16,17
 1390 987 1390 987 1485 932 c 1,18,-1
 1570 935 l 1,19,20
 1750 935 1750 935 1850 787 c 0,21,22
 1940 655 1940 655 1940 465 c 0,23,24
 1940 220 1940 220 1797 80 c 0,25,26
 1667 -45 1667 -45 1465 -45 c 0,27,28
 1130 -45 1130 -45 1130 230 c 0,29,30
 1130 297 1130 297 1132.5 329.5 c 128,-1,31
 1135 362 1135 362 1153.5 467 c 128,-1,32
 1172 572 1172 572 1172 637 c 0,33,34
 1172 775 1172 775 1117 797 c 1,35,-1
 1067 810 l 1,36,37
 1030 810 1030 810 997 767 c 1,38,39
 1030 717 1030 717 1030 605 c 0,40,41
 1030 542 1030 542 1022.5 486 c 128,-1,42
 1015 430 1015 430 1010 395 c 2,43,-1
 990 202 l 1,44,45
 990 55 990 55 1042 -13 c 1,46,47
 985 -43 985 -43 900 -43 c 0,48,49
 820 -43 820 -43 767 27 c 0,50,51
 747 60 747 60 737 90 c 128,-1,52
 727 120 727 120 727 165 c 0,53,54
 727 240 727 240 749.5 415 c 128,-1,55
 772 590 772 590 772 640 c 0,56,57
 772 855 772 855 590 855 c 0,58,59
 402 855 402 855 332 565 c 1,60,61
 395 592 395 592 445 592 c 0,62,63
 537 592 537 592 595 527 c 0,64,65
 670 447 670 447 670 285 c 0,66,67
 670 152 670 152 570 55 c 0,68,69
 480 -28 480 -28 362 -28 c 0,70,71
 195 -28 195 -28 107 107 c 0,72,73
 35 222 35 222 35 415 c 0,74,75
 35 640 35 640 172 792 c 1,76,77
 325 952 325 952 580 952 c 0,78,79
 820 952 820 952 935 852 c 1,80,81
 1017 935 1017 935 1122 935 c 0,82,83
 1245 935 1245 935 1337.5 857.5 c 128,-1,84
 1430 780 1430 780 1430 655 c 0,85,86
 1430 592 1430 592 1425 559.5 c 128,-1,87
 1420 527 1420 527 1402 450 c 0,88,89
 1375 317 1375 317 1375 235 c 0,90,91
 1375 165 1375 165 1401 110 c 128,-1,92
 1427 55 1427 55 1472 55 c 0,93,94
 1690 55 1690 55 1690 470 c 0,95,96
 1690 812 1690 812 1547 812 c 0,97,98
 1512 812 1512 812 1500 797 c 0,99,100
 1497 792 1497 792 1497 742 c 1,101,102
 1475 742 1475 742 1425 790 c 1,103,104
 1382 840 1382 840 1377 875 c 1,105,-1
 1382 887 l 1,106,-1
 1395 900 l 1,107,108
 1280 942 1280 942 1237 977 c 0,109,110
 1175 1032 1175 1032 1175 1115 c 0,111,112
 1175 1377 1175 1377 1567 1377 c 0,113,114
 1737 1377 1737 1377 1877 1320 c 1,115,116
 2042 1260 2042 1260 2130 1135 c 0,117,118
 2247 967 2247 967 2247 692 c 0,119,120
 2247 587 2247 587 2230 440 c 1,121,-1
 2212 185 l 1,122,123
 2212 75 2212 75 2236 32.5 c 128,-1,124
 2260 -10 2260 -10 2345 -28 c 1,0,1
460 292 m 0,125,126
 460 350 460 350 437.5 405 c 128,-1,127
 415 460 415 460 380 460 c 256,128,129
 345 460 345 460 307 405 c 1,130,-1
 302 307 l 2,131,132
 302 255 302 255 307 220 c 128,-1,133
 312 185 312 185 333.5 137.5 c 128,-1,134
 355 90 355 90 392 87 c 0,135,136
 460 87 460 87 460 292 c 0,125,126
EndSplineSet
Ligature2: "'psts' Post Base Substitutions lookup 8 subtable" tm_sa tm_ikaar
EndChar

StartChar: tm_h_ikaar
Encoding: 65561 -1 140
Width: 2830
GlyphClass: 2
Flags: W
LayerCount: 2
Fore
SplineSet
2862 -8 m 1,0,1
 2842 -45 2842 -45 2735 -45 c 0,2,3
 2625 -45 2625 -45 2558.5 40 c 128,-1,4
 2492 125 2492 125 2492 277 c 0,5,6
 2492 447 2492 447 2552 679.5 c 128,-1,7
 2612 912 2612 912 2612 967 c 0,8,9
 2612 1052 2612 1052 2566 1111 c 128,-1,10
 2520 1170 2520 1170 2442 1170 c 0,11,12
 2357 1170 2357 1170 2299.5 1116 c 128,-1,13
 2242 1062 2242 1062 2242 977 c 0,14,15
 2242 930 2242 930 2275 850 c 1,16,17
 2420 712 2420 712 2420 482 c 0,18,19
 2420 55 2420 55 2157.5 -102.5 c 128,-1,20
 1895 -260 1895 -260 1520 -260 c 1,21,22
 1430 -248 1430 -248 1295 -238 c 128,-1,23
 1160 -228 1160 -228 1052 -228 c 0,24,25
 922 -228 922 -228 779.5 -216.5 c 128,-1,26
 637 -205 637 -205 492 -195 c 1,27,28
 262 -195 262 -195 262 -345 c 0,29,30
 262 -395 262 -395 327 -418 c 1,31,32
 302 -458 302 -458 235 -458 c 0,33,34
 155 -458 155 -458 90 -404 c 128,-1,35
 25 -350 25 -350 25 -273 c 0,36,37
 25 -80 25 -80 365 -80 c 0,38,39
 527 -80 527 -80 919.5 -117.5 c 128,-1,40
 1312 -155 1312 -155 1495 -155 c 0,41,42
 1870 -155 1870 -155 1975 -35 c 0,43,44
 2042 45 2042 45 2092 198.5 c 128,-1,45
 2142 352 2142 352 2142 515 c 0,46,47
 2142 797 2142 797 1995 797 c 0,48,49
 1862 797 1862 797 1862 612 c 0,50,51
 1862 562 1862 562 1839.5 432 c 128,-1,52
 1817 302 1817 302 1817 200 c 0,53,54
 1817 70 1817 70 1897 22 c 1,55,56
 1842 -33 1842 -33 1710 -33 c 0,57,58
 1627 -33 1627 -33 1578.5 26 c 128,-1,59
 1530 85 1530 85 1530 165 c 0,60,61
 1530 215 1530 215 1535 258.5 c 128,-1,62
 1540 302 1540 302 1557 382 c 0,63,64
 1585 525 1585 525 1585 610 c 0,65,66
 1585 810 1585 810 1455 810 c 0,67,68
 1317 810 1317 810 1317 602 c 0,69,70
 1317 547 1317 547 1324.5 492 c 128,-1,71
 1332 437 1332 437 1352 370 c 0,72,73
 1387 237 1387 237 1387 192 c 0,74,75
 1387 -18 1387 -18 1170 -18 c 0,76,77
 1125 -18 1125 -18 1053.5 8.5 c 128,-1,78
 982 35 982 35 935 35 c 0,79,80
 875 35 875 35 852 22 c 1,81,82
 830 15 830 15 782 -43 c 1,83,84
 635 10 635 10 635 137 c 1,85,-1
 795 277 l 1,86,87
 907 405 907 405 907 597 c 0,88,89
 907 850 907 850 712 850 c 0,90,91
 470 850 470 850 350 547 c 1,92,93
 412 595 412 595 467 595 c 0,94,95
 562 595 562 595 620 522 c 0,96,97
 647 490 647 490 662 442.5 c 128,-1,98
 677 395 677 395 677 332 c 0,99,100
 677 197 677 197 573.5 86 c 128,-1,101
 470 -25 470 -25 320 -25 c 0,102,103
 192 -25 192 -25 112 81 c 128,-1,104
 32 187 32 187 32 322 c 0,105,106
 32 597 32 597 200 775 c 0,107,108
 377 962 377 962 675 962 c 0,109,110
 852 962 852 962 975 870 c 0,111,112
 1122 760 1122 760 1122 552 c 0,113,114
 1122 407 1122 407 1042 290 c 0,115,116
 1015 255 1015 255 905 140 c 1,117,-1
 937 147 l 1,118,-1
 990 152 l 2,119,120
 1015 152 1015 152 1067.5 128.5 c 128,-1,121
 1120 105 1120 105 1162 105 c 0,122,123
 1257 105 1257 105 1257 215 c 0,124,125
 1257 287 1257 287 1219.5 387 c 128,-1,126
 1182 487 1182 487 1182 630 c 0,127,128
 1182 762 1182 762 1269.5 858.5 c 128,-1,129
 1357 955 1357 955 1485 955 c 0,130,131
 1710 955 1710 955 1800 820 c 1,132,133
 1842 885 1842 885 1902 917.5 c 128,-1,134
 1962 950 1962 950 2050 950 c 0,135,136
 2092 950 2092 950 2142 935 c 1,137,-1
 2080 1015 l 2,138,139
 2050 1052 2050 1052 2050 1100 c 0,140,141
 2050 1207 2050 1207 2127.5 1263.5 c 128,-1,142
 2205 1320 2205 1320 2320 1320 c 0,143,144
 2535 1320 2535 1320 2672 1165 c 0,145,146
 2800 1017 2800 1017 2800 805 c 0,147,148
 2800 740 2800 740 2771 552.5 c 128,-1,149
 2742 365 2742 365 2742 260 c 0,150,151
 2742 150 2742 150 2761 86 c 128,-1,152
 2780 22 2780 22 2862 -8 c 1,0,1
465 265 m 0,153,154
 465 462 465 462 385 462 c 0,155,156
 350 462 350 462 335 447 c 1,157,-1
 305 380 l 1,158,159
 290 297 290 297 290 237 c 0,160,161
 290 90 290 90 372 90 c 0,162,163
 402 90 402 90 433.5 143.5 c 128,-1,164
 465 197 465 197 465 265 c 0,153,154
EndSplineSet
Ligature2: "'psts' Post Base Substitutions lookup 8 subtable" tm_ha tm_ikaar
EndChar

StartChar: tm_k_iikaar
Encoding: 65562 -1 141
Width: 1245
GlyphClass: 2
Flags: W
LayerCount: 2
Fore
SplineSet
1205 362 m 0,0,1
 1205 225 1205 225 1095 105 c 0,2,3
 975 -28 975 -28 790 -28 c 0,4,5
 690 -28 690 -28 612 22 c 1,6,7
 520 -35 520 -35 390 -35 c 0,8,9
 262 -35 262 -35 168.5 50 c 128,-1,10
 75 135 75 135 75 280 c 0,11,12
 75 367 75 367 142 447 c 1,13,14
 37 527 37 527 37 640 c 0,15,16
 37 767 37 767 145 852 c 0,17,18
 237 922 237 922 395 945 c 1,19,20
 240 1035 240 1035 240 1192 c 0,21,22
 240 1295 240 1295 337 1362 c 0,23,24
 425 1420 425 1420 547 1420 c 0,25,26
 682 1420 682 1420 777 1355 c 1,27,28
 872 1295 872 1295 872 1200 c 0,29,30
 872 1125 872 1125 811 1073.5 c 128,-1,31
 750 1022 750 1022 670 1022 c 0,32,33
 585 1022 585 1022 516 1053.5 c 128,-1,34
 447 1085 447 1085 432 1150 c 1,35,-1
 430 1122 l 1,36,37
 430 1012 430 1012 630 937 c 1,38,-1
 772 925 l 1,39,40
 890 925 890 925 890 990 c 1,41,-1
 885 1017 l 1,42,43
 912 1017 912 1017 944.5 981 c 128,-1,44
 977 945 977 945 977 907 c 0,45,46
 977 857 977 857 915 825 c 0,47,48
 875 805 875 805 845 798.5 c 128,-1,49
 815 792 815 792 785 792 c 0,50,51
 742 792 742 792 719.5 796 c 128,-1,52
 697 800 697 800 650 812 c 2,53,-1
 522 840 l 1,54,-1
 612 690 l 1,55,56
 725 717 725 717 832.5 733.5 c 128,-1,57
 940 750 940 750 1032 750 c 1,58,59
 1205 615 1205 615 1205 362 c 0,0,1
675 1242 m 1,60,61
 675 1325 675 1325 635 1325 c 0,62,63
 550 1325 550 1325 550 1207 c 0,64,65
 550 1135 550 1135 595 1135 c 0,66,67
 625 1135 625 1135 647.5 1172.5 c 128,-1,68
 670 1210 670 1210 675 1242 c 1,60,61
387 612 m 1,69,70
 327 740 327 740 290 785 c 1,71,72
 205 747 205 747 205 592 c 0,73,74
 205 545 205 545 225 522 c 1,75,76
 300 575 300 575 387 612 c 1,69,70
945 362 m 0,77,78
 945 452 945 452 906 531 c 128,-1,79
 867 610 867 610 805 617 c 0,80,81
 777 617 777 617 743.5 612 c 128,-1,82
 710 607 710 607 665 590 c 1,83,84
 752 400 752 400 752 287 c 0,85,86
 752 160 752 160 672 72 c 1,87,-1
 720 55 l 1,88,89
 822 55 822 55 887 157 c 0,90,91
 915 200 915 200 930 251 c 128,-1,92
 945 302 945 302 945 362 c 0,77,78
515 237 m 0,93,94
 515 337 515 337 440 500 c 1,95,-1
 412 487 l 1,96,97
 315 435 315 435 315 240 c 0,98,99
 315 182 315 182 341 124.5 c 128,-1,100
 367 67 367 67 415 67 c 0,101,102
 515 67 515 67 515 237 c 0,93,94
EndSplineSet
Ligature2: "'abvs' Above Base Substitutions lookup 6 subtable" tm_ka tm_iikaar
EndChar

